SplineFontDB: 3.2
FontName: CatsPaw-Base
FullName: CatsPaw Base
FamilyName: CatsPaw
Weight: Base
Copyright: (c) 2022, Ilya Mizus aka bigfatbrowncat
Version: 001.005
ItalicAngle: 0
UnderlinePosition: -100
UnderlineWidth: 51
Ascent: 819
Descent: 205
InvalidEm: 0
sfntRevision: 0x00010000
LayerCount: 2
Layer: 0 1 "Back" 1
Layer: 1 1 "Fore" 0
XUID: [1021 519 -785824813 14359]
StyleMap: 0x0040
FSType: 0
OS2Version: 4
OS2_WeightWidthSlopeOnly: 0
OS2_UseTypoMetrics: 0
CreationTime: 1650111813
ModificationTime: 1652257369
PfmFamily: 17
TTFWeight: 400
TTFWidth: 5
LineGap: 92
VLineGap: 0
Panose: 2 0 5 3 0 0 0 0 0 0
OS2TypoAscent: 819
OS2TypoAOffset: 0
OS2TypoDescent: -205
OS2TypoDOffset: 0
OS2TypoLinegap: 92
OS2WinAscent: 958
OS2WinAOffset: 0
OS2WinDescent: 460
OS2WinDOffset: 0
HheadAscent: 958
HheadAOffset: 0
HheadDescent: -460
HheadDOffset: 0
OS2SubXSize: 666
OS2SubYSize: 717
OS2SubXOff: 0
OS2SubYOff: 143
OS2SupXSize: 666
OS2SupYSize: 717
OS2SupXOff: 0
OS2SupYOff: 492
OS2StrikeYSize: 50
OS2StrikeYPos: 264
OS2CapHeight: 823
OS2XHeight: 527
OS2Vendor: 'CLGR'
OS2CodePages: 00000004.00000000
OS2UnicodeRanges: 00000203.00000000.00000000.00000000
MarkAttachClasses: 1
DEI: 91125
TtTable: prep
PUSHW_1
 511
SCANCTRL
PUSHB_1
 4
SCANTYPE
EndTTInstrs
ShortTable: cvt  3
  33
  633
  648
EndShort
ShortTable: maxp 16
  1
  0
  287
  260
  4
  163
  4
  2
  0
  1
  1
  0
  64
  46
  1
  1
EndShort
LangName: 1033 "" "" "" "" "" "Version 001.005" "" "" "" "" "Created with Calligraphr.com" "" "" "" "" "" "Catspaw" "Regular"
GaspTable: 1 65535 15 1
Encoding: Custom
UnicodeInterp: none
NameList: AGL For New Fonts
DisplaySize: -48
AntiAlias: 1
FitToEm: 0
WinInfo: 52 26 10
BeginPrivate: 0
EndPrivate
Grid
-1024 236.25 m 0
 2048 236.25 l 1024
-1024 -378 m 0
 2048 -378 l 1024
  Named: "tail_end"
-1024 490.880004883 m 0
 2048 490.880004883 l 1024
  Named: "small_top"
EndSplineSet
BeginChars: 289 289

StartChar: .notdef
Encoding: 259 -1 0
Width: 404
Flags: W
LayerCount: 2
Fore
SplineSet
34 0 m 1,0,-1
 34 682 l 1,1,-1
 306 682 l 1,2,-1
 306 0 l 1,3,-1
 34 0 l 1,0,-1
68 34 m 1,4,-1
 272 34 l 1,5,-1
 272 648 l 1,6,-1
 68 648 l 1,7,-1
 68 34 l 1,4,-1
EndSplineSet
EndChar

StartChar: exclam
Encoding: 33 33 34
Width: 242
GlyphClass: 2
Flags: W
LayerCount: 2
Fore
SplineSet
134 34 m 0,0,1
 140 1 140 1 100 -10 c 0,2,3
 58 -21 58 -21 54 26 c 0,4,5
 50 65 50 65 89 74 c 0,6,7
 125 83 125 83 134 34 c 0,0,1
145 692 m 2,8,9
 145 692 145 692 123 262 c 0,10,11
 118 187 118 187 113 156 c 0,12,13
 111 145 111 145 98 145 c 0,14,15
 83 144 83 144 82 158 c 0,16,17
 79 189 79 189 82 264 c 0,18,19
 94 681 94 681 94 686 c 0,20,21
 93 722 93 722 116 724 c 0,22,23
 147 727 147 727 145 692 c 2,8,9
EndSplineSet
EndChar

StartChar: hyphen
Encoding: 45 45 46
Width: 363
GlyphClass: 2
Flags: W
LayerCount: 2
Fore
SplineSet
295 379 m 1,0,1
 293 373 293 373 293 372 c 5,2,-1
 51 367 l 5,3,4
 52.5 374 l 1,5,6
 110 374 110 374 295 379 c 1,0,1
EndSplineSet
EndChar

StartChar: question
Encoding: 63 63 64
Width: 510
GlyphClass: 2
Flags: W
LayerCount: 2
Back
SplineSet
70.53125 649 m 132,-1,0
 70.53125 661 70.53125 661 82.53125 661 c 132,-1,1
 94.53125 661 94.53125 661 94.53125 649 c 132,-1,2
 94.53125 637 94.53125 637 82.53125 637 c 132,-1,3
 70.53125 637 70.53125 637 70.53125 649 c 132,-1,0
EndSplineSet
Fore
SplineSet
94 657 m 0,0,1
 104 672 104 672 115 685.353013897 c 0,2,3
 153 733 153 733 209 741 c 0,4,5
 286.155124654 751.063711911 286.155124654 751.063711911 349 719 c 0,6,7
 458 661 458 661 422 516 c 0,8,9
 400 427 400 427 320 385 c 24,10,11
 206 324 206 324 209 249 c 0,12,13
 211 204 211 204 257 172 c 1,14,15
 250 168 250 168 242 164 c 1,16,17
 204 191 204 191 201 250 c 0,18,19
 198 328 198 328 316 391 c 0,20,21
 393 432 393 432 415 519 c 0,22,23
 450 663 450 663 345 713 c 0,24,25
 279.366111952 744.32526475 279.366111952 744.32526475 215 729 c 0,26,27
 174 719 174 719 114 641 c 0,28,29
 111 637 111 637 105 637.100585938 c 0,30,31
 92 637 92 637 92 648 c 0,32,33
 92 654 92 654 94 657 c 0,0,1
EndSplineSet
Refer: 287 -1 S 1 0 0 1 160 0 2
EndChar

StartChar: F
Encoding: 70 70 71
Width: 638
GlyphClass: 2
Flags: W
LayerCount: 2
Back
SplineSet
-64.3056640625 54 m 132,-1,0
 -64.3056640625 66 -64.3056640625 66 -52.3056640625 66 c 132,-1,1
 -40.3056640625 66 -40.3056640625 66 -40.3056640625 54 c 132,-1,2
 -40.3056640625 42 -40.3056640625 42 -52.3056640625 42 c 132,-1,3
 -64.3056640625 42 -64.3056640625 42 -64.3056640625 54 c 132,-1,0
EndSplineSet
Fore
SplineSet
775 798 m 1,0,1
 503 791.481445312 l 2,2,3
 456 790 456 790 305 781 c 1,4,-1
 307 732 l 1,5,6
 307.675223039 608.434183884 307.675223039 608.434183884 300.211215606 499.913930791 c 1,7,8
 343.590968439 495.627351348 343.590968439 495.627351348 396 486.672384216 c 0,9,10
 452 477 452 477 566 490 c 0,11,12
 579 491 579 491 592 492.831054688 c 1,13,14
 592 490 592 490 592 487 c 1,15,16
 587 487 587 487 567 484 c 0,17,18
 459 468 459 468 395 479 c 0,19,20
 337.633146335 488.976844116 337.633146335 488.976844116 299.707194722 492.732599575 c 1,21,22
 296.243719321 444.357604135 296.243719321 444.357604135 291.14791928 399 c 0,23,24
 271.637988819 228.815687128 271.637988819 228.815687128 220 77 c 0,25,26
 194 -1 194 -1 136 -6 c 0,27,28
 77 -11 77 -11 40 46 c 0,29,30
 37 50 37 50 37.767578125 56 c 0,31,32
 38 61 38 61 41 63 c 0,33,34
 46 67 46 67 51.5 66.5 c 128,-1,35
 57 66 57 66 59.56640625 63 c 0,36,37
 61 62 61 62 67.5 43 c 0,38,39
 74 27 74 27 87 16 c 0,40,41
 107 -1 107 -1 136 0 c 0,42,43
 186 2 186 2 214 82 c 0,44,45
 261 216 261 216 283.383611984 400 c 0,46,47
 288.718062706 445.421774746 288.718062706 445.421774746 292.437178634 493.411009643 c 1,48,49
 274.235791885 495 274.235791885 495 261 495 c 0,50,51
 222 495 222 495 156 472 c 0,52,53
 152 471 152 471 152 477 c 0,54,55
 152 488 152 488 156 489 c 0,56,57
 218 505 218 505 260 502.987060733 c 0,58,59
 275.754332785 502.175696098 275.754332785 502.175696098 292.98428389 500.601395839 c 1,60,61
 301 607.930491641 301 607.930491641 301 728 c 0,62,63
 300 754 300 754 299 781 c 1,64,-1
 264 776 l 2,65,66
 178 764 178 764 151 738 c 0,67,68
 118 707 118 707 136 667 c 0,69,70
 140 656 140 656 164.25 638 c 0,71,72
 170 634 170 634 180 626 c 1,73,74
 169 617 169 617 167 613.371944165 c 1,75,76
 160 621 160 621 153 629 c 0,77,78
 137 647 137 647 129.723318408 664 c 0,79,80
 111 707 111 707 146 742 c 0,81,82
 173 769 173 769 264 782 c 2,83,-1
 298 787 l 1,84,-1
 297 808 l 2,85,86
 296 817 296 817 297.5 818.5 c 0,87,88
 298 819 298 819 302 819 c 0,89,90
 303 810 303 810 303 807 c 2,91,-1
 304 788 l 1,92,93
 442 797 442 797 503 798.248046875 c 2,94,-1
 773 806 l 1,95,96
 774 802 774 802 775 798 c 1,0,1
EndSplineSet
EndChar

StartChar: G
Encoding: 71 71 72
Width: 638
GlyphClass: 2
Flags: W
LayerCount: 2
Back
SplineSet
520.040039062 743 m 132,-1,0
 520.040039062 755 520.040039062 755 532.040039062 755 c 132,-1,1
 544.040039062 755 544.040039062 755 544.040039062 743 c 132,-1,2
 544.040039062 731 544.040039062 731 532.040039062 731 c 132,-1,3
 520.040039062 731 520.040039062 731 520.040039062 743 c 132,-1,0
EndSplineSet
Fore
SplineSet
299 0 m 4,0,1
 129 2 129 2 64 141 c 4,2,3
 0 279 0 279 23 435 c 4,4,5
 51 633 51 633 167 751 c 4,6,7
 250 836 250 836 413 814 c 4,8,9
 510 801 510 801 532 770 c 4,10,11
 548 746 548 746 543.5 738 c 132,-1,12
 539 730 539 730 532 730.877929688 c 4,13,14
 525 731 525 731 521 736 c 4,15,16
 488 772 488 772 479 779.063476562 c 4,17,18
 450 801 450 801 412 805 c 4,19,20
 244 823 244 823 172 747 c 4,21,22
 63 632 63 632 30 433 c 4,23,24
 6 292 6 292 69 148 c 4,25,26
 131 7 131 7 296 9 c 4,27,28
 415 10 415 10 484 72 c 4,29,30
 583 162.835051546 583 162.835051546 583 331 c 4,31,32
 583 411 583 411 573 440 c 4,33,34
 564.256370052 463.304094381 564.256370052 463.304094381 530 472.721679688 c 4,35,36
 490 484 490 484 413 484 c 4,37,38
 367 484 367 484 332 468.6171875 c 4,39,40
 271 442 271 442 241 369 c 4,41,42
 232 347 232 347 228 348 c 4,43,44
 215 353 215 353 213 356 c 5,45,46
 217 366 217 366 218 368 c 4,47,48
 266 446 266 446 330 477 c 4,49,50
 359 491 359 491 413 490.25390625 c 4,51,52
 474 490 474 490 532 478 c 4,53,54
 568.384030418 470.203422053 568.384030418 470.203422053 579 443 c 4,55,56
 591 412 591 412 591 323 c 4,57,58
 588.226478242 159.444009361 588.226478242 159.444009361 489 68 c 4,59,60
 413 -1 413 -1 299 0 c 4,0,1
EndSplineSet
EndChar

StartChar: I
Encoding: 73 73 74
Width: 430
GlyphClass: 2
Flags: W
LayerCount: 2
Back
SplineSet
-780.5 66 m 132,-1,1
 -780.5 78 -780.5 78 -768.5 78 c 132,-1,2
 -756.5 78 -756.5 78 -756.5 66 c 132,-1,3
 -756.5 54 -756.5 54 -768.5 54 c 132,-1,0
 -780.5 54 -780.5 54 -780.5 66 c 132,-1,1
EndSplineSet
Fore
SplineSet
127 86 m 0,0,1
 144 86 l 1,2,3
 144 2 144 2 206 6 c 1,4,5
 288 6 288 6 313 234 c 0,6,7
 327 360 327 360 332.088867188 435 c 1,8,9
 333 488 333 488 334 502 c 0,10,11
 336 530 336 530 336 617 c 0,12,13
 336 717 336 717 337 813 c 1,14,-1
 295 792 l 2,15,16
 232.220703125 760.610351562 232.220703125 760.610351562 184 790.95703125 c 0,17,18
 115.193359375 834.877929688 115.193359375 834.877929688 70 772 c 1,19,-1
 66 774 l 0,20,21
 71 780 71 780 75.5 786 c 0,22,23
 115.010742188 839.393554688 115.010742188 839.393554688 189 796.259765625 c 0,24,25
 233.263671875 772.149414062 233.263671875 772.149414062 292 797 c 0,26,27
 304 802 304 802 334 819 c 1,28,-1
 343 819 l 1,29,30
 343 813 343 813 343 807 c 0,31,32
 343 762 343 762 343 717 c 2,33,-1
 341 503 l 2,34,35
 340.69140625 469.966796875 340.69140625 469.966796875 338.73046875 438 c 1,36,37
 336 372 336 372 320.001953125 233 c 0,38,39
 294 1 294 1 206 0 c 0,40,41
 127 -1 127 -1 127 86 c 0,0,1
EndSplineSet
EndChar

StartChar: J
Encoding: 74 74 75
Width: 424
GlyphClass: 2
Flags: W
LayerCount: 2
Fore
SplineSet
310 518 m 0,1,2
 307.768421053 381.873684211 307.768421053 381.873684211 319 291 c 0,3,4
 327 228 327 228 337 181 c 0,5,6
 347 132 347 132 347.765625 93 c 0,7,8
 348 39 348 39 329 6 c 0,9,10
 304 -38 304 -38 245 -66 c 0,11,12
 191.161398591 -91.9222895671 191.161398591 -91.9222895671 123 -91.7463513491 c 0,13,14
 64.7331577349 -91.5959529622 64.7331577349 -91.5959529622 -4 -72.3743995684 c 0,15,16
 -60.7550337475 -56.5025853307 -60.7550337475 -56.5025853307 -93.5 -20 c 0,17,18
 -108 -4 -108 -4 -110 13 c 0,19,20
 -112 28 -112 28 -104 31 c 0,21,22
 -100 33 -100 33 -95 31.626953125 c 0,23,24
 -88 30 -88 30 -86 23 c 0,25,26
 -83 11 -83 11 -74.6201171875 -6 c 0,27,28
 -52 -51 -52 -51 -2 -66.604256707 c 0,29,30
 63.9380440406 -87.1900871561 63.9380440406 -87.1900871561 122 -86.7589718743 c 0,31,32
 186.334939426 -86.2812791221 186.334939426 -86.2812791221 241 -60 c 0,33,34
 304 -30 304 -30 324 11 c 0,35,36
 341 46 341 46 340.810546875 94 c 0,37,38
 341 130 341 130 330 178 c 0,39,40
 320 221 320 221 312 298 c 0,41,42
 299 428 299 428 302 518 c 0,43,44
 303.555938666 568.568006645 303.555938666 568.568006645 318.42707556 719 c 0,45,46
 322.671263992 761.93294659 322.671263992 761.93294659 328 813 c 1,47,-1
 286 792 l 2,48,49
 223 761 223 761 175 790.95703125 c 0,50,51
 106 835 106 835 61 772 c 1,52,-1
 57 774 l 0,53,54
 62 780 62 780 66.5 786 c 0,55,56
 106 839 106 839 180 796.259765625 c 0,57,58
 223 771 223 771 283 797 c 0,59,60
 295 802 295 802 325 819 c 1,61,-1
 334 819 l 1,62,63
 336 808 336 808 334 807 c 0,64,65
 334.538169737 806.227753952 334.538169737 806.227753952 326 718 c 0,66,67
 311 569 311 569 310 518 c 0,1,2
EndSplineSet
EndChar

StartChar: L
Encoding: 76 76 77
Width: 762
GlyphClass: 2
Flags: W
LayerCount: 2
Back
SplineSet
662.987304688 221 m 132,-1,1
 662.987304688 233 662.987304688 233 674.987304688 233 c 132,-1,2
 686.987304688 233 686.987304688 233 686.987304688 221 c 132,-1,3
 686.987304688 209 686.987304688 209 674.987304688 209 c 132,-1,0
 662.987304688 209 662.987304688 209 662.987304688 221 c 132,-1,1
EndSplineSet
Fore
SplineSet
652 214 m 0,0,1
 649 226 649 226 655 231 c 0,2,3
 658 233 658 233 665 233.0703125 c 0,4,5
 675 233 675 233 675 222 c 0,6,7
 675 204 675 204 663.339753238 163 c 0,8,9
 652 121 652 121 633.406423577 90 c 0,10,11
 580 0 580 0 465 0 c 0,12,13
 379 0 379 0 306.06640625 148 c 0,14,15
 280 201 280 201 251 245 c 1,16,17
 236 176 236 176 211 104 c 0,18,19
 180 16 180 16 133 4 c 0,20,21
 117 -0 117 -0 104 0.148853688133 c 0,22,23
 33 1 33 1 33.0256411569 84 c 0,24,25
 33 126 33 126 57 189 c 0,26,27
 99 298 99 298 187 298.035502959 c 0,28,29
 221 298 221 298 248 260 c 1,30,-1
 269.361328125 364 l 0,31,32
 320 604 320 604 324.041992188 629 c 0,33,34
 344 753 344 753 351 793 c 0,35,36
 353 810 353 810 354 811 c 1,37,38
 365 810 365 810 370 807 c 1,39,40
 369 800 369 800 367 792 c 256,41,42
 342 693 342 693 331 627 c 4,43,44
 327 605 327 605 276 363 c 0,45,-1
 253 253 l 1,46,47
 286 205 286 205 312 152 c 0,48,49
 382 7 382 7 466 7 c 0,50,51
 574 6 574 6 627 94 c 0,52,53
 647 128 647 128 652.938476562 163 c 0,54,55
 656.548142182 185.574111365 656.548142182 185.574111365 652 214 c 0,0,1
130.5 10 m 0,56,57
 175 23 175 23 204 106 c 1,58,59
 226 167 226 167 246 251 c 1,60,61
 220 292 220 292 186 291.122523527 c 0,62,63
 100 290 100 290 64 186 c 0,64,65
 42 122 42 122 41.7345569231 81 c 0,66,67
 42 7 42 7 105 6.23840967946 c 0,68,69
 117 6 117 6 130.5 10 c 0,56,57
EndSplineSet
EndChar

StartChar: N
Encoding: 78 78 79
Width: 890
GlyphClass: 2
Flags: W
LayerCount: 2
Fore
SplineSet
839 814 m 0,0,1
 925 814 925 814 974 824 c 9,2,-1
 975 819 l 1,3,-1
 972 818.491210938 l 24,4,5
 927 808 927 808 842 808.081081081 c 0,6,-1
 839 808 l 1,7,8
 827 751 827 751 814.635742188 694 c 0,9,10
 790 580 790 580 726.145507812 330 c 0,11,12
 664 89 664 89 574 12.5 c 1,13,14
 531 15 531 15 545 147 c 0,15,-1
 574 490.879882812 l 1,16,-1
 583.385143921 606 l 2,17,18
 599 763 599 763 600.260742188 777 c 0,19,20
 603 813 603 813 572 813 c 0,21,22
 534 813 534 813 514 704 c 0,23,24
 481 522 481 522 425.43129273 376 c 0,25,26
 337 144 337 144 207 49.068174686 c 0,27,28
 139 -1 139 -1 60 -1 c 0,29,30
 3 -1 3 -1 -18 21 c 0,31,32
 -35 39 -35 39 -37 69 c 0,33,-1
 -39 95 l 1,34,35
 -36 95 -36 95 -32 95 c 1,36,37
 -31 84 -31 84 -30 69 c 0,38,39
 -28 40 -28 40 -13 26 c 0,40,41
 10 5 10 5 58 6 c 0,42,43
 135 8 135 8 202 55.6645782062 c 0,44,45
 330 147 330 147 417.738639896 378 c 0,46,47
 470 517 470 517 507 706 c 0,48,49
 529 819 529 819 568 819 c 0,50,51
 612 820 612 820 607.180490122 774 c 2,52,-1
 591 606 l 2,53,54
 582.429023172 517.008622349 582.429023172 517.008622349 580.840907935 492 c 0,55,56
 562.144984942 233.92320283 562.144984942 233.92320283 552 146 c 0,57,58
 538 23 538 23 573 20 c 1,59,60
 649 88 649 88 719.563476562 330 c 0,61,62
 744 415 744 415 808 694 c 24,63,64
 822 754 822 754 836 814 c 1,65,66
 837 814 837 814 839 814 c 0,0,1
EndSplineSet
EndChar

StartChar: Q
Encoding: 81 81 82
Width: 876
GlyphClass: 2
Flags: WO
LayerCount: 2
Back
SplineSet
1463.04785156 112 m 132,-1,1
 1463.04785156 124 1463.04785156 124 1475.04785156 124 c 132,-1,2
 1487.04785156 124 1487.04785156 124 1487.04785156 112 c 132,-1,3
 1487.04785156 100 1487.04785156 100 1475.04785156 100 c 132,-1,0
 1463.04785156 100 1463.04785156 100 1463.04785156 112 c 132,-1,1
EndSplineSet
Fore
SplineSet
220 12 m 4,0,1
 104 55 104 55 81 201 c 4,2,3
 62 327 62 327 85 453 c 4,4,5
 115 619 115 619 196 708 c 4,6,7
 262 781 262 781 347.5 811 c 4,8,9
 362 816 362 816 405 818 c 4,10,11
 496 822 496 822 486 781.5 c 4,12,13
 484 773 484 773 489 771 c 4,14,15
 517 763 517 763 527 752 c 4,16,17
 568 710 568 710 586 586 c 4,18,19
 595.098455475 520.796534289 595.098455475 520.796534289 593.23828125 446 c 4,20,21
 591 355 591 355 579 286 c 4,22,23
 565.517699115 207.802654867 565.517699115 207.802654867 513 119 c 4,24,25
 466 40 466 40 421 19 c 4,26,27
 377 -1 377 -1 312 -0.396484375 c 4,28,29
 252 0 252 0 220 12 c 4,0,1
418 25 m 4,30,31
 467 55 467 55 506 122 c 4,32,33
 555 207 555 207 572 288 c 4,34,35
 585.129882812 354.525390625 585.129882812 354.525390625 586.69921875 445 c 4,36,37
 588 520 588 520 578.5 583.5 c 4,38,39
 561.821289062 709.366210938 561.821289062 709.366210938 516 748 c 4,40,41
 499 762 499 762 485 762 c 4,42,43
 467 762 467 762 474 775 c 4,44,45
 498 816 498 816 391 811 c 4,46,47
 306 807 306 807 202 703 c 4,48,49
 126 627 126 627 92 451 c 4,50,51
 70 337 70 337 88 203 c 4,52,53
 106 65 106 65 225 18 c 4,54,55
 256 6 256 6 312 5.703125 c 4,56,57
 386 6 386 6 418 25 c 4,30,31
227 139 m 4,58,59
 106 4 106 4 321 6 c 5,60,-1
 321 0 l 5,61,62
 100 0 100 0 222 142 c 4,63,64
 328 266 328 266 436 146 c 4,65,66
 547 22 547 22 600 12 c 4,67,68
 705 -7 705 -7 767 100 c 4,69,70
 778 119 778 119 778.993164062 120 c 4,71,72
 781 123 781 123 787 124 c 4,73,74
 793 124 793 124 797 122.227539062 c 4,75,76
 800 120 800 120 801 116 c 132,-1,77
 802 112 802 112 801 108 c 4,78,79
 790 68 790 68 745 40 c 4,80,81
 668 -7 668 -7 599 4 c 4,82,83
 543 13 543 13 431 142 c 4,84,85
 332 256 332 256 227 139 c 4,58,59
EndSplineSet
EndChar

StartChar: R
Encoding: 82 82 83
Width: 792
GlyphClass: 2
Flags: W
LayerCount: 2
Fore
SplineSet
572.952148438 116 m 4,0,1
 573 197 573 197 593 251 c 4,2,3
 631 354 631 354 500 412 c 4,4,5
 363 472 363 472 276 380 c 5,6,-1
 277 386 l 5,7,8
 365 479 365 479 503 418 c 4,9,10
 639 358 639 358 600 249 c 4,11,12
 581 196 581 196 579.90625 139 c 4,13,14
 577 7 577 7 650 6 c 4,15,16
 675 6 675 6 703 41 c 4,17,18
 717 58 717 58 719 59.5 c 4,19,20
 722 61 722 61 728 61 c 4,21,22
 732 61 732 61 737 56 c 4,23,24
 739 54 739 54 739 50 c 4,25,26
 739 45 739 45 736.134765625 40 c 4,27,28
 733 35 733 35 722 28 c 4,29,30
 677 0 677 0 649.599609375 0 c 4,31,32
 572 0 572 0 572.952148438 116 c 4,0,1
101 54 m 4,33,34
 63 96 63 96 33 143 c 5,35,36
 36 147 36 147 48 156 c 5,37,38
 73 100 73 100 107 58 c 5,39,40
 153 8 153 8 220 8 c 4,41,42
 311 8 311 8 309.586914062 289 c 4,43,44
 309 456 309 456 249 603 c 4,45,46
 214 690 214 690 190 738 c 5,47,48
 158 719 158 719 129 699 c 260,49,50
 73 660 73 660 52 618 c 132,-1,51
 31 576 31 576 50 527 c 132,-1,52
 69 478 69 478 114 508 c 4,53,54
 125 515 125 515 132 506 c 4,55,56
 138 498 138 498 131 489 c 4,57,58
 120 475 120 475 96 475 c 4,59,60
 55 475 55 475 39 526 c 4,61,62
 24 574 24 574 45 619 c 4,63,64
 67 664 67 664 125 705 c 4,65,66
 197 756 197 756 252 776 c 4,67,68
 367 819 367 819 449 819.381835938 c 4,69,70
 573 820 573 820 620 723 c 4,71,72
 675 608 675 608 607 480 c 4,73,74
 573 415 573 415 530 391 c 4,75,76
 494 371 494 371 436 370 c 4,77,78
 368 369 368 369 276 380 c 261,79,-1
 277 386 l 5,80,81
 400 375 400 375 433 376 c 4,82,83
 492 377 492 377 525 396 c 4,84,85
 571 424 571 424 600 483 c 4,86,87
 664 613 664 613 614 718 c 4,88,89
 568 813 568 813 448 812.708984375 c 4,90,91
 361 812 361 812 253 769.073242188 c 4,92,93
 220 756 220 756 197 742 c 5,94,95
 219 700 219 700 258 605 c 4,96,97
 319 457 319 457 318.076171875 288 c 4,98,99
 318 -2 318 -2 218 0 c 4,100,101
 149 1 149 1 101 54 c 4,33,34
EndSplineSet
EndChar

StartChar: S
Encoding: 83 83 84
Width: 661
GlyphClass: 2
Flags: W
LayerCount: 2
Back
SplineSet
478.392578125 599 m 132,-1,0
 478.392578125 611 478.392578125 611 490.392578125 611 c 132,-1,1
 502.392578125 611 502.392578125 611 502.392578125 599 c 132,-1,2
 502.392578125 587 502.392578125 587 490.392578125 587 c 132,-1,3
 478.392578125 587 478.392578125 587 478.392578125 599 c 132,-1,0
EndSplineSet
Fore
SplineSet
255 438 m 0,0,1
 260 438 260 438 347 444 c 0,2,3
 461 452 461 452 528 378 c 0,4,5
 590 308 590 308 589.332440511 220 c 0,6,7
 589 177 589 177 574 129 c 0,8,9
 532 -3 532 -3 293 -1 c 0,10,11
 145 -0 145 -0 84 61.6737461079 c 0,12,13
 60 86 60 86 49 121 c 0,14,15
 43 142 43 142 42.8750139219 155 c 1,16,17
 52 156 52 156 59 155 c 1,18,19
 73 83 73 83 90 65.775390625 c 0,20,21
 146 9 146 9 293 5 c 0,22,23
 523 -1 523 -1 568 131 c 0,24,25
 581.267080745 169.695652174 581.267080745 169.695652174 582 221 c 0,26,27
 582 306 582 306 524 372 c 0,28,29
 461.330402834 442.104973101 461.330402834 442.104973101 348 437 c 0,30,31
 302 434 302 434 256 430 c 0,32,33
 188 424 188 424 122 486.5 c 0,34,35
 66 539 66 539 67 619.5 c 0,36,37
 69 755 69 755 192 804 c 0,38,39
 227 818 227 818 293 819 c 0,40,41
 439 821 439 821 534 738 c 0,42,43
 567 710 567 710 564 649 c 0,44,45
 561 598 561 598 524 588 c 0,46,47
 505 583 505 583 493.5 587 c 128,-1,48
 482 591 482 591 484 602 c 0,49,50
 485 607 485 607 488.5 609.5 c 128,-1,51
 492 612 492 612 498 611 c 0,52,53
 519 608 519 608 538 622 c 0,54,55
 555 635 555 635 557 650 c 0,56,57
 564 701 564 701 528 733 c 0,58,59
 443 809 443 809 294 812 c 0,60,61
 240 813 240 813 196 797 c 0,62,63
 74 752 74 752 74.5 616 c 0,64,65
 75 541 75 541 127 491 c 0,66,67
 188 433 188 433 255 438 c 0,0,1
EndSplineSet
EndChar

StartChar: T
Encoding: 84 84 85
Width: 600
GlyphClass: 2
Flags: W
LayerCount: 2
Fore
SplineSet
665 798 m 1,0,1
 393 791.481445312 l 0,2,3
 386 791 386 791 341 788 c 1,4,-1
 343 739 l 0,5,6
 350 594 350 594 327.147460938 406 c 0,7,8
 306 231 306 231 256 84 c 0,9,10
 228 2 228 2 172 1 c 0,11,12
 110.467773438 -0.0986328125 110.467773438 -0.0986328125 76 53 c 0,13,14
 73 57 73 57 73.767578125 63 c 0,15,16
 74 68 74 68 77 70 c 0,17,18
 82 74 82 74 87.5 73.5 c 128,-1,19
 93 73 93 73 95.56640625 70 c 0,20,21
 97 69 97 69 103.5 50 c 0,22,23
 110 34 110 34 123 23 c 0,24,25
 143 6 143 6 172 7 c 0,26,27
 222 9 222 9 250 89 c 0,28,29
 297 223 297 223 319.383789062 407 c 0,30,31
 337 557 337 557 337 735 c 0,32,33
 336 761 336 761 335 788 c 1,34,-1
 154 776 l 24,35,36
 68 764 68 764 41 738 c 0,37,38
 8 707 8 707 26 667 c 0,39,40
 30 656 30 656 54.25 638 c 0,41,42
 60 634 60 634 70 626 c 1,43,44
 59 617 59 617 57 613.372070312 c 1,45,46
 50 621 50 621 43 629 c 0,47,48
 27 647 27 647 19.7236328125 664 c 0,49,50
 1 707 1 707 36 742 c 0,51,52
 70 776 70 776 154 782 c 26,53,-1
 334 794 l 1,54,-1
 333 815 l 0,55,56
 332 824 332 824 333.5 825.5 c 0,57,58
 334 826 334 826 338 826 c 1,59,60
 339 817 339 817 339 814 c 0,61,-1
 340 795 l 1,62,63
 374 797 374 797 393 798.248046875 c 0,64,-1
 663 806 l 1,65,66
 664 802 664 802 665 798 c 1,0,1
EndSplineSet
EndChar

StartChar: V
Encoding: 86 86 87
Width: 725
GlyphClass: 2
Flags: W
LayerCount: 2
Fore
SplineSet
616.49609375 672 m 0,0,1
 572 383 572 383 557.205078125 319 c 0,2,3
 519 152 519 152 439 68.234375 c 0,4,5
 374 0 374 0 333 0 c 0,6,7
 279 0 279 0 234.33984375 120 c 0,8,9
 172 287 172 287 171.591796875 529 c 0,10,11
 172 606 172 606 174.083984375 708 c 0,12,13
 175 753 175 753 177 813 c 1,14,-1
 155 792 l 2,15,16
 135.09765625 773.002929688 135.09765625 773.002929688 114 772.47265625 c 0,17,18
 100 772 100 772 85 782 c 0,19,20
 73 789 73 789 66 789.693359375 c 0,21,22
 54 790 54 790 47 771 c 1,23,-1
 42 774 l 0,24,25
 43 778 43 778 49.5 788 c 0,26,27
 54 795 54 795 65 795.25 c 0,28,29
 75 796 75 796 89 786 c 0,30,31
 99 779 99 779 113 778.413085938 c 0,32,33
 132 778 132 778 152 797 c 0,34,35
 155 801 155 801 173.75 818.25 c 0,36,37
 175 819 175 819 179 819 c 0,38,-1
 183 819 l 0,39,40
 183 813 183 813 183 807 c 0,41,42
 183 769 183 769 180.579101562 708 c 0,43,44
 177 607 177 607 176.319335938 529 c 0,45,46
 175 296 175 296 239.803710938 122 c 0,47,48
 283 5 283 5 333 6 c 0,49,50
 371 7 371 7 435 72.2763671875 c 0,51,52
 509 149 509 149 550.2890625 319 c 1,53,54
 567 395 567 395 607 673 c 1,55,-1
 619 794 l 0,56,57
 620 806 620 806 621 819 c 1,58,59
 632 819 632 819 642 819 c 1,60,61
 623 715 623 715 616.49609375 672 c 0,0,1
EndSplineSet
EndChar

StartChar: W
Encoding: 87 87 88
Width: 1019
GlyphClass: 2
Flags: W
LayerCount: 2
Fore
SplineSet
536.591796875 599 m 9,0,1
 541.319335938 599 l 17,2,3
 537 451 537 451 537.633789062 417 c 0,4,5
 542 192 542 192 569.803710938 122 c 0,6,7
 616 5 616 5 663 6 c 0,8,9
 706.323242188 7.1396484375 706.323242188 7.1396484375 765 72.2763671875 c 0,10,11
 861 175 861 175 880.2890625 319 c 1,12,13
 907 515 907 515 918 673 c 0,14,15
 924.756835938 770.05859375 924.756835938 770.05859375 922 819 c 0,16,17
 921.515625 829.989257812 921.515625 829.989257812 943 819 c 1,18,19
 930 750 930 750 924.49609375 672 c 0,20,21
 913 515 913 515 887.205078125 319 c 0,22,23
 868 173 868 173 769 68.234375 c 0,24,25
 704 0 704 0 663 0 c 0,26,27
 612 0 612 0 564.33984375 120 c 0,28,29
 534 194 534 194 533.497070312 416 c 0,30,31
 533 447 533 447 536.591796875 599 c 9,0,1
539.49609375 472 m 0,32,33
 521 172 521 172 419 68.234375 c 0,34,35
 352 0 352 0 313 0 c 0,36,37
 259 0 259 0 214.33984375 120 c 0,38,39
 145.8203125 303.553710938 145.8203125 303.553710938 154.083984375 708 c 0,40,41
 155 753 155 753 157 813 c 1,42,-1
 135 792 l 2,43,44
 115.09765625 773.002929688 115.09765625 773.002929688 94 772.47265625 c 0,45,46
 80 772 80 772 65 782 c 0,47,48
 53 789 53 789 46 789.693359375 c 0,49,50
 34 790 34 790 27 771 c 1,51,-1
 22 774 l 0,52,53
 23 778 23 778 29.5 788 c 0,54,55
 34 795 34 795 45 795.25 c 0,56,57
 55 796 55 796 69 786 c 0,58,59
 79 779 79 779 93 778.413085938 c 0,60,61
 112 778 112 778 132 797 c 0,62,63
 135 801 135 801 153.75 818.25 c 0,64,65
 155 819 155 819 159 819 c 0,66,-1
 163 819 l 0,67,68
 163 813 163 813 163 807 c 0,69,70
 163 769 163 769 160.579101562 708 c 0,71,72
 146.762695312 318.1171875 146.762695312 318.1171875 219.803710938 122 c 0,73,74
 263 5 263 5 313 6 c 0,75,76
 353 7 353 7 415 72.2763671875 c 0,77,78
 514 174 514 174 534 473 c 1,79,80
 533 586 533 586 532 699 c 1,81,82
 543 699 543 699 553 699 c 1,83,84
 546 586 546 586 539.49609375 472 c 0,32,33
EndSplineSet
EndChar

StartChar: Z
Encoding: 90 90 91
Width: 755
GlyphClass: 2
Flags: W
LayerCount: 2
Fore
SplineSet
478 485 m 8,0,1
 368 301 l 0,2,-1
 306 191 l 1,3,-1
 326 152 l 0,4,5
 400 7 400 7 480 7 c 0,6,7
 588 6 588 6 641 94 c 0,8,9
 661 128 661 128 666.938476562 163 c 0,10,11
 671 186 671 186 666 214 c 0,12,13
 664 227 664 227 669 231 c 0,14,15
 672 233 672 233 679 233.0703125 c 0,16,17
 689 233 689 233 689 222 c 0,18,19
 689 204 689 204 677.33984375 163 c 0,20,21
 666 121 666 121 647.40625 90 c 0,22,23
 594 0 594 0 479 0 c 0,24,25
 393 0 393 0 320.06640625 148 c 0,26,-1
 303 185 l 1,27,28
 285 150 285 150 232.657226562 73 c 0,29,30
 183 0 183 0 118 0.1484375 c 0,31,32
 100 0 100 0 86.2255859375 6 c 0,33,34
 47 22 47 22 47.025390625 84 c 0,35,36
 47 126 47 126 71 189 c 0,37,38
 113 298 113 298 190 298.03515625 c 0,39,40
 241 298 241 298 301 198 c 1,41,-1
 362.361328125 304 l 0,42,-1
 472 490 l 0,43,44
 567 653 567 653 602 754 c 0,45,46
 613 786 613 786 610 795 c 0,47,48
 599 828 599 828 532 789 c 0,49,50
 494 767 494 767 443 767.228515625 c 0,51,52
 389 767 389 767 333 792 c 0,53,54
 286 813 286 813 249 811.279296875 c 0,55,56
 194 809 194 809 161 783.575195312 c 0,57,58
 114 749 114 749 88 720 c 0,59,60
 78 709 78 709 70 725 c 0,61,-1
 158 791 l 0,62,63
 201 819 201 819 250 818.669921875 c 0,64,65
 291 819 291 819 337 799 c 0,66,67
 396 774 396 774 444 773.962890625 c 0,68,69
 490 774 490 774 527 795 c 0,70,71
 599 837 599 837 616 800 c 0,72,73
 621 789 621 789 611 754 c 1,74,75
 569 643 569 643 478 485 c 8,0,1
119 6.23828125 m 0,76,77
 180 6 180 6 228.223632812 79 c 0,78,79
 282 160 282 160 298 191 c 1,80,81
 236 291 236 291 189 291.122070312 c 0,82,83
 115 291 115 291 78 186 c 0,84,85
 56 122 56 122 55.734375 81 c 0,86,87
 56 29 56 29 87.412109375 13 c 0,88,89
 101 6 101 6 119 6.23828125 c 0,76,77
EndSplineSet
EndChar

StartChar: underscore
Encoding: 95 95 96
Width: 363
GlyphClass: 2
Flags: W
LayerCount: 2
Fore
SplineSet
295 13 m 5,0,1
 293 7 293 7 293 1 c 5,2,-1
 51 0 l 5,3,4
 52.5 12 l 5,5,6
 141 7 141 7 295 13 c 5,0,1
EndSplineSet
EndChar

StartChar: d
Encoding: 100 100 101
Width: 493
GlyphClass: 2
Flags: W
LayerCount: 2
Fore
SplineSet
323 111 m 0,0,1
 324 229 324 229 340 330 c 2,2,-1
 350.760870262 397.462378948 l 1,3,4
 334 430 334 430 301 457.143554688 c 0,5,6
 267 485 267 485 219 486 c 0,7,8
 159 486 159 486 120.166992188 427 c 0,9,10
 91.3749216653 383.255457496 91.3749216653 383.255457496 63 302 c 0,11,12
 29 204 29 204 48 122 c 0,13,14
 63 56 63 56 111 24 c 0,15,16
 143 2 143 2 200 6 c 0,17,18
 274 11 274 11 301.5 52 c 0,19,20
 313 69 313 69 323.342425273 90.833611485 c 1,21,22
 323 100 323 100 323 111 c 0,0,1
352.060521485 405.610192387 m 1,23,24
 418 819 l 1,25,-1
 425 819 l 1,26,-1
 346 330 l 2,27,28
 329 224.772151899 329 224.772151899 329 123 c 0,29,30
 329 5 329 5 376 5 c 0,31,32
 404 5 404 5 433 41 c 0,33,34
 447 58 447 58 449 59.5 c 0,35,36
 452 61 452 61 458 61 c 0,37,38
 462 61 462 61 467 56 c 0,39,40
 469 54 469 54 469 50 c 0,41,42
 469 45 469 45 466.134765625 40 c 0,43,44
 463 35 463 35 452 28 c 0,45,46
 407 0 407 0 379.599609375 0 c 0,47,48
 331 0 331 0 324.19616717 78.1439918644 c 1,49,50
 316 61 316 61 306.463867188 48 c 0,51,52
 276 5 276 5 200.5 0.5 c 0,53,54
 142 -3 142 -3 107 19 c 0,55,56
 59 50 59 50 42 120 c 0,57,58
 22 203 22 203 58 305 c 0,59,60
 87 387 87 387 116 431 c 0,61,62
 157.475666075 493.928596803 157.475666075 493.928596803 218 491 c 0,63,64
 272 489 272 489 304 462 c 0,65,66
 335 436 335 436 352.060521485 405.610192387 c 1,23,24
EndSplineSet
EndChar

StartChar: f
Encoding: 102 102 103
Width: 310
GlyphClass: 2
Flags: W
LayerCount: 2
Back
SplineSet
273.5625 845 m 128,-1,0
 273.5625 857 273.5625 857 285.5625 857 c 128,-1,1
 297.5625 857 297.5625 857 297.5625 845 c 128,-1,2
 297.5625 833 297.5625 833 285.5625 833 c 128,-1,3
 273.5625 833 273.5625 833 273.5625 845 c 128,-1,0
EndSplineSet
Fore
SplineSet
-55 -149 m 1,0,1
 -60 -146 -60 -146 -57 -140 c 0,2,3
 -56 -138 -56 -138 -54 -137 c 1,4,5
 2 -179 2 -179 37 -190 c 0,6,7
 97.0230562106 -209.87569023 97.0230562106 -209.87569023 131 -186 c 0,8,9
 176 -155 176 -155 173 -28 c 1,10,11
 173 74 173 74 155 213 c 0,12,-1
 121 478 l 1,13,14
 59 487 59 487 36 472 c 0,15,16
 28 467 28 467 24 453 c 0,17,-1
 11 459 l 1,18,19
 13 472 13 472 30 481 c 0,20,21
 51 493 51 493 121 484 c 1,22,23
 116 523 116 523 109 611 c 0,24,25
 107 638 107 638 94 764 c 0,26,27
 86 846 86 846 116 876 c 0,28,29
 144 904 144 904 206 886 c 0,30,31
 231 879 231 879 246 870 c 0,32,33
 278 850 278 850 264 836.5 c 128,-1,34
 250 823 250 823 231 850 c 0,35,36
 216 872 216 872 202 877 c 0,37,38
 145 897 145 897 120 871 c 128,-1,39
 95 845 95 845 102 767 c 0,40,41
 116 621 116 621 117 616 c 0,42,43
 118 584 118 584 128 483 c 1,44,45
 201 481 201 481 273 493 c 1,46,47
 273 490 273 490 273 488 c 0,48,-1
 239 483 l 0,49,50
 202 476 202 476 129 477 c 1,51,52
 143.072122053 388.123439667 143.072122053 388.123439667 163 215 c 0,53,54
 180 72 180 72 179 -28 c 24,55,56
 179.39446964 -161.812542859 179.39446964 -161.812542859 136 -192 c 0,57,58
 98 -219 98 -219 35 -197 c 0,59,60
 -2 -184 -2 -184 -55 -149 c 1,0,1
EndSplineSet
EndChar

StartChar: h
Encoding: 104 104 105
Width: 537
GlyphClass: 2
Flags: W
LayerCount: 2
Fore
SplineSet
153 819.879882812 m 1,0,1
 142 728 142 728 104 430 c 1,2,3
 117 491 117 491 243 491.76171875 c 0,4,5
 311 492 311 492 348 450 c 0,6,7
 381 413 381 413 374 296 c 0,8,9
 368 197 368 197 346.37890625 102 c 0,10,11
 341 79 341 79 341.6640625 58 c 0,12,13
 342 44 342 44 347.401367188 29 c 0,14,15
 356 5 356 5 387.5 6 c 0,16,17
 416 7 416 7 444 41 c 0,18,19
 458 58 458 58 460 59.5 c 0,20,21
 463 61 463 61 469 61 c 0,22,23
 473 61 473 61 478 56 c 0,24,25
 480 54 480 54 480 50 c 0,26,27
 480 45 480 45 477.134765625 40 c 0,28,29
 474 35 474 35 463 28 c 0,30,31
 418 0 418 0 390.599609375 0 c 0,32,33
 352 0 352 0 342.662109375 27 c 0,34,35
 337 43 337 43 336.002929688 63.994140625 c 0,36,-1
 336 64 l 0,37,-1
 336.000976562 64.44140625 l 0,38,-1
 336 65 l 2,39,-1
 336.004882812 65.017578125 l 2,40,41
 336 80 336 80 340.572265625 103 c 0,42,43
 363 217 363 217 368 295 c 0,44,45
 375 408 375 408 344 445 c 0,46,47
 309 485 309 485 242 486.094726562 c 0,48,49
 118 489 118 489 103 412 c 0,50,51
 101 402 101 402 99.2392578125 391 c 0,52,53
 82 282 82 282 81.7138671875 280 c 0,54,55
 57 93 57 93 57.595703125 2 c 0,56,57
 57 -2 57 -2 44 -0.646484375 c 0,58,59
 38.1859702974 -0.0200378152451 38.1859702974 -0.0200378152451 38.5849609375 3 c 2,60,-1
 75.1806640625 280 l 1,61,-1
 95 413 l 1,62,-1
 146 819.879882812 l 0,63,64
 151 820 151 820 153 819.879882812 c 1,0,1
EndSplineSet
EndChar

StartChar: i
Encoding: 105 105 106
Width: 273
GlyphClass: 2
Flags: W
LayerCount: 2
Fore
SplineSet
87.240234375 414 m 24,0,1
 90 438 90 438 93 462 c 0,2,-1
 96 490 l 1,3,4
 98 491 98 491 107 490.879882812 c 0,5,6
 112 491 112 491 112 490 c 0,7,-1
 107 458 l 0,8,9
 107 456 107 456 99.646484375 415 c 0,10,11
 83 309 83 309 76.478515625 227 c 0,12,13
 71 162 71 162 71 123 c 8,14,15
 71 5 71 5 118 5 c 0,16,17
 146 5 146 5 175 41 c 0,18,19
 189 58 189 58 191 59.5 c 0,20,21
 194 61 194 61 200 61 c 0,22,23
 204 61 204 61 209 56 c 0,24,25
 211 54 211 54 211 50 c 0,26,27
 211 45 211 45 208.134765625 40 c 0,28,29
 205 35 205 35 194 28 c 0,30,31
 149 0 149 0 121.599609375 0 c 0,32,33
 64 0 64 0 65 111 c 0,34,35
 65 174 65 174 69.4642014793 227 c 0,36,37
 80 357 80 357 87.240234375 414 c 24,0,1
68.5712890625 83 m 1,38,39
 68 88 68 88 68 90 c 0,40,-1
 66.78515625 94 l 1025
EndSplineSet
Refer: 287 -1 S 1 0 0 1 60 578 2
EndChar

StartChar: j
Encoding: 106 106 107
Width: 306
GlyphClass: 2
Flags: W
LayerCount: 2
Fore
SplineSet
125 -62 m 0,0,1
 98.4462890625 108.217773438 98.4462890625 108.217773438 111.676757812 263 c 0,2,3
 112 270 112 270 138 490.879882812 c 1,4,-1
 153 490.879882812 l 1,5,6
 126 324 126 324 119.806640625 262 c 0,7,8
 104 104 104 104 131 -60 c 0,9,10
 173 -315 173 -315 78 -367 c 0,11,12
 19 -399 19 -399 -36 -390 c 0,13,14
 -117 -377 -117 -377 -140 -310 c 1,15,-1
 -151 -262 l 2,16,17
 -157.338867188 -234.338867188 -157.338867188 -234.338867188 -148 -225 c 0,18,19
 -142 -219 -142 -219 -132.5 -224.5 c 0,20,21
 -128 -227 -128 -227 -128.123046875 -235 c 0,22,23
 -128 -238 -128 -238 -132 -255 c 0,24,25
 -139 -286 -139 -286 -133 -307 c 0,26,27
 -114 -370 -114 -370 -35 -385 c 0,28,29
 12.505859375 -394.500976562 12.505859375 -394.500976562 75 -361.5 c 0,30,31
 163 -312 163 -312 125 -62 c 0,0,1
EndSplineSet
Refer: 287 -1 S 1 0 0 1 102 578 2
EndChar

StartChar: k
Encoding: 107 107 108
Width: 551
GlyphClass: 2
Flags: W
LayerCount: 2
Fore
SplineSet
158.932617188 317 m 1,0,1
 181 299 181 299 230 296.377192982 c 0,2,3
 347 291 347 291 345 181 c 4,4,-1
 342 123 l 24,5,6
 339 7 339 7 392 7 c 0,7,8
 419 7 419 7 446 41 c 0,9,10
 460 58 460 58 462 59.5 c 0,11,12
 465 61 465 61 471 61 c 0,13,14
 475 61 475 61 480 56 c 0,15,16
 482 54 482 54 482 50 c 0,17,18
 482 45 482 45 479.134765625 40 c 0,19,20
 476 35 476 35 465 28 c 0,21,22
 420 0 420 0 392.599609375 0 c 0,23,24
 334 0 334 0 336 121 c 0,25,-1
 339 181 l 24,26,27
 341 286 341 286 228 292.066646008 c 4,28,29
 175 294 175 294 154.231445312 312 c 1,30,31
 127 282 127 282 100 189 c 1,32,33
 94 171 94 171 84 72 c 2,34,-1
 77 0 l 1,35,-1
 60 0 l 1,36,37
 79 116 79 116 87.044921875 169 c 0,38,39
 95 219 95 219 95.2711321948 227 c 0,40,41
 95 228 95 228 130.96875 584 c 0,42,43
 143 699 143 699 146 755 c 2,44,-1
 146.93359375 773 l 1,45,-1
 153 773 l 1,46,-1
 151.544168056 755 l 2,47,48
 140 607 140 607 137.854492188 584 c 0,49,50
 128 479 128 479 101 220 c 1,51,52
 123 287 123 287 154 322 c 0,53,54
 225 402 225 402 363 460.54151913 c 0,55,56
 391 472 391 472 427 486 c 1,57,-1
 429 480 l 1,58,59
 393 466 393 466 364 454.012787156 c 0,60,61
 226 396 226 396 158.932617188 317 c 1,0,1
EndSplineSet
EndChar

StartChar: l
Encoding: 108 108 109
Width: 286
GlyphClass: 2
Flags: W
LayerCount: 2
Fore
SplineSet
117 738 m 4,0,1
 120 762 120 762 122.759765625 786 c 4,2,-1
 125.759765625 817 l 5,3,4
 127 818 127 818 136.759765625 817.879882812 c 4,5,6
 141 818 141 818 141.759765625 817 c 4,7,-1
 136.759765625 782 l 4,8,9
 136 780 136 780 129.40625 739 c 4,10,11
 75 371 75 371 56.478515625 227 c 4,12,13
 50 177 50 177 51 123 c 12,14,15
 52.373046875 7 52.373046875 7 101 7 c 4,16,17
 128 7 128 7 155 41 c 4,18,19
 169 58 169 58 171 59.5 c 4,20,21
 174 61 174 61 180 61 c 4,22,23
 184 61 184 61 189 56 c 4,24,25
 191 54 191 54 191 50 c 4,26,27
 191 45 191 45 188.134765625 40 c 4,28,29
 185 35 185 35 174 28 c 4,30,31
 129 0 129 0 101.599609375 0 c 4,32,33
 46 0 46 0 44 121 c 4,34,35
 43 178 43 178 49.4638671875 227 c 4,36,37
 68 372 68 372 117 738 c 4,0,1
EndSplineSet
EndChar

StartChar: q
Encoding: 113 113 114
Width: 461
GlyphClass: 2
Flags: W
LayerCount: 2
Fore
SplineSet
285 -378 m 9,0,1
 265 -378 l 1,2,3
 285 -236 285 -236 304.97265625 -93 c 0,4,5
 348.19362385 216.452998611 348.19362385 216.452998611 381.548828125 490.879882812 c 1,6,-1
 388.548828125 490.879882812 l 1,7,8
 353 221 353 221 312.325195312 -94 c 0,9,10
 281.138352881 -335.521881693 281.138352881 -335.521881693 285 -378 c 9,0,1
333.549804688 90 m 4,11,12
 333 88 333 88 333.876953125 83 c 5,13,14
 324 63 324 63 312.546875 48 c 4,15,16
 281 5 281 5 204.924804688 0.5 c 4,17,18
 146 -3 146 -3 112.0703125 19 c 4,19,20
 65 50 65 50 50.59765625 120 c 4,21,22
 33 203 33 203 73.0576171875 305 c 4,23,24
 105 387 105 387 135.458007812 431 c 4,25,26
 179 495 179 495 239.587890625 492 c 4,27,28
 293 490 293 490 325.041015625 462 c 4,29,30
 364 428 364 428 375.486328125 402 c 5,31,32
 373 396 373 396 372.270507812 397 c 4,33,34
 340 441 340 441 324 455 c 4,35,36
 289 485 289 485 240.413085938 486 c 4,37,38
 184 487 184 487 140.485351562 427 c 4,39,40
 114 389 114 389 77.953125 302 c 4,41,42
 40 208 40 208 56.6669921875 122 c 4,43,44
 69 56 69 56 116.245117188 24 c 4,45,46
 147 2 147 2 204.616210938 6 c 4,47,48
 279 11 279 11 307.72265625 52 c 4,49,50
 321 70 321 70 332.474609375 94 c 5,51,-1
 333.549804688 90 l 4,11,12
EndSplineSet
EndChar

StartChar: r
Encoding: 114 114 115
Width: 422
GlyphClass: 2
Flags: W
LayerCount: 2
Fore
SplineSet
323 478 m 5,0,1
 318 475 318 475 314 472.950195312 c 4,2,3
 287 458 287 458 255 459 c 4,4,5
 226 460 226 460 194 476 c 4,6,7
 180 483 180 483 141 484 c 4,8,9
 117.295898438 484.764648438 117.295898438 484.764648438 94 466.91796875 c 4,10,11
 68 447 68 447 32 393.5 c 5,12,13
 29 396 29 396 26.7080078125 399 c 5,14,15
 62 450 62 450 89.5 474.5 c 4,16,17
 109 492 109 492 144 491.956054688 c 4,18,19
 181 492 181 492 197 483.5 c 4,20,21
 227 469 227 469 250 467 c 4,22,23
 286 464 286 464 312.5 481.5 c 4,24,25
 326 490 326 490 326 490.879882812 c 4,26,27
 328 491 328 491 338 490.879882812 c 5,28,29
 279 392 279 392 246.991210938 295 c 4,30,31
 215 200 215 200 210.948242188 116 c 12,32,33
 208 61 208 61 227.734375 32 c 4,34,35
 246 6 246 6 282 6 c 4,36,37
 307 6 307 6 335 41 c 4,38,39
 349 58 349 58 351 59.5 c 4,40,41
 354 61 354 61 360 61 c 4,42,43
 364 61 364 61 369 56 c 4,44,45
 371 54 371 54 371 50 c 4,46,47
 371 45 371 45 368.134765625 40 c 4,48,49
 365 35 365 35 354 28 c 4,50,51
 309 0 309 0 281.599609375 0 c 4,52,53
 241 0 241 0 221.811523438 28 c 4,54,55
 201 58 201 58 204.952148438 116 c 4,56,57
 211 207 211 207 240.000976562 297 c 4,58,59
 270 388 270 388 323 478 c 5,0,1
EndSplineSet
EndChar

StartChar: s
Encoding: 115 115 116
Width: 394
GlyphClass: 2
Flags: W
LayerCount: 2
Back
SplineSet
300.083984375 446 m 132,-1,1
 300.083984375 458 300.083984375 458 312.083984375 458 c 132,-1,2
 324.083984375 458 324.083984375 458 324.083984375 446 c 132,-1,3
 324.083984375 434 324.083984375 434 312.083984375 434 c 132,-1,0
 300.083984375 434 300.083984375 434 300.083984375 446 c 132,-1,1
-458.916015625 364 m 1048
EndSplineSet
Fore
SplineSet
77 387 m 0,1,2
 58 262 58 262 188 264 c 0,3,4
 354 267 354 267 340.869140625 135 c 0,5,6
 327 -2 327 -2 176 -1.8544921875 c 4,7,8
 103 -2 103 -2 32 59 c 1,9,-1
 43 73 l 1,10,11
 107 4 107 4 176 4 c 4,12,13
 321 4 321 4 335.046875 134 c 0,14,15
 349 262 349 262 188 258 c 0,16,17
 48 254 48 254 71 388 c 0,18,19
 88 488 88 488 207 490.879882812 c 0,20,21
 246 492 246 492 297 470.019900018 c 0,22,23
 322 459 322 459 326 455 c 16,24,25
 329 452 329 452 329 445 c 0,26,27
 329 440 329 440 327 438 c 0,28,29
 324 435 324 435 319 434 c 128,-1,30
 314 433 314 433 311 435 c 8,31,32
 298 445 298 445 286 452.983006081 c 0,33,34
 240 483 240 483 207 484 c 0,35,36
 92 486 92 486 77 387 c 0,1,2
EndSplineSet
EndChar

StartChar: t
Encoding: 116 116 117
Width: 338
GlyphClass: 2
Flags: W
LayerCount: 2
Fore
SplineSet
167 738 m 4,0,1
 170 762 170 762 172.759765625 786 c 4,2,-1
 175.759765625 817 l 5,3,4
 177 818 177 818 186.759765625 817.879882812 c 4,5,6
 191 818 191 818 191.759765625 817 c 4,7,-1
 186.759765625 782 l 4,8,9
 186 780 186 780 179.40625 739 c 4,10,11
 125 371 125 371 106.478515625 227 c 4,12,13
 100 177 100 177 101 123 c 12,14,15
 102.373046875 7 102.373046875 7 151 7 c 4,16,17
 178 7 178 7 205 41 c 4,18,19
 219 58 219 58 221 59.5 c 4,20,21
 224 61 224 61 230 61 c 4,22,23
 234 61 234 61 239 56 c 4,24,25
 241 54 241 54 241 50 c 4,26,27
 241 45 241 45 238.134765625 40 c 4,28,29
 235 35 235 35 224 28 c 4,30,31
 179 0 179 0 151.599609375 0 c 4,32,33
 96 0 96 0 94 121 c 4,34,35
 93 178 93 178 99.4638671875 227 c 4,36,37
 118 372 118 372 167 738 c 4,0,1
149 477 m 5,38,39
 78 486 78 486 56 472 c 4,40,41
 48 467 48 467 44 453 c 4,42,-1
 31 459 l 5,43,44
 33 472 33 472 50 481 c 4,45,46
 70 492 70 492 148 483 c 5,47,48
 221 481 221 481 293 493 c 5,49,50
 293 490 293 490 293 488 c 4,51,-1
 259 483 l 4,52,53
 222 476 222 476 149 477 c 5,38,39
EndSplineSet
EndChar

StartChar: v
Encoding: 118 118 119
Width: 454
GlyphClass: 2
Flags: W
LayerCount: 2
Fore
SplineSet
371 344 m 4,0,1
 369 207 369 207 252.492076871 65 c 0,2,3
 213.950165001 16.7157384383 213.950165001 16.7157384383 194 3 c 0,4,5
 190 0 190 0 180 -0.2578125 c 0,6,7
 171 -0 171 -0 165 4 c 0,8,9
 56 71 56 71 45.9052734375 255 c 0,10,11
 44 294 44 294 55 387 c 0,12,-1
 69 481 l 2,13,14
 70.4893617021 491 70.4893617021 491 70.58984375 491 c 1,15,-1
 77 490.879882812 l 1,16,17
 76 484 76 484 75 478 c 2,18,-1
 61 384 l 24,19,20
 51 301 51 301 53.169921875 255 c 0,21,22
 62.1840062267 73.9747330187 62.1840062267 73.9747330187 168 9 c 0,23,24
 173 6 173 6 180 5.740234375 c 0,25,26
 188 6 188 6 191 8 c 0,27,28
 206 18 206 18 249.171006315 70 c 0,29,30
 361.027021819 209.72958912 361.027021819 209.72958912 366 344 c 0,31,32
 369 431 369 431 362.790039062 491 c 1,33,34
 371 491 371 491 379 491 c 1,35,36
 381 489 381 489 379 469 c 0,37,-1
 371 344 l 4,0,1
EndSplineSet
EndChar

StartChar: w
Encoding: 119 119 120
Width: 696
GlyphClass: 2
Flags: W
LayerCount: 2
Fore
SplineSet
329.905273438 318 m 9,0,1
 336.169921875 318 l 17,2,3
 338 78 338 78 441 9 c 0,4,5
 446 6 446 6 453 5.740234375 c 0,6,7
 469.259765625 6.2685546875 469.259765625 6.2685546875 522.170898438 70 c 0,8,9
 597 162 597 162 609 344 c 0,10,11
 613 419 613 419 605.790039062 491 c 1,12,13
 614 491 614 491 622 491 c 1,14,15
 624 489 624 489 622 469 c 0,16,-1
 614 344 l 18,17,18
 602.243164062 160.301757812 602.243164062 160.301757812 525.4921875 65 c 0,19,20
 473.5859375 0.2724609375 473.5859375 0.2724609375 453 -0.2578125 c 0,21,22
 444 0 444 0 438 4 c 0,23,24
 332.765625 73.5615234375 332.765625 73.5615234375 329.905273438 318 c 9,0,1
336 309 m 18,25,26
 319 143 319 143 245.4921875 65 c 0,27,28
 184 0 184 0 173 -0.2578125 c 0,29,30
 164 0 164 0 158 4 c 0,31,32
 47.8955078125 76.78125 47.8955078125 76.78125 38.9052734375 255 c 0,33,34
 37 294 37 294 48 387 c 0,35,-1
 62 481 l 2,36,37
 63.4892578125 491 63.4892578125 491 63.58984375 491 c 1,38,-1
 70 490.879882812 l 1,39,40
 69 484 69 484 68 478 c 2,41,-1
 54 384 l 24,42,43
 44 301 44 301 46.169921875 255 c 0,44,45
 55.18359375 73.974609375 55.18359375 73.974609375 161 9 c 0,46,47
 166 6 166 6 173 5.740234375 c 0,48,49
 186 6 186 6 242.170898438 70 c 0,50,51
 314 150 314 150 329 309 c 0,52,53
 329 317 329 317 328.154296875 324 c 0,54,55
 328 388 328 388 338 456 c 1,56,57
 343 456 343 456 349 456 c 1,58,59
 351 454 351 454 349 434 c 0,60,-1
 336 309 l 18,25,26
EndSplineSet
EndChar

StartChar: z
Encoding: 122 122 123
Width: 441
GlyphClass: 2
Flags: W
LayerCount: 2
Back
SplineSet
356.459960938 95 m 132,-1,0
 356.459960938 107 356.459960938 107 368.459960938 107 c 132,-1,1
 380.459960938 107 380.459960938 107 380.459960938 95 c 132,-1,2
 380.459960938 83 380.459960938 83 368.459960938 83 c 132,-1,3
 356.459960938 83 356.459960938 83 356.459960938 95 c 132,-1,0
EndSplineSet
Fore
SplineSet
90 141 m 0,0,1
 110 164 110 164 207 239 c 0,2,3
 267 286 267 286 313 355 c 0,4,5
 349 408 349 408 351.719505033 462 c 0,6,7
 352 472 352 472 344 476.678881838 c 0,8,9
 330 484 330 484 314 483.755436334 c 0,10,11
 295 484 295 484 273 473 c 0,12,13
 247 460 247 460 224 459.313879777 c 0,14,15
 203 459 203 459 186 469 c 0,16,17
 159 484 159 484 132 483.662418602 c 0,18,19
 98 483 98 483 55 442 c 0,20,-1
 46 433 l 0,21,22
 44 434 44 434 40 436 c 0,23,24
 39 436 39 436 48 445 c 0,25,26
 93 490 93 490 132 490.668313477 c 0,27,28
 161 491 161 491 190 475 c 0,29,30
 206 466 206 466 224 466.405314462 c 0,31,32
 246 466 246 466 270 479 c 0,33,34
 294 491 294 491 315 491.290239977 c 0,35,36
 333 491 333 491 348 482.979657029 c 0,37,38
 360 477 360 477 358.888299527 462 c 0,39,40
 355 404 355 404 318 351 c 0,41,42
 267 278 267 278 211 233 c 0,43,44
 106 149 106 149 95 136 c 0,45,46
 72 109 72 109 61 84 c 0,47,48
 44 48 44 48 48 20 c 1,49,50
 80 -4 80 -4 127 19 c 0,51,52
 171.594363521 40.3277390754 171.594363521 40.3277390754 214 21 c 0,53,54
 323 -26 323 -26 361 91 c 4,55,56
 363.697368421 98.6973684211 363.697368421 98.6973684211 370 105 c 0,57,58
 372 107 372 107 380 106.8515625 c 0,59,60
 387 106 387 106 389 101 c 4,61,62
 391.69649662 94.2587584511 391.69649662 94.2587584511 388.233398438 88 c 0,63,64
 384 82 384 82 380 75 c 0,65,66
 314 -33 314 -33 210 15 c 4,67,68
 172 33 172 33 129 12 c 0,69,70
 78 -13 78 -13 41 16 c 1,71,72
 37 48 37 48 54 86 c 0,73,74
 67 114 67 114 90 141 c 0,0,1
EndSplineSet
EndChar

StartChar: uni00AD
Encoding: 162 173 163
Width: 363
GlyphClass: 2
Flags: W
LayerCount: 2
Fore
SplineSet
295 375 m 5,0,1
 293 369 293 369 293 363 c 5,2,-1
 51 356 l 5,3,4
 52.5 368 l 5,5,6
 91 366 91 366 295 375 c 5,0,1
EndSplineSet
EndChar

StartChar: uni0411
Encoding: 179 1041 180
Width: 738
GlyphClass: 2
Flags: W
LayerCount: 2
Fore
SplineSet
453.018554688 791.481445312 m 6,0,1
 301.661132812 786.71875 301.661132812 786.71875 213.208007812 776 c 4,2,3
 126.579101562 764 126.579101562 764 98.2158203125 738 c 4,4,5
 66.6962890625 709 66.6962890625 709 79.4951171875 667 c 4,6,7
 82.9189453125 656 82.9189453125 656 106.225585938 638 c 4,8,9
 111.765625 634 111.765625 634 121.346679688 626 c 5,10,11
 109.875 617 109.875 617 107.684570312 613.372070312 c 5,12,13
 101.083984375 621 101.083984375 621 94.50390625 629 c 4,14,15
 79.447265625 647 79.447265625 647 73.0615234375 664 c 4,16,17
 56.591796875 707 56.591796875 707 93.42578125 742 c 4,18,19
 121.036132812 768.235351562 121.036132812 768.235351562 213.522460938 782 c 4,20,21
 301.891601562 795.15234375 301.891601562 795.15234375 453.373046875 798.248046875 c 6,22,-1
 723.780273438 806 l 5,23,24
 724.5703125 802 724.5703125 802 725.360351562 798 c 5,25,-1
 453.018554688 791.481445312 l 6,0,1
248.4609375 819 m 5,26,-1
 254.4609375 819 l 4,27,28
 254.146484375 813 254.146484375 813 253.83203125 807 c 4,29,30
 251.473632812 762 251.473632812 762 249.115234375 717 c 5,31,32
 247.071289062 678 247.071289062 678 242.459960938 590 c 5,33,34
 239.891601562 541 239.891601562 541 234.82421875 492 c 132,-1,35
 229.755859375 443 229.755859375 443 228.280273438 422 c 5,36,37
 285.485351562 476 285.485351562 476 338.852539062 483 c 28,38,39
 453.690429688 499 453.690429688 499 530.856445312 464 c 4,40,41
 635.393554688 417 635.393554688 417 643.8984375 274 c 4,42,43
 652.243164062 147 652.243164062 147 580.416992188 74 c 4,44,45
 506.434570312 -2 506.434570312 -2 382.591796875 1 c 4,46,47
 305.696289062 3 305.696289062 3 270.639648438 21 c 4,48,49
 237.530273438 38 237.530273438 38 231.333007812 52.388671875 c 4,50,51
 227.788085938 62 227.788085938 62 233.102539062 68 c 28,52,53
 241.522460938 76 241.522460938 76 249.208007812 70 c 4,54,55
 329.90625 7 329.90625 7 382.899414062 6.87890625 c 4,56,57
 503.90625 7 503.90625 7 577.522460938 76 c 4,58,59
 645.928710938 141 645.928710938 141 635.451171875 275 c 4,60,61
 624.393554688 417 624.393554688 417 527.559570312 458.338867188 c 4,62,63
 451.271484375 491 451.271484375 491 339.538085938 477 c 28,64,65
 296.275390625 472 296.275390625 472 227.725585938 414 c 5,66,67
 214.51953125 324 214.51953125 324 200.751953125 233 c 4,68,69
 165.486328125 -1 165.486328125 -1 74.5390625 0 c 4,70,71
 -31.408203125 1 -31.408203125 1 38.1337890625 164 c 4,72,73
 101.995117188 314 101.995117188 314 220.236328125 414 c 5,74,-1
 228.84765625 502 l 4,75,-1
 232.677734375 556 l 5,76,77
 234.831054688 578 234.831054688 578 236.875 617 c 4,78,79
 242.4296875 723 242.4296875 723 248.4609375 819 c 5,26,-1
219.81640625 406 m 5,80,81
 109.995117188 314 109.995117188 314 45.1337890625 164 c 4,82,83
 -22.638671875 7.2666015625 -22.638671875 7.2666015625 74.853515625 6 c 5,84,85
 156.853515625 6 156.853515625 6 193.802734375 234 c 4,86,87
 205.837890625 311 205.837890625 311 219.81640625 406 c 5,80,81
EndSplineSet
EndChar

StartChar: uni0413
Encoding: 181 1043 182
Width: 638
GlyphClass: 2
Flags: W
LayerCount: 2
Fore
SplineSet
775 798 m 5,0,1
 503 791.481445312 l 4,2,3
 456 790 456 790 305 781 c 5,4,-1
 307 732 l 4,5,6
 308 549 308 549 291.14791928 399 c 4,7,8
 272.40719499 231.07715327 272.40719499 231.07715327 220 77 c 4,9,10
 194 -1 194 -1 136 -6 c 4,11,12
 77 -11 77 -11 40 46 c 4,13,14
 37 50 37 50 37.767578125 56 c 4,15,16
 38 61 38 61 41 63 c 4,17,18
 46 67 46 67 51.5 66.5 c 132,-1,19
 57 66 57 66 59.56640625 63 c 4,20,21
 61 62 61 62 67.5 43 c 4,22,23
 74 27 74 27 87 16 c 4,24,25
 107 -1 107 -1 136 0 c 4,26,27
 186 2 186 2 214 82 c 4,28,29
 261 216 261 216 283.383611984 400 c 4,30,31
 301 550 301 550 301 728 c 4,32,33
 300 754 300 754 299 781 c 5,34,-1
 264 776 l 28,35,36
 178 764 178 764 151 738 c 4,37,38
 118 707 118 707 136 667 c 4,39,40
 140 656 140 656 164.25 638 c 4,41,42
 170 634 170 634 180 626 c 5,43,44
 169 617 169 617 167 613.371944165 c 5,45,46
 160 621 160 621 153 629 c 4,47,48
 137 647 137 647 129.723318408 664 c 4,49,50
 111 707 111 707 146 742 c 4,51,52
 173 769 173 769 264 782 c 30,53,-1
 298 787 l 5,54,-1
 297 808 l 4,55,56
 296 817 296 817 297.5 818.5 c 4,57,58
 298 819 298 819 302 819 c 5,59,60
 303 810 303 810 303 807 c 4,61,-1
 304 788 l 5,62,63
 442 797 442 797 503 798.248046875 c 4,64,-1
 773 806 l 5,65,66
 774 802 774 802 775 798 c 5,0,1
EndSplineSet
EndChar

StartChar: uni0416
Encoding: 184 1046 185
Width: 1260
GlyphClass: 2
Flags: W
LayerCount: 2
Fore
SplineSet
803.98046875 512 m 5,0,1
 596 23 l 1,2,-1
 587 23 l 1,3,-1
 668 770 l 1,4,-1
 469 330 l 24,5,-1
 427.622070312 223.91796875 l 24,6,7
 358 0 358 0 227.901367188 -0.0361328125 c 0,8,9
 173 0 173 0 150.952148438 6.826171875 c 0,10,11
 68 33 68 33 51 94 c 1,12,-1
 61 100 l 1,13,14
 80 47 80 47 153.297851562 13.166015625 c 0,15,16
 167 7 167 7 228.251953125 6.4833984375 c 0,17,18
 355 5 355 5 418.563476562 227.263671875 c 0,19,20
 430 266 430 266 438.65625 315.921875 c 24,21,22
 460 443 460 443 458.999023438 587.915039062 c 0,23,24
 458 814 458 814 276.412109375 813.397460938 c 0,25,26
 214 813 214 813 152.625976562 727.4296875 c 0,27,-1
 145.934570312 731.612304688 l 0,28,29
 143 734 143 734 144.26171875 735.793945312 c 0,30,31
 203 819 203 819 276.412109375 819.107421875 c 0,32,33
 463 819 463 819 466.258789062 590.260742188 c 0,34,35
 468 448 468 448 447.0859375 320.590820312 c 0,36,37
 443 294 443 294 438 268 c 1,38,-1
 468 342 l 24,39,-1
 668 784 l 1,40,41
 672 784 672 784 673 784 c 128,-1,42
 674 784 674 784 674 783 c 0,43,44
 674 766 674 766 593 31 c 1,45,46
 629 111 629 111 788 485.5 c 0,47,48
 807 530 807 530 820.794921875 590.260742188 c 0,49,50
 873 819 873 819 1017.88476562 819.234375 c 0,51,52
 1155 819 1155 819 1198 725 c 1,53,54
 1194 721 1194 721 1188 718 c 1,55,56
 1148 812 1148 812 1019.53417969 812.712890625 c 0,57,58
 884 814 884 814 827.15234375 587.915039062 c 0,59,60
 815 540 815 540 809.129882812 503.275390625 c 0,61,62
 800 449 800 449 788.716796875 356.069335938 c 0,63,64
 783 307 783 307 788.293945312 225.58984375 c 0,65,66
 802 11 802 11 964.065429688 6.126953125 c 0,67,68
 1006 5 1006 5 1075 67 c 0,69,70
 1095 85 1095 85 1097.83300781 87.62109375 c 0,71,72
 1101 90 1101 90 1107.88964844 90.1298828125 c 0,73,74
 1112 90 1112 90 1115.94433594 85.7666015625 c 0,75,76
 1118 84 1118 84 1118.29003906 80.73046875 c 0,77,78
 1119 74 1119 74 1115 68.5 c 0,79,80
 1110 61 1110 61 1091.8515625 49.9287109375 c 0,81,82
 1010 0 1010 0 963.740234375 0.08984375 c 0,83,84
 804 0 804 0 782.125 224.245117188 c 0,85,86
 781 236 781 236 781 303 c 0,87,88
 781 358 781 358 803.98046875 512 c 5,0,1
EndSplineSet
EndChar

StartChar: uni0417
Encoding: 185 1047 186
Width: 608
GlyphClass: 2
Flags: W
LayerCount: 2
Fore
SplineSet
434.645507812 42 m 4,0,1
 361.973632812 0 361.973632812 0 265.973632812 0 c 4,2,3
 187.973632812 0 187.973632812 0 142.653320312 19.2158203125 c 4,4,5
 110.641601562 32.7724609375 110.641601562 32.7724609375 77.271484375 60.580078125 c 4,6,7
 44.2431640625 88.1025390625 44.2431640625 88.1025390625 23.1513671875 116 c 28,8,9
 21.37890625 119 21.37890625 119 21.8583984375 124.181640625 c 4,10,11
 22.25390625 129 22.25390625 129 27.6572265625 133 c 4,12,13
 30.779296875 135 30.779296875 135 35.2265625 134.75 c 4,14,15
 40.779296875 135 40.779296875 135 44.306640625 130 c 4,16,17
 58.990234375 99.017578125 58.990234375 99.017578125 90.0810546875 69.861328125 c 4,18,19
 122.413085938 39.541015625 122.413085938 39.541015625 146.297851562 27.1494140625 c 4,20,21
 187.030273438 6.005859375 187.030273438 6.005859375 266.41015625 5 c 4,22,23
 355.322265625 4 355.322265625 4 432.08203125 47 c 4,24,25
 521.368164062 96 521.368164062 96 540.473632812 223 c 4,26,27
 552.46875 303 552.46875 303 496.095703125 384.5 c 4,28,29
 436.985351562 469 436.985351562 469 343.422851562 474 c 4,30,31
 297.59765625 476 297.59765625 476 250.65234375 476.624023438 c 5,32,33
 250.771484375 478 250.771484375 478 250.860351562 479 c 133,-1,34
 250.946289062 480 250.946289062 480 251.05859375 481.258789062 c 5,35,36
 298.208984375 483 298.208984375 483 344.345703125 496 c 4,37,38
 392.571289062 510 392.571289062 510 420.7578125 535 c 4,39,40
 470.780273438 581 470.780273438 581 474.891601562 654 c 4,41,42
 478.060546875 710 478.060546875 710 449.64453125 751 c 4,43,44
 402.592773438 819 402.592773438 819 327.634765625 819.498046875 c 4,45,46
 257.678710938 820 257.678710938 820 222.26953125 781 c 4,47,48
 211.131835938 768 211.131835938 768 208.806640625 770 c 132,-1,49
 206.481445312 772 206.481445312 772 217.530273438 784 c 4,50,51
 255.116210938 825 255.116210938 825 329.028320312 823.991210938 c 4,52,53
 409.94140625 823 409.94140625 823 454.081054688 756 c 4,54,55
 484.97265625 709 484.97265625 709 481.25 655 c 4,56,57
 475.4296875 577 475.4296875 577 423.918945312 531 c 4,58,59
 397.30859375 507 397.30859375 507 344.997070312 492 c 4,60,61
 297.860351562 479 297.860351562 479 260.860351562 479 c 5,62,63
 297.946289062 480 297.946289062 480 343.860351562 479 c 4,64,65
 437.685546875 477 437.685546875 477 500.90234375 388 c 4,66,67
 558.819335938 307 558.819335938 307 546.473632812 223 c 20,68,69
 528.456054688 97 528.456054688 97 434.645507812 42 c 4,0,1
EndSplineSet
EndChar

StartChar: uni0419
Encoding: 187 1049 188
Width: 749
GlyphClass: 2
Flags: W
LayerCount: 2
Fore
SplineSet
567 963 m 1,0,-1
 572 960 l 17,1,2
 538 907 538 907 408 902 c 0,3,4
 385.896091516 900.987607245 385.896091516 900.987607245 367 907 c 0,5,6
 326 921 326 921 328 935 c 0,7,8
 331 953 331 953 354 936 c 0,9,10
 389 910 389 910 430 911 c 0,11,12
 532 914 532 914 567 963 c 1,0,-1
EndSplineSet
Refer: 274 -1 N 1 0 0 1 0 0 2
EndChar

StartChar: uni041B
Encoding: 189 1051 190
Width: 863
GlyphClass: 2
Flags: W
LayerCount: 2
Fore
SplineSet
629.28515625 228 m 28,0,1
 636.130859375 362 l 4,2,-1
 647 490.879882812 l 5,3,-1
 656.384765625 606 l 6,4,5
 672 763 672 763 673.260742188 777 c 4,6,7
 676 813 676 813 645 813 c 4,8,9
 607 813 607 813 587 704 c 4,10,11
 554 522 554 522 498.431640625 376 c 4,12,13
 410 144 410 144 280 49.068359375 c 4,14,15
 212 -1 212 -1 133 -1 c 4,16,17
 76 -1 76 -1 55 21 c 4,18,19
 38 39 38 39 36 69 c 4,20,-1
 34 95 l 5,21,22
 37 95 37 95 41 95 c 5,23,24
 42 84 42 84 43 69 c 4,25,26
 45 40 45 40 60 26 c 4,27,28
 83 5 83 5 131 6 c 4,29,30
 208 8 208 8 275 55.6650390625 c 4,31,32
 403 147 403 147 490.73828125 378 c 4,33,34
 543 517 543 517 580 706 c 4,35,36
 602 819 602 819 641 819 c 4,37,38
 684.610230802 819.991141609 684.610230802 819.991141609 680.180664062 774 c 6,39,-1
 664 606 l 6,40,41
 654 502 654 502 653.840820312 492 c 4,42,43
 654 487 654 487 643.4609375 362 c 4,44,-1
 637.017578125 227 l 20,45,46
 635 7 635 7 705 6 c 4,47,48
 730 6 730 6 758 41 c 4,49,50
 772 58 772 58 774 59.5 c 4,51,52
 777 61 777 61 783 61 c 4,53,54
 787 61 787 61 792 56 c 4,55,56
 794 54 794 54 794 50 c 4,57,58
 794 45 794 45 791.134765625 40 c 4,59,60
 788 35 788 35 777 28 c 4,61,62
 732 0 732 0 704.599609375 0 c 4,63,64
 626 0 626 0 629.28515625 228 c 28,0,1
EndSplineSet
EndChar

StartChar: uni041F
Encoding: 193 1055 194
Width: 808
GlyphClass: 2
Flags: W
LayerCount: 2
Fore
SplineSet
36 51 m 20,0,1
 44 41 44 41 51 31.5 c 128,-1,2
 58 22 58 22 76 11 c 0,3,4
 97 -1 97 -1 126 0 c 0,5,6
 176 2 176 2 204 82 c 0,7,8
 251 216 251 216 273.383789062 400 c 0,9,10
 291 550 291 550 291 728 c 0,11,12
 290 754 290 754 289 781 c 1,13,-1
 254 776 l 24,14,15
 168 764 168 764 141 738 c 0,16,17
 108 707 108 707 126 667 c 0,18,19
 130 656 130 656 154.25 638 c 0,20,21
 160 634 160 634 170 626 c 1,22,23
 159 617 159 617 157 613.372070312 c 1,24,25
 150 621 150 621 143 629 c 0,26,27
 127 647 127 647 119.723632812 664 c 0,28,29
 101 707 101 707 136 742 c 0,30,31
 163 769 163 769 254 782 c 26,32,-1
 288 787 l 1,33,-1
 287 808 l 0,34,35
 286 817 286 817 287.5 818.5 c 0,36,37
 288 819 288 819 292 819 c 1,38,39
 293 810 293 810 293 807 c 0,40,-1
 294 788 l 1,41,42
 432 797 432 797 493 798.248046875 c 0,43,-1
 763 806 l 1,44,45
 764 802 764 802 765 798 c 1,46,-1
 493 791.481445312 l 0,47,48
 446 790 446 790 295 781 c 1,49,-1
 297 732 l 0,50,51
 298 549 298 549 281.147460938 399 c 0,52,53
 262 231 262 231 210 77 c 0,54,55
 184 -1 184 -1 126 -6 c 0,56,57
 67 -11 67 -11 30 46 c 1,58,-1
 36 51 l 20,0,1
557 678 m 0,59,60
 560 702 560 702 562.759765625 726 c 0,61,-1
 565.759765625 757 l 1,62,63
 567 758 567 758 576.759765625 757.879882812 c 0,64,65
 581 758 581 758 581.759765625 757 c 0,66,-1
 576.759765625 722 l 0,67,68
 574 716 574 716 569.40625 679 c 0,69,70
 517.651367188 236.053710938 517.651367188 236.053710938 516.478515625 227 c 0,71,72
 510 177 510 177 511 123 c 8,73,74
 512 7 512 7 561 7 c 0,75,76
 588 7 588 7 615 41 c 0,77,78
 629 58 629 58 631 59.5 c 0,79,80
 634 61 634 61 640 61 c 0,81,82
 644 61 644 61 649 56 c 0,83,84
 651 54 651 54 651 50 c 0,85,86
 651 45 651 45 648.134765625 40 c 0,87,88
 645 35 645 35 634 28 c 0,89,90
 589 0 589 0 561.599609375 0 c 0,91,92
 506 0 506 0 504 121 c 0,93,94
 503 176 503 176 509.463867188 227 c 0,95,96
 533 452 533 452 557 678 c 0,59,60
EndSplineSet
EndChar

StartChar: uni0422
Encoding: 196 1058 197
Width: 885
GlyphClass: 2
Flags: W
LayerCount: 2
Fore
SplineSet
421 0 m 17,0,1
 422 20 422 20 439.463867188 227 c 0,2,3
 474 624 474 624 481 678 c 0,4,5
 484 702 484 702 486.759765625 726 c 0,6,-1
 489.759765625 757 l 1,7,8
 491 758 491 758 500.759765625 757.879882812 c 0,9,10
 505 758 505 758 505.759765625 757 c 0,11,-1
 500.759765625 722 l 0,12,13
 498 716 498 716 493.40625 679 c 0,14,15
 449.245117188 260.52734375 449.245117188 260.52734375 446.478515625 227 c 0,16,17
 437 101 437 101 428 0 c 9,18,19
 421 0 l 17,0,1
30 51 m 16,20,21
 38 41 38 41 45 31.5 c 128,-1,22
 52 22 52 22 70 11 c 0,23,24
 91 -1 91 -1 120 0 c 0,25,26
 170 2 170 2 198 82 c 0,27,28
 245 216 245 216 267.383789062 400 c 0,29,30
 290 594 290 594 285 728 c 0,31,32
 284 754 284 754 283 781 c 1,33,-1
 248 776 l 24,34,35
 162 764 162 764 135 738 c 0,36,37
 105 709 105 709 120 667 c 0,38,39
 124 656 124 656 148.25 638 c 0,40,41
 154 634 154 634 164 626 c 1,42,43
 153 617 153 617 151 613.372070312 c 1,44,45
 144 621 144 621 137 629 c 0,46,47
 121 647 121 647 113.723632812 664 c 0,48,49
 95 707 95 707 130 742 c 0,50,51
 156.551757812 768.551757812 156.551757812 768.551757812 248 782 c 26,52,-1
 282 787 l 1,53,-1
 281 808 l 0,54,55
 280 817 280 817 281.5 818.5 c 0,56,57
 282 819 282 819 286 819 c 1,58,59
 287 810 287 810 287 807 c 0,60,-1
 288 788 l 1,61,62
 408 797 408 797 557 798.248046875 c 0,63,-1
 827 806 l 1,64,65
 828 802 828 802 829 798 c 1,66,-1
 557 791.481445312 l 0,67,68
 324 783 324 783 289 781 c 1,69,-1
 291 732 l 0,70,71
 292 549 292 549 275.147460938 399 c 0,72,73
 256 231 256 231 204 77 c 0,74,75
 178 -1 178 -1 120 -6 c 0,76,77
 61 -11 61 -11 24 46 c 1,78,-1
 30 51 l 16,20,21
671 678 m 0,79,80
 674 702 674 702 676.759765625 726 c 0,81,-1
 679.759765625 757 l 1,82,83
 681 758 681 758 690.759765625 757.879882812 c 0,84,85
 695 758 695 758 695.759765625 757 c 0,86,-1
 690.759765625 722 l 0,87,88
 688 716 688 716 683.40625 679 c 0,89,90
 632 236 632 236 630.478515625 227 c 0,91,92
 624 177 624 177 625 123 c 8,93,94
 626 7 626 7 675 7 c 0,95,96
 702 7 702 7 729 41 c 0,97,98
 743 58 743 58 745 59.5 c 0,99,100
 748 61 748 61 754 61 c 0,101,102
 758 61 758 61 763 56 c 0,103,104
 765 54 765 54 765 50 c 0,105,106
 765 45 765 45 762.134765625 40 c 0,107,108
 759 35 759 35 748 28 c 0,109,110
 703 0 703 0 675.599609375 0 c 0,111,112
 620 0 620 0 618 121 c 0,113,114
 617 167 617 167 623.463867188 227 c 0,115,116
 669 660 669 660 671 678 c 0,79,80
EndSplineSet
EndChar

StartChar: uni0424
Encoding: 198 1060 199
Width: 733
GlyphClass: 2
Flags: W
LayerCount: 2
Back
SplineSet
350.717773438 758 m 132,-1,1
 350.717773438 770 350.717773438 770 362.717773438 770 c 132,-1,2
 374.717773438 770 374.717773438 770 374.717773438 758 c 132,-1,3
 374.717773438 746 374.717773438 746 362.717773438 746 c 132,-1,0
 350.717773438 746 350.717773438 746 350.717773438 758 c 132,-1,1
EndSplineSet
Fore
SplineSet
369 440 m 1,0,1
 346 594 l 24,2,3
 333 681 333 681 305.1171875 738 c 0,4,5
 268 815 268 815 206 808 c 0,6,7
 46 789 46 789 29 574 c 0,8,9
 22 483 22 483 98 413 c 0,10,11
 136 378 136 378 199.5 376.5 c 0,12,13
 260 376 260 376 294 404 c 1,14,15
 297 400 297 400 297 399 c 1,16,17
 263 369 263 369 201 370 c 0,18,19
 131 371 131 371 92.9067417597 408 c 0,20,21
 15 483 15 483 22.116021839 574 c 0,22,23
 39 795 39 795 204 815.79296875 c 0,24,25
 272 824 272 824 312.162876271 741 c 0,26,27
 338 688 338 688 352.682900482 598 c 24,28,-1
 374.915573292 462.596679688 l 2,29,30
 376.514359626 452.859614785 376.514359626 452.859614785 386.616583283 434.978027344 c 0,31,32
 409.587866413 395.983576358 409.587866413 395.983576358 463 395.431123227 c 0,33,34
 585 394 585 394 633.779785156 477.560546875 c 0,35,36
 668 535 668 535 671 606 c 0,37,38
 674 679 674 679 651 724 c 1,39,40
 598 811 598 811 477 811.859181595 c 0,41,42
 434 812 434 812 403 788.013559163 c 0,43,44
 384 773 384 773 376.295613622 759 c 0,45,46
 372 751 372 751 370 749 c 0,47,48
 364 743 364 743 355 747 c 0,49,50
 347 750 347 750 350 763 c 24,51,52
 354 779 354 779 388.9123571 797.912109375 c 0,53,54
 424 818 424 818 478 818.697386896 c 0,55,56
 602 820 602 820 657 727 c 0,57,58
 679 690 679 690 678 605 c 0,59,60
 677 536 677 536 640.441330732 473 c 0,61,62
 590 385 590 385 462 386.658877401 c 0,63,64
 404 387 404 387 379 432 c 1,65,66
 392 302 392 302 391.587058156 232 c 0,67,68
 391 156 391 156 378.110351562 101 c 0,69,70
 355 -1 355 -1 287 0 c 128,-1,71
 219 1 219 1 171 54 c 0,72,73
 133 96 133 96 103 143 c 1,74,75
 106 147 106 147 118 156 c 1,76,77
 146 93 146 93 177 58 c 24,78,79
 222 7 222 7 289 7 c 0,80,81
 348 7 348 7 370.947574415 104 c 0,82,83
 382 149 382 149 382.745768408 232 c 0,84,85
 384 317 384 317 369 440 c 1,0,1
EndSplineSet
EndChar

StartChar: uni0426
Encoding: 200 1062 201
Width: 749
GlyphClass: 2
Flags: W
LayerCount: 2
Fore
SplineSet
573 0 m 0,0,1
 492 3 492 3 494.951699275 116 c 0,2,3
 496 153 496 153 498 170 c 0,4,-1
 504 223 l 1,5,6
 488 118 488 118 433 62.1123378519 c 0,7,8
 373 1 373 1 266 0 c 0,9,10
 146 -1 146 -1 115 78.0596668249 c 0,11,12
 92 136 92 136 113 228 c 0,13,14
 132 310 132 310 148.109848485 386.5 c 0,15,16
 165 467 165 467 172.12454824 594 c 0,17,18
 177 690 177 690 177 813 c 1,19,-1
 155 792 l 2,20,21
 119.224299065 757.85046729 119.224299065 757.85046729 83 782 c 0,22,23
 60 798 60 798 47 771 c 1,24,-1
 42 774 l 0,25,26
 43 778 43 778 49.5 788 c 0,27,28
 61 805 61 805 89 787 c 0,29,30
 123 765 123 765 152 797 c 0,31,32
 170 817 170 817 170.75 818.25 c 0,33,34
 172 819 172 819 179 819 c 0,35,-1
 184 819 l 0,36,37
 184 813 184 813 184 807 c 0,38,39
 184 682 184 682 180.001953125 594 c 0,40,41
 175 471 175 471 156 385 c 24,42,-1
 121 227 l 18,43,44
 101 136 101 136 122 82.6133789397 c 0,45,46
 152 7 152 7 263 7 c 0,47,48
 370 7 370 7 429 69.293730741 c 0,49,50
 484 127 484 127 501 232 c 1,51,-1
 511.138671875 294 l 0,52,-1
 566 673 l 0,53,-1
 578 794 l 0,54,55
 580 811 580 811 580.6015625 818.5 c 1,56,57
 590 820 590 820 601 819 c 1,58,59
 589 753 589 753 575.495800306 672 c 0,60,61
 549 512 549 512 518.740234375 292 c 0,62,63
 501 162 501 162 500.947849351 116 c 0,64,65
 501 7 501 7 572 6 c 8,66,67
 596 6 596 6 616 26 c 0,68,69
 636 45 636 45 668 0 c 24,70,-1
 683 -26 l 24,71,72
 706 -6 706 -6 729.46484375 22 c 0,73,74
 752 49 752 49 757 50.5 c 128,-1,75
 762 52 762 52 766 52 c 128,-1,76
 770 52 770 52 775 47 c 0,77,78
 777 45 777 45 777 41 c 0,79,80
 777 36 777 36 774.134765625 31 c 0,81,82
 771 26 771 26 760 19 c 0,83,-1
 739 7.830078125 l 0,84,85
 700 -16 700 -16 686 -29 c 9,86,-1
 686.5 -30 l 0,87,88
 747 -122 747 -122 746.940429688 -145 c 0,89,90
 747 -192 747 -192 675 -194 c 0,91,92
 594 -197 594 -197 617 -119 c 0,93,94
 626 -88 626 -88 679 -30 c 1,95,-1
 663 -3 l 0,96,97
 636 38 636 38 617 19 c 0,98,99
 597 -1 597 -1 573 0 c 0,0,1
674 -188 m 0,100,101
 740 -185 740 -185 740.453125 -144 c 0,102,103
 741 -124 741 -124 682 -34 c 1,104,105
 631 -92 631 -92 623 -120 c 24,106,107
 603 -191 603 -191 674 -188 c 0,100,101
EndSplineSet
EndChar

StartChar: uni0427
Encoding: 201 1063 202
Width: 731
GlyphClass: 2
Flags: W
LayerCount: 2
Fore
SplineSet
540 582 m 17,0,1
 527 493 527 493 462 432.112304688 c 0,2,3
 372 347 372 347 306 340 c 0,4,5
 200 329 200 329 168.815429688 370 c 0,6,7
 123.39587973 429.715478828 123.39587973 429.715478828 153 558 c 0,8,9
 187 705 187 705 187 813 c 1,10,-1
 165 792 l 2,11,12
 129.224299065 757.85046729 129.224299065 757.85046729 93 782 c 0,13,14
 70 798 70 798 57 771 c 1,15,-1
 52 774 l 0,16,17
 53 778 53 778 59.5 788 c 0,18,19
 71 805 71 805 99 787 c 0,20,21
 133 765 133 765 162 797 c 0,22,23
 180 817 180 817 180.75 818.25 c 0,24,25
 182 819 182 819 189 819 c 0,26,-1
 194 819 l 0,27,28
 194 813 194 813 194 807 c 0,29,30
 194 706 194 706 161 557 c 16,31,32
 133 433 133 433 175.245117188 377 c 0,33,34
 203 339 203 339 303 347 c 0,35,36
 366 352 366 352 458 439.293945312 c 0,37,38
 520 498 520 498 534 583 c 9,39,-1
 540 582 l 17,0,1
474.952148438 116 m 0,40,41
 475 162 475 162 492.138671875 294 c 9,42,-1
 546 673 l 0,43,-1
 558 794 l 0,44,45
 560 811 560 811 560.6015625 818.5 c 1,46,47
 570 820 570 820 581 819 c 1,48,49
 569 753 569 753 555.49609375 672 c 0,50,51
 529 512 529 512 498.740234375 292 c 0,52,53
 481 162 481 162 480.948242188 116 c 0,54,55
 481 7 481 7 552 6 c 0,56,57
 577 6 577 6 605 41 c 0,58,59
 619 58 619 58 621 59.5 c 0,60,61
 624 61 624 61 630 61 c 0,62,63
 634 61 634 61 639 56 c 0,64,65
 641 54 641 54 641 50 c 0,66,67
 641 45 641 45 638.134765625 40 c 0,68,69
 635 35 635 35 624 28 c 0,70,71
 579 0 579 0 551.599609375 0 c 0,72,73
 477 0 477 0 474.952148438 116 c 0,40,41
EndSplineSet
EndChar

StartChar: uni0428
Encoding: 202 1064 203
Width: 1059
GlyphClass: 2
Flags: W
LayerCount: 2
Fore
SplineSet
474 223 m 5,0,1
 458 118 458 118 403 62.1123046875 c 4,2,3
 343 1 343 1 266 0 c 4,4,5
 166 -1 166 -1 135 78.0595703125 c 4,6,7
 112 136 112 136 133 228 c 4,8,9
 152 310 152 310 168.109375 386.5 c 4,10,11
 185 467 185 467 192.125 594 c 4,12,13
 197 690 197 690 197 813 c 5,14,-1
 175 792 l 6,15,16
 139 758 139 758 103 782 c 4,17,18
 80 798 80 798 67 771 c 5,19,-1
 62 774 l 4,20,21
 63 778 63 778 69.5 788 c 4,22,23
 81 805 81 805 109 787 c 4,24,25
 143 765 143 765 172 797 c 4,26,27
 190 817 190 817 190.75 818.25 c 4,28,29
 192 819 192 819 199 819 c 4,30,-1
 204 819 l 4,31,32
 204 813 204 813 204 807 c 4,33,34
 204 682 204 682 200.001953125 594 c 4,35,36
 195 471 195 471 176 385 c 28,37,-1
 141 227 l 22,38,39
 121 136 121 136 142 82.61328125 c 4,40,41
 172 7 172 7 263 7 c 4,42,43
 340 7 340 7 399 69.2939453125 c 4,44,45
 454 127 454 127 471 232 c 5,46,-1
 481.138671875 294 l 4,47,-1
 536 673 l 4,48,-1
 548 794 l 4,49,50
 550 811 550 811 550.6015625 818.5 c 5,51,52
 560 820 560 820 571 819 c 5,53,54
 559 753 559 753 545.49609375 672 c 4,55,56
 535.305664062 622.24609375 535.305664062 622.24609375 488.740234375 292 c 4,57,58
 469 152 469 152 482 82.61328125 c 28,59,60
 498.244140625 5.095703125 498.244140625 5.095703125 603 7 c 4,61,62
 681 8 681 8 739 69.2939453125 c 4,63,64
 794 127 794 127 811 232 c 5,65,-1
 821.138671875 294 l 4,66,-1
 876 673 l 4,67,-1
 888 794 l 4,68,69
 890 811 890 811 890.6015625 818.5 c 5,70,71
 900 820 900 820 911 819 c 5,72,73
 899 753 899 753 885.49609375 672 c 4,74,75
 859 512 859 512 828.740234375 292 c 4,76,77
 811 162 811 162 810.948242188 116 c 4,78,79
 811 7 811 7 882 6 c 4,80,81
 907 6 907 6 935 41 c 4,82,83
 949 58 949 58 951 59.5 c 4,84,85
 954 61 954 61 960 61 c 4,86,87
 964 61 964 61 969 56 c 4,88,89
 971 54 971 54 971 50 c 4,90,91
 971 45 971 45 968.134765625 40 c 4,92,93
 965 35 965 35 954 28 c 4,94,95
 909 0 909 0 881.599609375 0 c 4,96,97
 802 0 802 0 804.952148438 116 c 4,98,99
 806 153 806 153 808 170 c 4,100,-1
 814 223 l 5,101,102
 798 118 798 118 743 62.1123046875 c 4,103,104
 683 1 683 1 606 0 c 4,105,106
 489 -1 489 -1 475 78.0595703125 c 4,107,108
 462 153 462 153 474 223 c 5,0,1
EndSplineSet
EndChar

StartChar: uni0429
Encoding: 203 1065 204
Width: 1183
GlyphClass: 2
Flags: W
LayerCount: 2
Fore
SplineSet
881.599609375 0 m 0,0,1
 802 0 802 0 804.952148438 116 c 0,2,3
 806 153 806 153 808 170 c 0,4,-1
 814 223 l 1,5,6
 798 118 798 118 743 62.1123046875 c 0,7,8
 683 1 683 1 606 0 c 0,9,10
 489 -1 489 -1 475 78.0595703125 c 0,11,12
 462 153 462 153 474 223 c 1,13,14
 458 118 458 118 403 62.1123046875 c 0,15,16
 343 1 343 1 266 0 c 0,17,18
 166 -1 166 -1 135 78.0595703125 c 0,19,20
 112 136 112 136 133 228 c 0,21,22
 152 310 152 310 168.109375 386.5 c 0,23,24
 185 467 185 467 192.125 594 c 0,25,26
 197 690 197 690 197 813 c 1,27,-1
 175 792 l 2,28,29
 139.224299065 757.85046729 139.224299065 757.85046729 103 782 c 0,30,31
 80 798 80 798 67 771 c 1,32,-1
 62 774 l 0,33,34
 63 778 63 778 69.5 788 c 0,35,36
 81 805 81 805 109 787 c 0,37,38
 143 765 143 765 172 797 c 0,39,40
 190 817 190 817 190.75 818.25 c 0,41,42
 192 819 192 819 199 819 c 0,43,-1
 204 819 l 0,44,45
 204 813 204 813 204 807 c 0,46,47
 204 682 204 682 200.001953125 594 c 0,48,49
 195 471 195 471 176 385 c 24,50,-1
 141 227 l 18,51,52
 121 136 121 136 142 82.61328125 c 0,53,54
 172 7 172 7 263 7 c 0,55,56
 340 7 340 7 399 69.2939453125 c 0,57,58
 454 127 454 127 471 232 c 1,59,-1
 481.138671875 294 l 0,60,-1
 536 673 l 0,61,-1
 548 794 l 0,62,63
 550 811 550 811 550.6015625 818.5 c 1,64,65
 560 820 560 820 571 819 c 1,66,67
 560 753 560 753 545.49609375 672 c 0,68,69
 530 587 530 587 488.740234375 292 c 0,70,71
 469 152 469 152 482 82.61328125 c 24,72,73
 497 5 497 5 603 7 c 0,74,75
 681 8 681 8 739 69.2939453125 c 0,76,77
 794 127 794 127 811 232 c 1,78,-1
 821.138671875 294 l 0,79,-1
 876 673 l 0,80,-1
 888 794 l 0,81,82
 890 811 890 811 890.6015625 818.5 c 1,83,84
 900 820 900 820 911 819 c 1,85,86
 899 753 899 753 885.49609375 672 c 0,87,88
 859 512 859 512 828.740234375 292 c 0,89,90
 811 162 811 162 810.948242188 116 c 0,91,92
 811 7 811 7 880.599609375 6 c 8,93,94
 905 6 905 6 924.599609375 26 c 0,95,96
 945 45 945 45 976.599609375 0 c 24,97,-1
 991.599609375 -26 l 24,98,99
 1015 -6 1015 -6 1038.06445312 22 c 0,100,101
 1061 49 1061 49 1065.59960938 50.5 c 0,102,103
 1071 52 1071 52 1074.59960938 52 c 0,104,105
 1079 52 1079 52 1083.59960938 47 c 0,106,107
 1086 45 1086 45 1085.59960938 41 c 0,108,109
 1086 36 1086 36 1082.734375 31 c 0,110,111
 1080 26 1080 26 1068.59960938 19 c 0,112,-1
 1047.59960938 7.830078125 l 0,113,114
 1009 -16 1009 -16 994.599609375 -29 c 9,115,-1
 995.099609375 -30 l 0,116,117
 1056 -122 1056 -122 1055.54003906 -145 c 0,118,119
 1056 -192 1056 -192 983.599609375 -194 c 0,120,121
 903 -197 903 -197 925.599609375 -119 c 0,122,123
 935 -88 935 -88 987.599609375 -30 c 1,124,-1
 971.599609375 -3 l 0,125,126
 945 38 945 38 925.5 19 c 128,-1,127
 906 0 906 0 881.599609375 0 c 0,0,1
982.599609375 -188 m 0,128,129
 1047.93031914 -185.04832867 1047.93031914 -185.04832867 1049.05273438 -144 c 0,130,131
 1050 -124 1050 -124 990.599609375 -34 c 1,132,133
 940 -92 940 -92 931.599609375 -120 c 24,134,135
 912 -191 912 -191 982.599609375 -188 c 0,128,129
EndSplineSet
EndChar

StartChar: uni042A
Encoding: 204 1066 205
Width: 755
GlyphClass: 2
Flags: W
LayerCount: 2
Fore
SplineSet
251.81640625 406 m 1,0,1
 141.995117188 314 141.995117188 314 77.1337890625 164 c 0,2,3
 9.361328125 7.2666015625 9.361328125 7.2666015625 106.853515625 6 c 1,4,5
 188.853515625 6 188.853515625 6 225.802734375 234 c 0,6,7
 237.837890625 311 237.837890625 311 251.81640625 406 c 1,0,1
277.4609375 819 m 4,8,9
 286.4609375 819 l 4,10,11
 286.146484375 813 286.146484375 813 285.83203125 807 c 4,12,13
 283.473632812 762 283.473632812 762 281.115234375 717 c 1,14,15
 279.071289062 678 279.071289062 678 274.459960938 590 c 1,16,17
 271.891601562 541 271.891601562 541 266.82421875 492 c 128,-1,18
 261.755859375 443 261.755859375 443 260.280273438 422 c 1,19,20
 318.432617188 475 318.432617188 475 370.904296875 484 c 0,21,22
 480.900390625 503 480.900390625 503 562.9609375 466 c 0,23,24
 667.498046875 419 667.498046875 419 675.8984375 274 c 0,25,26
 684.243164062 147 684.243164062 147 612.416992188 74 c 0,27,28
 538.434570312 -2 538.434570312 -2 414.591796875 1 c 0,29,30
 337.696289062 3 337.696289062 3 302.639648438 21 c 0,31,32
 269.530273438 38 269.530273438 38 263.333007812 52.388671875 c 0,33,34
 259.788085938 62 259.788085938 62 265.102539062 68 c 24,35,36
 273.522460938 76 273.522460938 76 281.208007812 70 c 0,37,38
 361.90625 7 361.90625 7 414.899414062 6.87890625 c 0,39,40
 539.90625 7 539.90625 7 607.626953125 78 c 0,41,42
 676.400390625 150 676.400390625 150 667.451171875 275 c 0,43,44
 657.498046875 419 657.498046875 419 559.6640625 460.338867188 c 0,45,46
 479.481445312 495 479.481445312 495 371.58984375 478 c 24,47,48
 324.223632812 471 324.223632812 471 259.725585938 414 c 1,49,50
 246.51953125 324 246.51953125 324 232.751953125 233 c 0,51,52
 197.486328125 -1 197.486328125 -1 106.5390625 0 c 0,53,54
 0.591796875 1 0.591796875 1 70.1337890625 164 c 0,55,56
 133.995117188 314 133.995117188 314 252.236328125 414 c 1,57,-1
 260.84765625 502 l 0,58,-1
 264.677734375 556 l 1,59,60
 266.831054688 578 266.831054688 578 268.875 617 c 0,61,62
 274.115234375 717 274.115234375 717 280.146484375 813 c 5,63,-1
 237.045898438 792 l 6,64,65
 172.8515625 760.72265625 172.8515625 760.72265625 125.991210938 790.95703125 c 4,66,67
 59.2998046875 835 59.2998046875 835 10.998046875 772 c 5,68,-1
 7.1025390625 774 l 4,69,70
 12.4169921875 780 12.4169921875 780 17.2314453125 786 c 4,71,72
 59.5087890625 839 59.5087890625 839 131.26953125 796.259765625 c 4,73,74
 172.9453125 771 172.9453125 771 234.30859375 797 c 4,75,76
 246.5703125 802 246.5703125 802 277.4609375 819 c 4,8,9
EndSplineSet
EndChar

StartChar: uni042B
Encoding: 205 1067 206
Width: 901
GlyphClass: 2
Flags: W
LayerCount: 2
Fore
SplineSet
787 738 m 0,0,1
 790 762 790 762 792.759765625 786 c 0,2,-1
 795.759765625 817 l 1,3,4
 797 818 797 818 806.759765625 817.879882812 c 0,5,6
 811 818 811 818 811.759765625 817 c 0,7,-1
 806.759765625 782 l 0,8,9
 806 780 806 780 799.40625 739 c 0,10,11
 745 371 745 371 726.478515625 227 c 0,12,13
 720 177 720 177 721 123 c 8,14,15
 722.373046875 7 722.373046875 7 771 7 c 0,16,17
 798 7 798 7 825 41 c 0,18,19
 839 58 839 58 841 59.5 c 0,20,21
 844 61 844 61 850 61 c 0,22,23
 854 61 854 61 859 56 c 0,24,25
 861 54 861 54 861 50 c 0,26,27
 861 45 861 45 858.134765625 40 c 0,28,29
 855 35 855 35 844 28 c 0,30,31
 799 0 799 0 771.599609375 0 c 0,32,33
 716 0 716 0 714 121 c 0,34,35
 713 178 713 178 719.463867188 227 c 0,36,37
 738 372 738 372 787 738 c 0,0,1
242.459960938 590 m 1,38,39
 240 541 240 541 234.823242188 492 c 0,40,41
 230 443 230 443 228.280273438 422 c 1,42,43
 285 476 285 476 338.8515625 483 c 24,44,45
 454 499 454 499 530.856445312 464 c 0,46,47
 635 417 635 417 643.8984375 274 c 0,48,49
 652 147 652 147 580.416992188 74 c 0,50,51
 506 -2 506 -2 382.591796875 1 c 0,52,53
 306 3 306 3 270.639648438 21 c 0,54,55
 238 38 238 38 231.33203125 52.388671875 c 0,56,57
 228 62 228 62 233.102539062 68 c 24,58,59
 242 76 242 76 249.208007812 70 c 0,60,61
 330 7 330 7 382.899414062 6.87890625 c 0,62,63
 504 7 504 7 577.522460938 76 c 0,64,65
 646 141 646 141 635.451171875 275 c 0,66,67
 624 417 624 417 527.559570312 458.338867188 c 0,68,69
 451 491 451 491 339.537109375 477 c 24,70,71
 296 472 296 472 227.724609375 414 c 1,72,73
 215 324 215 324 200.751953125 233 c 0,74,75
 165 -1 165 -1 74.5390625 0 c 0,76,77
 -31 1 -31 1 38.1337890625 164 c 0,78,79
 102 314 102 314 220.235351562 414 c 1,80,-1
 228.84765625 502 l 0,81,-1
 232.677734375 556 l 1,82,83
 235 578 235 578 236.875 617 c 0,84,85
 242 717 242 717 248.146484375 813 c 1,86,-1
 225.045898438 792 l 2,87,88
 187.365262952 757.7457457 187.365262952 757.7457457 152.521484375 782 c 0,89,90
 130 798 130 798 115.9453125 771 c 1,91,-1
 111.102539062 774 l 0,92,93
 112 778 112 778 119.3359375 788 c 0,94,95
 132 805 132 805 158.784179688 787 c 0,96,97
 192 765 192 765 222.307617188 797 c 0,98,99
 241 817 241 817 242.408203125 818 c 0,100,101
 243 819 243 819 250.934570312 818.5 c 0,102,-1
 254.4609375 819 l 0,103,104
 254 813 254 813 253.83203125 807 c 0,105,106
 251 762 251 762 249.115234375 717 c 1,107,108
 247 678 247 678 242.459960938 590 c 1,38,39
219.81640625 406 m 1,109,110
 110 314 110 314 45.1337890625 164 c 0,111,112
 -23 7 -23 7 74.853515625 6 c 1,113,114
 157 6 157 6 193.802734375 234 c 0,115,116
 206 311 206 311 219.81640625 406 c 1,109,110
EndSplineSet
EndChar

StartChar: uni042C
Encoding: 206 1068 207
Width: 723
GlyphClass: 2
Flags: W
LayerCount: 2
Fore
SplineSet
242.459960938 590 m 1,0,1
 239.891601562 541 239.891601562 541 234.82421875 492 c 128,-1,2
 229.755859375 443 229.755859375 443 228.280273438 422 c 1,3,4
 285.485351562 476 285.485351562 476 338.852539062 483 c 24,5,6
 453.690429688 499 453.690429688 499 530.856445312 464 c 0,7,8
 635.393554688 417 635.393554688 417 643.8984375 274 c 0,9,10
 652.243164062 147 652.243164062 147 580.416992188 74 c 0,11,12
 506.434570312 -2 506.434570312 -2 382.591796875 1 c 0,13,14
 305.696289062 3 305.696289062 3 270.639648438 21 c 0,15,16
 237.530273438 38 237.530273438 38 231.333007812 52.388671875 c 0,17,18
 227.788085938 62 227.788085938 62 233.102539062 68 c 24,19,20
 241.522460938 76 241.522460938 76 249.208007812 70 c 0,21,22
 329.90625 7 329.90625 7 382.899414062 6.87890625 c 0,23,24
 503.90625 7 503.90625 7 577.522460938 76 c 0,25,26
 645.928710938 141 645.928710938 141 635.451171875 275 c 0,27,28
 624.393554688 417 624.393554688 417 527.559570312 458.338867188 c 0,29,30
 451.271484375 491 451.271484375 491 339.538085938 477 c 24,31,32
 296.275390625 472 296.275390625 472 227.725585938 414 c 1,33,34
 214.51953125 324 214.51953125 324 200.751953125 233 c 0,35,36
 165.486328125 -1 165.486328125 -1 74.5390625 0 c 0,37,38
 -31.408203125 1 -31.408203125 1 38.1337890625 164 c 0,39,40
 101.995117188 314 101.995117188 314 220.236328125 414 c 1,41,-1
 228.84765625 502 l 0,42,-1
 232.677734375 556 l 1,43,44
 234.831054688 578 234.831054688 578 236.875 617 c 0,45,46
 242.115234375 717 242.115234375 717 248.146484375 813 c 1,47,-1
 225.045898438 792 l 2,48,49
 187.48046875 757.850585938 187.48046875 757.850585938 152.522460938 782 c 0,50,51
 130.360351562 798 130.360351562 798 115.9453125 771 c 1,52,-1
 111.102539062 774 l 0,53,54
 112.3125 778 112.3125 778 119.336914062 788 c 0,55,56
 131.727539062 805 131.727539062 805 158.784179688 787 c 0,57,58
 191.630859375 765 191.630859375 765 222.30859375 797 c 0,59,60
 241.356445312 817 241.356445312 817 242.408203125 818 c 128,-1,61
 243.4609375 819 243.4609375 819 250.934570312 818.5 c 0,62,-1
 254.4609375 819 l 0,63,64
 254.146484375 813 254.146484375 813 253.83203125 807 c 0,65,66
 251.473632812 762 251.473632812 762 249.115234375 717 c 1,67,68
 247.071289062 678 247.071289062 678 242.459960938 590 c 1,0,1
219.81640625 406 m 1,69,70
 109.995117188 314 109.995117188 314 45.1337890625 164 c 0,71,72
 -22.638671875 7.2666015625 -22.638671875 7.2666015625 74.853515625 6 c 1,73,74
 156.853515625 6 156.853515625 6 193.802734375 234 c 0,75,76
 205.837890625 311 205.837890625 311 219.81640625 406 c 1,69,70
EndSplineSet
EndChar

StartChar: uni042D
Encoding: 207 1069 208
Width: 606
GlyphClass: 2
Flags: W
LayerCount: 2
Fore
SplineSet
493.4609375 439 m 9,0,1
 496.146484375 433 l 17,2,-1
 453.045898438 412 l 2,3,4
 391 382 391 382 342.991210938 411.95703125 c 0,5,6
 277 454 277 454 227.998046875 391 c 1,7,-1
 223.102539062 394 l 0,8,9
 228 400 228 400 233.231445312 406 c 0,10,11
 276 459 276 459 347.26953125 416.259765625 c 0,12,13
 387 392 387 392 450.30859375 417 c 0,14,15
 463 422 463 422 493.4609375 439 c 9,0,1
100 708 m 17,16,17
 194 818 194 818 303 819.09765625 c 0,18,19
 374 820 374 820 431 752 c 0,20,21
 473 703 473 703 490 586 c 0,22,23
 499 521 499 521 497.23828125 446 c 0,24,25
 495 347 495 347 483 286 c 0,26,27
 466.1953125 205.127929688 466.1953125 205.127929688 417 119 c 0,28,29
 348 -2 348 -2 216 -0.396484375 c 0,30,31
 164 0 164 0 126.08984375 12.97265625 c 128,-1,32
 88 26 88 26 70 39 c 9,33,-1
 73 45 l 17,34,35
 101 28 101 28 129 18 c 24,36,37
 161 6 161 6 216 6.703125 c 0,38,39
 344 7 344 7 410 122 c 0,40,41
 461 210 461 210 476 288 c 0,42,43
 489 355 489 355 490.69921875 445 c 0,44,45
 492 513 492 513 482.5 583.5 c 0,46,47
 469 695 469 695 426 748 c 0,48,49
 372 815 372 815 303 813.774414062 c 0,50,51
 201 813 201 813 104 704 c 9,52,-1
 100 708 l 17,16,17
EndSplineSet
EndChar

StartChar: uni042E
Encoding: 208 1070 209
Width: 1058
GlyphClass: 2
Flags: W
LayerCount: 2
Fore
SplineSet
473.073242188 512 m 9,0,1
 478.586914062 508 l 17,2,3
 448 457 448 457 422.212890625 444.435546875 c 0,4,5
 386 426 386 426 332.916992188 435.982421875 c 0,6,7
 301 441 301 441 273.047851562 430 c 1,8,9
 268 370 268 370 247.82421875 233 c 0,10,11
 214 1 214 1 125.678710938 0 c 0,12,13
 52 -1 52 -1 54.1796875 67 c 0,14,15
 55 105 55 105 79.41015625 164 c 1,16,17
 167 399 167 399 266.971679688 435 c 1,18,19
 270 488 270 488 271.224609375 502 c 0,20,-1
 275.436523438 576 l 0,21,22
 276 578 276 578 277.244140625 617 c 0,23,24
 281 717 281 717 285.094726562 813 c 1,25,-1
 262.361328125 792 l 2,26,27
 225.318427452 757.781582711 225.318427452 757.781582711 190.010742188 782 c 0,28,29
 168 798 168 798 153.626953125 771 c 1,30,-1
 148.731445312 774 l 0,31,32
 150 778 150 778 156.720703125 788 c 0,33,34
 169 805 169 805 196.186523438 787 c 0,35,36
 229 765 229 765 259.53515625 797 c 0,37,38
 278 817 278 817 279.26953125 818 c 0,39,40
 280 819 280 819 287.787109375 818.5 c 0,41,-1
 291.3046875 819 l 0,42,43
 291 813 291 813 290.884765625 807 c 0,44,45
 290 762 290 762 287.739257812 717 c 1,46,47
 286 678 286 678 283.30078125 590 c 1,48,49
 281 581 281 581 278.259765625 503 c 0,50,51
 278 491 278 491 273.717773438 438 c 1,52,53
 297 448 297 448 335.146484375 442.55859375 c 0,54,55
 388 435 388 435 418.424804688 450.513671875 c 0,56,57
 442 463 442 463 473.073242188 512 c 9,0,1
266.038085938 427 m 1,58,59
 173.485351562 395 173.485351562 395 85.3408203125 162 c 0,60,61
 62.2783203125 103 62.2783203125 103 61.5595703125 66 c 0,62,63
 59.748046875 2 59.748046875 2 125.887695312 6 c 1,64,65
 207.887695312 6 207.887695312 6 240.857421875 234 c 0,66,67
 257.981445312 352 257.981445312 352 266.038085938 427 c 1,58,59
595 12 m 0,68,69
 479 55 479 55 456 201 c 0,70,71
 437 327 437 327 460 453 c 0,72,73
 490 619 490 619 571 708 c 0,74,75
 637 781 637 781 722.5 811 c 0,76,77
 737 816 737 816 780 818 c 0,78,79
 871 822 871 822 861 781.5 c 0,80,81
 859 773 859 773 864 771 c 0,82,83
 892 763 892 763 902 752 c 0,84,85
 943 710 943 710 961 586 c 0,86,87
 970 521 970 521 968.23828125 446 c 0,88,89
 966 355 966 355 954 286 c 0,90,91
 941.505894413 209.47360328 941.505894413 209.47360328 888 119 c 0,92,93
 816.252669517 -1.59657676925 816.252669517 -1.59657676925 687 -0.396484375 c 0,94,95
 627 0 627 0 595 12 c 0,68,69
881 122 m 0,96,97
 932 210 932 210 947 288 c 0,98,99
 960 355 960 355 961.69921875 445 c 0,100,101
 963 513 963 513 953.5 583.5 c 0,102,103
 937 709 937 709 891 748 c 0,104,105
 874 762 874 762 860 762 c 0,106,107
 842 762 842 762 849 775 c 0,108,109
 873 816 873 816 766 811 c 0,110,111
 681 807 681 807 577 703 c 0,112,113
 501 627 501 627 467 451 c 0,114,115
 445 337 445 337 463 203 c 0,116,117
 481 63 481 63 600 18 c 0,118,119
 632 6 632 6 687 6.703125 c 0,120,121
 814.571624292 7.26007832297 814.571624292 7.26007832297 881 122 c 0,96,97
EndSplineSet
EndChar

StartChar: uni042F
Encoding: 209 1071 210
Width: 765
GlyphClass: 2
Flags: W
LayerCount: 2
Fore
SplineSet
604 815 m 1,0,-1
 608 815 l 1,1,-1
 590.461914062 686.384765625 l 1,2,-1
 589.0703125 673.166015625 l 2,3,4
 588 659 588 659 586.721679688 644 c 0,5,6
 583.329101562 635.26171875 583.329101562 635.26171875 577.776367188 564.875 c 0,7,8
 574 517 574 517 571.840820312 492 c 0,9,10
 572 487 572 487 561.4609375 362 c 1,11,-1
 555.017578125 227 l 1,12,13
 553 7 553 7 623 6 c 0,14,15
 648 6 648 6 676 41 c 0,16,17
 690 58 690 58 692 59.5 c 0,18,19
 695 61 695 61 701 61 c 0,20,21
 705 61 705 61 710 56 c 0,22,23
 712 54 712 54 712 50 c 0,24,25
 712 45 712 45 709.134765625 40 c 0,26,27
 706 35 706 35 695 28 c 0,28,29
 650 0 650 0 622.599609375 0 c 0,30,31
 544 0 544 0 547.28515625 228 c 1,32,-1
 554.130859375 362 l 1,33,-1
 565.236328125 493.776367188 l 1,34,35
 555 445 555 445 534 372 c 0,36,37
 507 280 507 280 448.77734375 202 c 0,38,39
 387 118 387 118 290 49.068359375 c 0,40,41
 220 -1 220 -1 143 -1 c 0,42,43
 86 -1 86 -1 65 21 c 0,44,45
 48.3349609375 38.6455078125 48.3349609375 38.6455078125 46 69 c 2,46,-1
 44 95 l 1,47,48
 51 99 51 99 51 95 c 0,49,50
 51 94 51 94 53 69 c 0,51,52
 55 40 55 40 70 26 c 0,53,54
 93 5 93 5 141 6 c 0,55,56
 218 8 218 8 285 55.6650390625 c 0,57,58
 378 123 378 123 439.795898438 206 c 0,59,60
 495 280 495 280 526 374 c 0,61,62
 545 431 545 431 554 477 c 1,63,64
 543 441 543 441 531 426 c 0,65,66
 509 398 509 398 488 385.369140625 c 0,67,68
 470 375 470 375 427 374 c 0,69,70
 347 372 347 372 304 437.5 c 0,71,72
 262 501 262 501 261 595 c 0,73,74
 260 687 260 687 344 761 c 0,75,76
 411 820 411 820 512 819 c 0,77,78
 586 818 586 818 592.883789062 787.567382812 c 1,79,80
 595 802 595 802 597 815 c 1,81,-1
 604 815 l 1,0,-1
574.69140625 609.299804688 m 0,82,83
 575.915039062 622.125 575.915039062 622.125 579.2734375 653.498046875 c 0,84,85
 579.64453125 657.71484375 579.64453125 657.71484375 580 662 c 0,86,87
 584.330078125 715.58984375 584.330078125 715.58984375 588.954101562 755.994140625 c 0,88,89
 588.854492188 776.724609375 588.854492188 776.724609375 586 786 c 0,90,91
 578 812 578 812 509 812 c 0,92,93
 412 812 412 812 350 756 c 0,94,95
 267 682 267 682 268.5 591.5 c 128,-1,96
 270 501 270 501 310 441 c 0,97,98
 349 381 349 381 428 381 c 0,99,100
 467 381 467 381 484 391 c 0,101,102
 510 406 510 406 525.962890625 430.443359375 c 0,103,104
 559.416015625 482.713867188 559.416015625 482.713867188 574.69140625 609.299804688 c 0,82,83
EndSplineSet
EndChar

StartChar: uni0431
Encoding: 211 1073 212
Width: 467
GlyphClass: 2
Flags: W
LayerCount: 2
Fore
SplineSet
457 823.162109375 m 0,0,1
 415 823 415 823 373 845 c 0,2,3
 332 866 332 866 306 865.0859375 c 0,4,5
 188 861 188 861 184.59375 758 c 0,6,7
 184 740 184 740 192 713 c 0,8,9
 201 682 201 682 237 650 c 0,10,11
 277 615 277 615 297 593.25 c 0,12,13
 383 500 383 500 377.314287666 300 c 0,14,15
 372 132 372 132 309.546875 48 c 0,16,17
 278 5 278 5 201.924804688 0.5 c 0,18,19
 143 -3 143 -3 109.0703125 19 c 0,20,21
 62 50 62 50 47.59765625 120 c 0,22,23
 16 272 16 272 124.458007812 431 c 0,24,25
 168 495 168 495 236.587890625 492 c 0,26,27
 290 490 290 490 321.541015625 462 c 1,28,-1
 318.37109375 457.143554688 l 17,29,30
 287 484 287 484 237.413085938 487 c 0,31,32
 173 491 173 491 129 427 c 0,33,34
 26 276 26 276 53.6669921875 122 c 0,35,36
 65 59 65 59 113.245117188 24 c 0,37,38
 144 2 144 2 201.616210938 6 c 0,39,40
 274 11 274 11 304.72265625 52 c 0,41,42
 365 133 365 133 372.104007545 300 c 0,43,44
 381 491 381 491 292 589 c 24,45,46
 272 611 272 611 233 645.454101562 c 0,47,48
 198 675 198 675 186.7109375 710 c 0,49,50
 179 733 179 733 179.001953125 758 c 1,51,52
 185 870 185 870 306 870.755419544 c 0,53,54
 337 871 337 871 376 851 c 0,55,56
 418 829 418 829 456 828.735351562 c 0,57,58
 516 829 516 829 544 864 c 0,59,60
 558 881 558 881 560 882.5 c 0,61,62
 563 884 563 884 569 884 c 0,63,64
 573 884 573 884 578 879 c 0,65,66
 580 877 580 877 580 873 c 0,67,68
 580 868 580 868 577.134765625 863 c 0,69,70
 574 858 574 858 563 851 c 0,71,72
 518 823 518 823 457 823.162109375 c 0,0,1
EndSplineSet
EndChar

StartChar: uni0433
Encoding: 213 1075 214
Width: 451
GlyphClass: 2
Flags: W
LayerCount: 2
Fore
SplineSet
83.2255859375 68 m 0,0,1
 82.8696549624 154.779361548 82.8696549624 154.779361548 186.078125 241 c 0,2,3
 261 305 261 305 273.280273438 322 c 0,4,5
 301 362 301 362 302.495117188 410 c 8,6,7
 304 486 304 486 216 485 c 0,8,9
 96 484 96 484 67 342 c 1,10,-1
 54 343 l 1,11,12
 92 488 92 488 216 491 c 0,13,14
 307 493 307 493 307.577148438 413 c 0,15,16
 308 360 308 360 278.971679688 319 c 0,17,18
 264 298 264 298 194.138671875 238 c 1,19,20
 93.6043715825 157.774832029 93.6043715825 157.774832029 89.2734375 72 c 4,21,22
 87 6 87 6 198.481445312 5.97265625 c 128,-1,23
 310 6 310 6 370 127 c 1,24,-1
 375 125 l 1,25,26
 314 0 314 0 198 -0.119140625 c 0,27,28
 84 0 84 0 83.2255859375 68 c 0,0,1
EndSplineSet
EndChar

StartChar: uni0436
Encoding: 216 1078 217
Width: 807
GlyphClass: 2
Flags: W
LayerCount: 2
Fore
SplineSet
500.045898438 166.678710938 m 0,0,1
 500 188 500 188 502.262695312 214 c 0,2,3
 506 253 506 253 514.306640625 303 c 0,4,5
 520 334 520 334 524 352 c 1,6,7
 413 150 413 150 355 39 c 1,8,-1
 351 39 l 1,9,-1
 415 470 l 1,10,11
 345 343 345 343 274.403320312 216 c 0,12,13
 240 154 240 154 233.599609375 135 c 0,14,15
 209 63 209 63 182.733398438 34.5234375 c 0,16,17
 150 0 150 0 113 -0.1103515625 c 0,18,19
 97 0 97 0 80 3.22265625 c 0,20,21
 19 15 19 15 19 56 c 0,22,23
 19 58 19 58 23.5 60 c 128,-1,24
 28 62 28 62 30 64 c 1,25,26
 53 16 53 16 82 9.404296875 c 0,27,28
 99 6 99 6 114 5.9296875 c 0,29,30
 148 6 148 6 177.231445312 38 c 0,31,32
 207 70 207 70 226.390625 137 c 0,33,34
 234 162 234 162 239 190 c 0,35,36
 245 223 245 223 251.80078125 278 c 0,37,38
 255 305 255 305 251.758789062 352 c 0,39,40
 242 483 242 483 155 485 c 0,41,42
 128 485 128 485 81 436 c 0,43,-1
 77 438.5 l 0,44,45
 75 440 75 440 76 441 c 0,46,47
 126 491 126 491 155 490.8046875 c 0,48,49
 249 491 249 491 258.490234375 354 c 0,50,51
 261 317 261 317 258.28515625 278 c 0,52,53
 255 228 255 228 242 168 c 1,54,55
 251.361288438 185.802368904 251.361288438 185.802368904 268.739257812 218 c 0,56,57
 345 352 345 352 417 481 c 5,58,59
 420 481 420 481 421 480 c 1,60,61
 419 468 419 468 417 455 c 0,62,63
 385 243 385 243 383 228 c 1,64,-1
 359 57 l 1,65,-1
 508 333 l 0,66,67
 525 366 525 366 544 417.956054688 c 0,68,69
 571 491 571 491 634 490.879882812 c 0,70,71
 681 491 681 491 705 478 c 128,-1,72
 729 465 729 465 741 436 c 0,73,74
 741 434 741 434 739.5 433 c 128,-1,75
 738 432 738 432 736 430 c 1,76,77
 723 461 723 461 703 472 c 0,78,79
 679 485 679 485 635.583984375 484.590820312 c 0,80,81
 576 484 576 484 549 414.796875 c 1,82,-1
 531.17578125 355 l 2,83,84
 527.396048699 342.319713809 527.396048699 342.319713809 520 299 c 0,85,86
 509.969159643 237.381980661 509.969159643 237.381980661 508.19921875 214 c 0,87,88
 506 178 506 178 508.543945312 136 c 0,89,90
 512 90 512 90 534.080078125 54 c 0,91,92
 562 8 562 8 609 6 c 0,93,94
 634 5 634 5 664 41 c 0,95,96
 678 58 678 58 680 59.5 c 0,97,98
 683 61 683 61 689 61 c 0,99,100
 693 61 693 61 698 56 c 0,101,102
 700 54 700 54 700 50 c 0,103,104
 700 45 700 45 697.134765625 40 c 0,105,106
 694 35 694 35 683 28 c 0,107,108
 638 0 638 0 610.599609375 0 c 0,109,110
 558 0 558 0 527.698242188 50 c 0,111,112
 508 82 508 82 501.8671875 134 c 0,113,114
 500 149 500 149 500.045898438 166.678710938 c 0,0,1
EndSplineSet
EndChar

StartChar: uni0437
Encoding: 217 1079 218
Width: 442
GlyphClass: 2
Flags: W
LayerCount: 2
Fore
SplineSet
84.4697265625 345 m 17,0,1
 104 397 104 397 126.870117188 431 c 0,2,3
 169 492 169 492 231 491 c 0,4,5
 328 490 328 490 327 390.5 c 0,6,7
 326 293 326 293 272.08203125 233 c 0,8,9
 239 196 239 196 203 168 c 1,10,-1
 199 173 l 1,11,12
 240 207 240 207 267 236.25 c 0,13,14
 319 293 319 293 320.891601562 389 c 0,15,16
 322.953125 481.901367188 322.953125 481.901367188 231.825195312 485 c 0,17,18
 172 487 172 487 130.897460938 427 c 0,19,20
 111.982421875 399.743164062 111.982421875 399.743164062 89.365234375 342 c 9,21,-1
 84.4697265625 345 l 17,0,1
199 173 m 1,22,23
 321 229 321 229 338.28125 26 c 1,24,25
 340 -17 340 -17 344.723632812 -60 c 0,26,27
 369 -290 369 -290 260.05078125 -337 c 0,28,29
 157 -382 157 -382 65.2470703125 -360 c 0,30,31
 7 -346 7 -346 -13.958984375 -280 c 0,32,-1
 -23.2822265625 -232 l 0,33,34
 -28 -204 -28 -204 -18.990234375 -195 c 0,35,36
 -13 -189 -13 -189 -3.47265625 -194.5 c 0,37,38
 -1 -196 -1 -196 0.537109375 -205 c 0,39,40
 1 -208 1 -208 -4.0380859375 -225 c 0,41,42
 -12 -255 -12 -255 -6.8544921875 -277 c 0,43,44
 8 -340 8 -340 66.421875 -355 c 0,45,46
 156.750976562 -377.953125 156.750976562 -377.953125 257.243164062 -331.5 c 0,47,48
 362 -283 362 -283 338.654296875 -62 c 0,49,50
 338 -58 338 -58 331.641601562 24 c 0,51,52
 318 223 318 223 203 168 c 1,53,-1
 199 173 l 1,22,23
EndSplineSet
EndChar

StartChar: uni0439
Encoding: 219 1081 220
Width: 536
GlyphClass: 2
Flags: W
LayerCount: 2
Fore
SplineSet
427 624 m 1,0,-1
 432 621 l 17,1,2
 398 568 398 568 268 563 c 0,3,4
 245.896484375 561.987304688 245.896484375 561.987304688 227 568 c 0,5,6
 186 582 186 582 188 596 c 0,7,8
 191 614 191 614 214 597 c 0,9,10
 249 571 249 571 290 572 c 0,11,12
 392 575 392 575 427 624 c 1,0,-1
EndSplineSet
Refer: 263 -1 N 1 0 0 1 3 0 2
EndChar

StartChar: uni043A
Encoding: 220 1082 221
Width: 551
GlyphClass: 2
Flags: W
LayerCount: 2
Fore
SplineSet
158.932617188 317 m 1,0,1
 181 299 181 299 230 296.377192982 c 0,2,3
 342 291 342 291 345 181 c 0,4,-1
 342 123 l 24,5,6
 343 7 343 7 392 7 c 0,7,8
 419 7 419 7 446 41 c 0,9,10
 460 58 460 58 462 59.5 c 0,11,12
 465 61 465 61 471 61 c 0,13,14
 475 61 475 61 480 56 c 0,15,16
 482 54 482 54 482 50 c 0,17,18
 482 45 482 45 479.134765625 40 c 0,19,20
 476 35 476 35 465 28 c 0,21,22
 420 0 420 0 392.599609375 0 c 0,23,24
 337 -0 337 -0 335 121 c 0,25,-1
 337 180 l 24,26,27
 336 287 336 287 228 292.066646008 c 0,28,29
 175 294 175 294 154.231445312 312 c 1,30,31
 127 282 127 282 100 189 c 1,32,33
 93 169 93 169 84 72 c 2,34,-1
 77 0 l 1,35,-1
 60 0 l 1,36,37
 79 116 79 116 87.044921875 169 c 0,38,39
 95 227 95 227 95.2711321948 227 c 2,40,-1
 122.456054688 473 l 1,41,-1
 123.389648438 491 l 1,42,-1
 129.456054688 491 l 1,43,-1
 128 473 l 2,44,45
 119.756871804 371.097022867 119.756871804 371.097022867 101 220 c 1,46,47
 123 287 123 287 154 322 c 0,48,49
 226 405 226 405 363 460.54151913 c 0,50,51
 391 472 391 472 427 486 c 1,52,-1
 429 480 l 1,53,54
 393 466 393 466 364 454.012787156 c 0,55,56
 222 396 222 396 158.932617188 317 c 1,0,1
EndSplineSet
EndChar

StartChar: uni043B
Encoding: 221 1083 222
Width: 540
GlyphClass: 2
Flags: W
LayerCount: 2
Fore
SplineSet
347 490.879882812 m 0,0,-1
 354 490.879882812 l 1,1,2
 351 457 351 457 343.4609375 362 c 0,3,-1
 337.017578125 227 l 16,4,5
 335 7 335 7 405 6 c 4,6,7
 430 6 430 6 458 41 c 4,8,9
 472 58 472 58 474 59.5 c 4,10,11
 477 61 477 61 483 61 c 4,12,13
 487 61 487 61 492 56 c 4,14,15
 494 54 494 54 494 50 c 4,16,17
 494 45 494 45 491.134765625 40 c 4,18,19
 488 35 488 35 477 28 c 4,20,21
 432 0 432 0 404.599609375 0 c 4,22,23
 326 0 326 0 329.28515625 228 c 24,24,-1
 336.130859375 362 l 0,25,-1
 347 490.879882812 l 0,0,-1
25 55 m 9,26,27
 31 57 l 17,28,29
 33 42 33 42 49 25 c 0,30,31
 68 5 68 5 99 5 c 0,32,33
 206 5 206 5 280.567382812 237 c 0,34,35
 302 302 302 302 320.73828125 378 c 0,36,37
 347 483 347 483 347.294921875 491 c 9,38,-1
 354.063476562 491 l 17,39,40
 344 439 344 439 328.431640625 376 c 0,41,42
 312 309 312 309 287.111328125 235 c 0,43,44
 208 0 208 0 99 -1 c 0,45,46
 65 -1 65 -1 44 21 c 0,47,48
 27 39 27 39 25 55 c 9,26,27
EndSplineSet
EndChar

StartChar: uni043C
Encoding: 222 1084 223
Width: 745
GlyphClass: 2
Flags: W
LayerCount: 2
Fore
SplineSet
367.674804688 18 m 4,0,1
 345 -4 345 -4 330.291992188 25 c 4,2,3
 305 75 305 75 307.28515625 228 c 12,4,-1
 313.130859375 362 l 4,5,-1
 323 490.879882812 l 4,6,-1
 330 490.879882812 l 5,7,8
 327 457 327 457 319.4609375 362 c 4,9,-1
 313.017578125 227 l 20,10,11
 311 74 311 74 335.711914062 27 c 4,12,13
 347 6 347 6 363.423828125 21 c 4,14,15
 423 77 423 77 477.567382812 237 c 4,16,17
 514.803196586 346.181160919 514.803196586 346.181160919 522.73828125 378 c 0,18,19
 547.157799587 483.095944427 547.157799587 483.095944427 547.294921875 491 c 9,20,-1
 554.063476562 491 l 17,21,22
 544 439 544 439 528.431640625 376 c 0,23,24
 522 351 522 351 483.111328125 235 c 4,25,26
 430 78 430 78 367.674804688 18 c 4,0,1
15 55 m 9,27,-1
 21 57 l 17,28,29
 23 42 23 42 39 25 c 0,30,31
 58 5 58 5 89 5 c 0,32,33
 180 5 180 5 257.567382812 237 c 4,34,35
 283 314 283 314 298.73828125 378 c 4,36,37
 323 474 323 474 323.294921875 491 c 13,38,-1
 330.063476562 491 l 21,39,40
 320 439 320 439 304.431640625 376 c 4,41,42
 288 309 288 309 263.111328125 235 c 4,43,44
 184 -0 184 -0 89 -1 c 0,45,46
 55 -1 55 -1 34 21 c 0,47,48
 17 39 17 39 15 55 c 9,27,-1
547 490.879882812 m 0,49,-1
 554 490.879882812 l 1,50,51
 551 457 551 457 543.4609375 362 c 0,52,-1
 537.017578125 227 l 16,53,54
 535 7 535 7 605 6 c 0,55,56
 630 6 630 6 658 41 c 0,57,58
 672 58 672 58 674 59.5 c 0,59,60
 677 61 677 61 683 61 c 0,61,62
 687 61 687 61 692 56 c 0,63,64
 694 54 694 54 694 50 c 0,65,66
 694 45 694 45 691.134765625 40 c 0,67,68
 688 35 688 35 677 28 c 0,69,70
 632 0 632 0 604.599609375 0 c 0,71,72
 528 0 528 0 531.28515625 228 c 24,73,-1
 537.130859375 362 l 0,74,-1
 547 490.879882812 l 0,49,-1
EndSplineSet
EndChar

StartChar: uni043D
Encoding: 223 1085 224
Width: 535
GlyphClass: 2
Flags: W
LayerCount: 2
Fore
SplineSet
45.0927734375 -0.4990234375 m 21,0,1
 52 74 52 74 59.6435546875 127 c 4,2,3
 64 158 64 158 66 179 c 4,4,5
 69 215 69 215 107 490.879882812 c 5,6,7
 113 491 113 491 116 490.879882812 c 5,8,9
 103 409 103 409 91.2587890625 327 c 4,10,11
 76 215 76 215 75 204 c 5,12,13
 80 228 80 228 101 244.734375 c 4,14,15
 151 286 151 286 184.5 271.5 c 4,16,17
 203 263 203 263 236 263.60546875 c 4,18,19
 275 264 275 264 312 291.168945312 c 4,20,21
 340 312 340 312 347 344 c 5,22,23
 360 464 360 464 365 491 c 5,24,25
 374 491 374 491 383 490.879882812 c 5,26,27
 367 427 367 427 354 336 c 4,28,29
 337 215 337 215 336.024414062 189 c 4,30,31
 336 188 336 188 326 79 c 4,32,33
 319 5 319 5 369 5 c 4,34,35
 397 5 397 5 426 41 c 4,36,37
 440 58 440 58 442 59.5 c 4,38,39
 445 61 445 61 451 61 c 4,40,41
 455 61 455 61 460 56 c 4,42,43
 462 54 462 54 462 50 c 4,44,45
 462 45 462 45 459.134765625 40 c 4,46,47
 456 35 456 35 445 28 c 4,48,49
 400 0 400 0 372.599609375 0 c 4,50,51
 315 0 315 0 319 64 c 20,52,53
 323 127 323 127 329.275390625 190 c 4,54,55
 336 253 336 253 344 315 c 5,56,57
 340 303 340 303 315 285.844726562 c 4,58,59
 278 259 278 259 235 257.323242188 c 4,60,61
 208 256 208 256 182 266.619140625 c 4,62,63
 151 279 151 279 104.254882812 240 c 4,64,65
 82 222 82 222 73.7373046875 176 c 4,66,67
 71 161 71 161 66.794921875 127 c 4,68,69
 59 64 59 64 51.8427734375 0 c 13,70,-1
 45.0927734375 -0.4990234375 l 21,0,1
EndSplineSet
EndChar

StartChar: uni0444
Encoding: 230 1092 231
Width: 633
GlyphClass: 2
Flags: W
LayerCount: 2
Fore
SplineSet
338.450195312 409 m 0,0,-1
 341 410 l 1,1,2
 345 416 345 416 358.453125 438 c 0,3,4
 387 485 387 485 453.075195312 490.5 c 0,5,6
 532 497 532 497 560.40234375 377 c 0,7,8
 575 316 575 316 575.184570312 258 c 0,9,10
 575 153 575 153 526.541992188 61 c 0,11,12
 492 -3 492 -3 418.412109375 0 c 0,13,14
 379 2 379 2 345.958984375 29 c 0,15,16
 310 58 310 58 292.513671875 75 c 1,17,-1
 296 84 l 0,18,19
 322 57 322 57 349.62890625 34.8564453125 c 0,20,21
 386 6 386 6 417.586914062 5 c 0,22,23
 489 3 489 3 522.514648438 65 c 0,24,25
 569 151 569 151 569.119140625 257 c 0,26,27
 569 303 569 303 554.333007812 375 c 0,28,29
 531 489 531 489 453.383789062 485 c 0,30,31
 399 482 399 482 363.27734375 434 c 0,32,33
 341 404 341 404 338.525390625 398 c 1,34,-1
 338.450195312 409 l 0,0,-1
261 -378 m 9,35,-1
 241 -378 l 1,36,37
 273 -107 273 -107 274.97265625 -93 c 0,38,39
 291 18 291 18 295.416015625 102 c 0,40,41
 297 124 297 124 330.662270641 361 c 0,42,43
 333 373 333 373 343 473 c 1,44,-1
 350 473 l 1,45,46
 344 417 344 417 337.076171875 361 c 0,47,48
 318 206 318 206 301.752929688 102 c 0,49,50
 300 88 300 88 282.325195312 -94 c 0,51,52
 261 -317 261 -317 261 -378 c 9,35,-1
298.549804688 90 m 0,53,54
 298 88 298 88 298.876953125 83 c 1,55,56
 289 63 289 63 277.546875 48 c 0,57,58
 246 5 246 5 169.924804688 0.5 c 0,59,60
 128 -2 128 -2 96.0703125 19 c 0,61,62
 40 56 40 56 39.9853515625 141 c 0,63,64
 40 268 40 268 76.0576171875 365 c 0,65,66
 125 497 125 497 223.587890625 492 c 0,67,68
 258 490 258 490 289.541015625 462.5 c 0,69,70
 330 428 330 428 338.486328125 409 c 1,71,72
 339.167478034 405.033737701 339.167478034 405.033737701 337.270507812 406 c 0,73,74
 318 432 318 432 286.37109375 457.143554688 c 0,75,76
 253 486 253 486 224.413085938 487 c 0,77,78
 128.283640654 490.484603065 128.283640654 490.484603065 80.953125 362 c 0,79,80
 45 266 45 266 44.7861328125 140 c 0,81,82
 45 59 45 59 100.245117188 24 c 0,83,84
 135 2 135 2 169.616210938 6 c 0,85,86
 247 14 247 14 272.72265625 52 c 0,87,88
 286 70 286 70 297.474609375 94 c 1,89,-1
 298.549804688 90 l 0,53,54
EndSplineSet
EndChar

StartChar: uni0446
Encoding: 232 1094 233
Width: 627
GlyphClass: 2
Flags: W
LayerCount: 2
Fore
SplineSet
364 0 m 1052,0,-1
367 0 m 4,1,2
 313 1 313 1 319 64 c 1,3,4
 304 1 304 1 174 0.23828125 c 0,5,6
 106 0 106 0 69 42 c 0,7,8
 37 78 37 78 43 196 c 16,9,10
 47 274 47 274 88 481 c 0,11,12
 89 486 89 486 90.25 490.75 c 1,13,14
 92 491 92 491 93 491 c 0,15,16
 96 491 96 491 96 490.879882812 c 1,17,18
 95 487 95 487 94 481 c 0,19,20
 54 273 54 273 49 197 c 24,21,22
 43 82 43 82 73 47 c 0,23,24
 108 7 108 7 175 5.9052734375 c 0,25,26
 303 3 303 3 318 80 c 0,27,28
 320 90 320 90 321.760742188 101 c 0,29,30
 335 182 335 182 337.286132812 212 c 0,31,32
 346 317 346 317 370 490.879882812 c 1,33,34
 374 491 374 491 377 490.879882812 c 0,35,36
 380 491 380 491 383 490.879882812 c 1,37,38
 374 418 374 418 345.819335938 212 c 0,39,-1
 326 79 l 0,40,41
 317 6 317 6 366 6 c 12,42,43
 390 6 390 6 410 26 c 4,44,45
 430 45 430 45 462 0 c 28,46,-1
 477 -26 l 28,47,48
 500 -6 500 -6 523.46484375 22 c 4,49,50
 546 49 546 49 551 50.5 c 132,-1,51
 556 52 556 52 560 52 c 132,-1,52
 564 52 564 52 569 47 c 4,53,54
 571 45 571 45 571 41 c 4,55,56
 571 36 571 36 568.134765625 31 c 4,57,58
 565 26 565 26 554 19 c 4,59,-1
 533 7.830078125 l 4,60,61
 494 -16 494 -16 480 -29 c 13,62,63
 480.5 -30 l 4,64,65
 541 -122 541 -122 540.940429688 -145 c 4,66,67
 541 -192 541 -192 469 -194 c 4,68,69
 388 -197 388 -197 411 -119 c 4,70,71
 420 -88 420 -88 473 -30 c 5,72,-1
 457 -3 l 4,73,74
 430 38 430 38 411 19 c 4,75,76
 391 -1 391 -1 367 0 c 4,1,2
468 -188 m 4,77,78
 534 -185 534 -185 534.453125 -144 c 4,79,80
 535 -124 535 -124 476 -34 c 5,81,82
 425 -92 425 -92 417 -120 c 28,83,84
 397 -191 397 -191 468 -188 c 4,77,78
EndSplineSet
EndChar

StartChar: uni0447
Encoding: 233 1095 234
Width: 488
GlyphClass: 2
Flags: W
LayerCount: 2
Fore
SplineSet
279 71 m 0,0,1
 298 212 l 2,2,3
 306.211914062 272.939453125 306.211914062 272.939453125 330 490.879882812 c 1,4,5
 334 491 334 491 337 490.879882812 c 0,6,7
 340 491 340 491 343 490.879882812 c 1,8,9
 324 398 324 398 303.819335938 212 c 0,10,-1
 286 79 l 24,11,12
 280 5 280 5 329 5 c 0,13,14
 357 5 357 5 386 41 c 0,15,16
 400 58 400 58 402 59.5 c 0,17,18
 405 61 405 61 411 61 c 0,19,20
 415 61 415 61 420 56 c 0,21,22
 422 54 422 54 422 50 c 0,23,24
 422 45 422 45 419.134765625 40 c 0,25,26
 416 35 416 35 405 28 c 0,27,28
 360 0 360 0 332.599609375 0 c 0,29,30
 273 0 273 0 279 71 c 0,0,1
309 297.907226562 m 9,31,32
 310 290.346679688 l 17,33,34
 286 234 286 234 169 233.23828125 c 0,35,36
 105 233 105 233 65 278 c 0,37,38
 40 306 40 306 40.384765625 376 c 0,39,40
 40 431 40 431 50 481 c 0,41,42
 51 486 51 486 52.25 490.75 c 1,43,44
 54 491 54 491 55 491 c 0,45,46
 58 491 58 491 58 490.879882812 c 1,47,48
 57 487 57 487 56 481 c 0,49,50
 46 431 46 431 46.109375 377 c 4,51,52
 46.2428853768 311.084019669 46.2428853768 311.084019669 69.5 283.5 c 0,53,54
 107 239 107 239 170 238.905273438 c 0,55,56
 285 239 285 239 309 297.907226562 c 9,31,32
EndSplineSet
EndChar

StartChar: uni0448
Encoding: 234 1096 235
Width: 725
GlyphClass: 2
Flags: W
LayerCount: 2
Fore
SplineSet
293 118 m 13,0,1
 297 107 l 21,2,3
 281 1 281 1 162 0.23828125 c 4,4,5
 114 0 114 0 77 42 c 4,6,7
 45 78 45 78 51 196 c 20,8,9
 55 274 55 274 96 481 c 4,10,11
 97 486 97 486 98.25 490.75 c 5,12,13
 100 491 100 491 101 491 c 4,14,15
 104 491 104 491 104 490.879882812 c 5,16,17
 103 487 103 487 102 481 c 4,18,19
 61 273 61 273 57 197 c 4,20,21
 51 82 51 82 81 47 c 4,22,23
 116 7 116 7 163 5.9052734375 c 4,24,25
 277 4 277 4 293 118 c 13,0,1
326.25 490.75 m 5,26,27
 328 491 328 491 339 491 c 4,28,29
 342 491 342 491 342 490.879882812 c 5,30,31
 343 488 343 488 340 481 c 4,32,33
 338 476 338 476 326.81640625 389 c 4,34,35
 304.543945312 214.932617188 304.543945312 214.932617188 299.487304688 129 c 4,36,37
 292.353515625 7.783203125 292.353515625 7.783203125 385 5.9052734375 c 4,38,39
 493 3 493 3 508 80 c 4,40,41
 510 90 510 90 511.760742188 101 c 4,42,43
 526 197 526 197 527.286132812 212 c 4,44,45
 540 317 540 317 560 490.879882812 c 5,46,47
 564 491 564 491 567 490.879882812 c 4,48,49
 570 491 570 491 573 490.879882812 c 5,50,51
 564 418 564 418 535.819335938 212 c 4,52,-1
 516 79 l 28,53,54
 510 5 510 5 559 5 c 4,55,56
 587 5 587 5 616 41 c 4,57,58
 630 58 630 58 632 59.5 c 4,59,60
 635 61 635 61 641 61 c 4,61,62
 645 61 645 61 650 56 c 4,63,64
 652 54 652 54 652 50 c 4,65,66
 652 45 652 45 649.134765625 40 c 4,67,68
 646 35 646 35 635 28 c 4,69,70
 590 0 590 0 562.599609375 0 c 4,71,72
 505 0 505 0 509 64 c 5,73,74
 494 1 494 1 384 0.23828125 c 4,75,76
 287.838867188 -0.150390625 287.838867188 -0.150390625 292.634765625 129 c 4,77,78
 295.895507812 216.822265625 295.895507812 216.822265625 316.240234375 390 c 4,79,80
 325 464 325 464 324 481 c 4,81,82
 324 482 324 482 326.25 490.75 c 5,26,27
EndSplineSet
EndChar

StartChar: uni0449
Encoding: 235 1097 236
Width: 725
GlyphClass: 2
Flags: W
LayerCount: 2
Fore
SplineSet
558 0 m 4,0,1
 505 0 505 0 509 64 c 1,2,3
 494 1 494 1 384 0.23828125 c 0,4,5
 288 -0 288 -0 292.634765625 129 c 0,6,7
 296 217 296 217 316.240234375 390 c 0,8,9
 325 464 325 464 324 481 c 0,10,11
 324 482 324 482 326.25 490.75 c 1,12,13
 328 491 328 491 339 491 c 0,14,15
 342 491 342 491 342 490.879882812 c 1,16,17
 343 488 343 488 340 481 c 0,18,19
 338 476 338 476 326.81640625 389 c 0,20,21
 305 215 305 215 299.487304688 129 c 0,22,23
 292 8 292 8 385 5.9052734375 c 0,24,25
 493 3 493 3 508 80 c 0,26,27
 510 90 510 90 511.760742188 101 c 0,28,29
 525 182 525 182 527.286132812 212 c 0,30,31
 536 317 536 317 560 490.879882812 c 1,32,33
 564 491 564 491 567 490.879882812 c 0,34,35
 570 491 570 491 573 490.879882812 c 1,36,37
 564 418 564 418 535.819335938 212 c 0,38,-1
 516 79 l 0,39,40
 510 5 510 5 559 5 c 12,41,42
 583 5 583 5 604 26 c 4,43,44
 624 45 624 45 656 0 c 28,45,-1
 671 -26 l 28,46,47
 694 -6 694 -6 717.46484375 22 c 4,48,49
 740 49 740 49 745 50.5 c 132,-1,50
 750 52 750 52 754 52 c 132,-1,51
 758 52 758 52 763 47 c 4,52,53
 765 45 765 45 765 41 c 4,54,55
 765 36 765 36 762.134765625 31 c 4,56,57
 759 26 759 26 748 19 c 4,58,-1
 727 7.830078125 l 4,59,60
 688 -16 688 -16 674 -29 c 13,61,-1
 674.5 -30 l 4,62,63
 735 -122 735 -122 734.940429688 -145 c 4,64,65
 735 -192 735 -192 663 -194 c 4,66,67
 582 -197 582 -197 605 -119 c 4,68,69
 614 -88 614 -88 667 -30 c 5,70,-1
 651 -3 l 4,71,72
 624 38 624 38 605 19 c 4,73,74
 585 -1 585 -1 558 0 c 4,0,1
662 -188 m 4,75,76
 728 -185 728 -185 728.453125 -144 c 4,77,78
 729 -124 729 -124 670 -34 c 5,79,80
 619 -92 619 -92 611 -120 c 28,81,82
 591 -191 591 -191 662 -188 c 4,75,76
293 118 m 9,83,-1
 297 107 l 17,84,85
 281 1 281 1 162 0.23828125 c 0,86,87
 114 0 114 0 77 42 c 0,88,89
 45 78 45 78 51 196 c 16,90,91
 55 274 55 274 96 481 c 0,92,93
 97 486 97 486 98.25 490.75 c 1,94,95
 100 491 100 491 101 491 c 0,96,97
 104 491 104 491 104 490.879882812 c 1,98,99
 103 487 103 487 102 481 c 0,100,101
 61 273 61 273 57 197 c 0,102,103
 51 82 51 82 81 47 c 0,104,105
 116 7 116 7 163 5.9052734375 c 0,106,107
 277 4 277 4 293 118 c 9,83,-1
EndSplineSet
EndChar

StartChar: uni044A
Encoding: 236 1098 237
Width: 441
GlyphClass: 2
Flags: W
LayerCount: 2
Fore
SplineSet
291 274.619140625 m 0,0,1
 257.173828125 290.04296875 257.173828125 290.04296875 228 289.903320312 c 0,2,3
 192.10546875 289.732421875 192.10546875 289.732421875 163.254882812 266 c 0,4,5
 138 245 138 245 129.737304688 202 c 0,6,7
 124 168 124 168 123.794921875 153 c 0,8,9
 124 80 124 80 150.842773438 44 c 0,10,11
 177 8 177 8 225 7.630859375 c 0,12,13
 317 7 317 7 347 95 c 0,14,15
 375.463867188 180.392578125 375.463867188 180.392578125 336.491210938 237.032226562 c 0,16,17
 320 261 320 261 291 274.619140625 c 0,0,1
176 490.879882812 m 4,18,19
 177.500976562 491.1796875 177.500976562 491.1796875 185 490.879882812 c 5,20,21
 161 368 161 368 151.258789062 327 c 0,22,23
 143 293 143 293 134 237 c 1,24,25
 145 260 145 260 158 270.734375 c 0,26,27
 190 296 190 296 228 295.9453125 c 0,28,29
 255 296 255 296 294 280 c 0,30,31
 322 268 322 268 342.859375 240 c 0,32,33
 385 182 385 182 352.940429688 92 c 128,-1,34
 321 2 321 2 226 0.7822265625 c 0,35,36
 171 0 171 0 143.092773438 41.5009765625 c 0,37,38
 111 90 111 90 115.643554688 153 c 0,39,40
 118 185 118 185 119.30859375 196.483398438 c 0,41,42
 120 206 120 206 143.81640625 328 c 2,43,-1
 173 478 l 4,44,45
 168 475 168 475 164 472.950195312 c 4,46,47
 150 465 150 465 125 464 c 4,48,49
 95 463 95 463 64 476 c 4,50,51
 44 484 44 484 36 484 c 4,52,53
 24 483 24 483 4 466.91796875 c 4,54,55
 -4 460 -4 460 -8 453.5 c 5,56,57
 -11 456 -11 456 -13.2919921875 459 c 5,58,59
 -10 466 -10 466 -0.5 474.5 c 4,60,61
 18 491 18 491 34 491.956054688 c 4,62,63
 47 492 47 492 67 483.5 c 4,64,65
 87.25390625 474.182617188 87.25390625 474.182617188 120 472 c 4,66,67
 146.62890625 470.163085938 146.62890625 470.163085938 162.5 481.5 c 4,68,69
 173 489 173 489 176 490.879882812 c 4,18,19
EndSplineSet
EndChar

StartChar: uni044B
Encoding: 237 1099 238
Width: 556
GlyphClass: 2
Flags: W
LayerCount: 2
Fore
SplineSet
379 64 m 20,0,1
 383 127 383 127 389.274909426 190 c 4,2,3
 396 253 396 253 404 315 c 5,4,5
 397 300 397 300 376 284.844726562 c 4,6,7
 348 266 348 266 320 260.235635857 c 4,8,9
 303 257 303 257 284 256.323242188 c 4,10,11
 255 256 255 256 246 259 c 5,12,13
 256 252 256 252 262.859757512 240 c 4,14,15
 301 172 301 172 272.940429688 92 c 4,16,17
 241 2 241 2 146 0.782590418917 c 4,18,19
 91 0 91 0 63.0932029604 41.501350736 c 4,20,21
 31 90 31 90 35.6433629557 153 c 4,22,23
 38 185 38 185 41 205 c 4,24,25
 45 234 45 234 63.8162953563 328 c 6,26,-1
 96 490.879882812 l 5,27,28
 102 491 102 491 105 490.879882812 c 5,29,30
 81 368 81 368 71.2584927238 327 c 4,31,32
 63 293 63 293 54 237 c 5,33,34
 65 260 65 260 78 270.734375 c 4,35,36
 109.96303355 295.679662768 109.96303355 295.679662768 148 295.944852871 c 4,37,38
 178.984769257 296.160875727 178.984769257 296.160875727 214 280 c 4,39,40
 243.470683662 266.738192352 243.470683662 266.738192352 285 263.60546875 c 4,41,42
 296.992896157 262.981178215 296.992896157 262.981178215 317 267.052128987 c 4,43,44
 339 272 339 272 371 292.16872266 c 4,45,46
 399 310 399 310 407 344 c 5,47,48
 420 464 420 464 425 491 c 5,49,50
 434 491 434 491 443 490.879882812 c 5,51,52
 423 411 423 411 414 336 c 4,53,54
 413 329 413 329 396.024414062 189 c 4,55,56
 395.930737409 188.238111503 395.930737409 188.238111503 386 79 c 4,57,58
 378 5 378 5 429 5 c 4,59,60
 457 5 457 5 486 41 c 4,61,62
 500 58 500 58 502 59.5 c 4,63,64
 505 61 505 61 511 61 c 4,65,66
 515 61 515 61 520 56 c 4,67,68
 522 54 522 54 522 50 c 4,69,70
 522 45 522 45 519.134765625 40 c 4,71,72
 516 35 516 35 505 28 c 4,73,74
 460 0 460 0 432.599609375 0 c 4,75,76
 375 0 375 0 379 64 c 20,0,1
211 274.619062009 m 4,77,78
 177.173553831 290.043139192 177.173553831 290.043139192 148 289.903656976 c 4,79,80
 112.105620826 289.732041698 112.105620826 289.732041698 83.2548828125 266 c 4,81,82
 58 245 58 245 49.737710918 202 c 4,83,84
 44 168 44 168 43.794921875 153 c 4,85,86
 44 80 44 80 70.8427734375 44 c 4,87,88
 97 8 97 8 145 7.630859375 c 4,89,90
 237 7 237 7 267 95 c 4,91,92
 295.464077731 180.392233192 295.464077731 180.392233192 256.491556226 237.032279397 c 4,93,94
 240 261 240 261 211 274.619062009 c 4,77,78
EndSplineSet
EndChar

StartChar: uni044C
Encoding: 238 1100 239
Width: 363
GlyphClass: 2
Flags: W
LayerCount: 2
Fore
SplineSet
214 280 m 0,0,1
 244 266 244 266 262.859757512 240 c 0,2,3
 304.645667942 182.394080598 304.645667942 182.394080598 272.940429688 92 c 0,4,5
 241 2 241 2 146 0.782590418917 c 0,6,7
 91 0 91 0 63.0932029604 41.501350736 c 0,8,9
 31 90 31 90 35.6433629557 153 c 0,10,11
 38 185 38 185 41 205 c 0,12,13
 45 234 45 234 63.8162953563 328 c 2,14,-1
 96 490.879882812 l 1,15,16
 102 491 102 491 105 490.879882812 c 1,17,18
 81 368 81 368 71.2584927238 327 c 0,19,20
 63 293 63 293 54 237 c 1,21,22
 65 260 65 260 78 270.734375 c 0,23,24
 109.96303355 295.679662768 109.96303355 295.679662768 148 295.944852871 c 0,25,26
 175.028933466 296.133296018 175.028933466 296.133296018 214 280 c 0,0,1
211 274.619062009 m 0,27,28
 177.173553831 290.043139192 177.173553831 290.043139192 148 289.903656976 c 0,29,30
 112.105620826 289.732041698 112.105620826 289.732041698 83.2548828125 266 c 0,31,32
 58 245 58 245 49.737710918 202 c 0,33,34
 44 168 44 168 43.794921875 153 c 0,35,36
 44 80 44 80 70.8427734375 44 c 0,37,38
 97 8 97 8 145 7.630859375 c 0,39,40
 237 7 237 7 267 95 c 0,41,42
 295.464077731 180.392233192 295.464077731 180.392233192 256.491556226 237.032279397 c 0,43,44
 240 261 240 261 211 274.619062009 c 0,27,28
EndSplineSet
EndChar

StartChar: uni044D
Encoding: 239 1101 240
Width: 459
GlyphClass: 2
Flags: W
LayerCount: 2
Fore
SplineSet
76 56.9099403745 m 17,0,1
 113 6 113 6 188 5.71952085619 c 0,2,3
 270 6 270 6 301.5 52 c 0,4,5
 333 99 333 99 356 181 c 0,6,7
 372 240 372 240 372.118249451 291 c 0,8,9
 372 351 372 351 350 399 c 0,10,11
 335 432 335 432 301 457.143554688 c 0,12,13
 265 484 265 484 217 485 c 0,14,15
 158 485 158 485 121.166992188 428 c 1,16,-1
 116 431 l 1,17,18
 155 491 155 491 218 491 c 0,19,20
 268.521528006 490.174080701 268.521528006 490.174080701 304 462 c 0,21,22
 339.52173913 434.891304348 339.52173913 434.891304348 355 402 c 0,23,24
 379 351 379 351 378.554074179 288 c 0,25,26
 378 237 378 237 362 180 c 0,27,28
 336 90 336 90 306.463867188 48 c 0,29,30
 272 -0 272 -0 186 0.0676690307433 c 0,31,32
 109.44404384 0.0226214885611 109.44404384 0.0226214885611 71 53.1869748124 c 9,33,-1
 76 56.9099403745 l 17,0,1
373 254.879882812 m 9,34,35
 372 248 l 17,36,37
 365.585661932 246.085598983 365.585661932 246.085598983 359 242.950195312 c 4,38,39
 342 233 342 233 317 233 c 4,40,41
 288 234 288 234 265.5 246.5 c 0,42,43
 252 254 252 254 235 254 c 0,44,45
 217 253 217 253 200 237.91796875 c 0,46,47
 192 231 192 231 188 224.5 c 1,48,49
 186 227 186 227 183.708007812 229 c 1,50,51
 185 232 185 232 197.5 243.5 c 0,52,53
 214 259 214 259 235 259.956054688 c 0,54,55
 252 261 252 261 267 252.5 c 0,56,57
 290 239 290 239 317.5 239 c 132,-1,58
 345 239 345 239 359.5 248.5 c 0,59,60
 366 252 366 252 373 254.879882812 c 9,34,35
EndSplineSet
EndChar

StartChar: uni044E
Encoding: 240 1102 241
Width: 665
GlyphClass: 2
Flags: W
LayerCount: 2
Fore
SplineSet
268 284.168945312 m 9,0,1
 271 278.844726562 l 17,2,3
 234 252 234 252 205 250.323242188 c 0,4,5
 183 249 183 249 159 259.619140625 c 0,6,7
 132 272 132 272 96.2548828125 240 c 0,8,9
 74 220 74 220 65.7373046875 176 c 0,10,11
 60 144 60 144 57.794921875 127 c 0,12,13
 54 96 54 96 48 0 c 1,14,-1
 33 0 l 1,15,16
 42 42 42 42 51.6435546875 127 c 0,17,18
 55 158 55 158 58 179 c 0,19,20
 87 393 87 393 99 490.879882812 c 1,21,22
 104 491 104 491 106 490.879882812 c 1,23,24
 96 422 96 422 68 204 c 1,25,26
 72 226 72 226 93 244.734375 c 0,27,28
 131 279 131 279 161.5 264.5 c 0,29,30
 180 256 180 256 206 256.60546875 c 0,31,32
 231 257 231 257 268 284.168945312 c 9,0,1
258 120 m 0,33,34
 238 203 238 203 274 305 c 0,35,36
 303 387 303 387 332 431 c 0,37,38
 372 494 372 494 434 491 c 0,39,40
 486 489 486 489 520 462 c 0,41,42
 556 435 556 435 571 402 c 0,43,44
 595 351 595 351 594.553710938 288 c 0,45,46
 594 237 594 237 578 180 c 0,47,48
 552 90 552 90 522.463867188 48 c 0,49,50
 488 0 488 0 402 0.0673828125 c 0,51,52
 287 0 287 0 258 120 c 0,33,34
517.5 52 m 0,53,54
 549 99 549 99 572 181 c 0,55,56
 588 240 588 240 588.118164062 291 c 0,57,58
 588 351 588 351 566 399 c 0,59,60
 551 432 551 432 517 457.143554688 c 0,61,62
 481 484 481 484 433 485 c 0,63,64
 372 487 372 487 336.166992188 427 c 0,65,66
 304 372 304 372 279 302 c 0,67,68
 245 204 245 204 264 122 c 0,69,70
 291 6 291 6 404 5.7197265625 c 0,71,72
 486 6 486 6 517.5 52 c 0,53,54
EndSplineSet
EndChar

StartChar: uni044F
Encoding: 241 1103 242
Width: 491
GlyphClass: 2
Flags: W
LayerCount: 2
Fore
SplineSet
316 490.879882812 m 0,0,-1
 323 490.879882812 l 1,1,2
 317 426 317 426 310.4609375 362 c 0,3,-1
 301.017578125 227 l 16,4,5
 299 7 299 7 365 6 c 0,6,7
 390 6 390 6 418 41 c 0,8,9
 432 58 432 58 434 59.5 c 0,10,11
 437 61 437 61 443 61 c 0,12,13
 447 61 447 61 452 56 c 0,14,15
 454 54 454 54 454 50 c 0,16,17
 454 45 454 45 451.134765625 40 c 0,18,19
 448 35 448 35 437 28 c 0,20,21
 392 0 392 0 364.599609375 0 c 0,22,23
 290 0 290 0 293.28515625 228 c 24,24,-1
 306.130859375 362 l 0,25,-1
 316 490.879882812 l 0,0,-1
15 55 m 9,26,27
 21 57 l 17,28,29
 23 42 23 42 39 25 c 0,30,31
 58 5 58 5 89 5 c 0,32,33
 227 5 227 5 280 234 c 0,34,35
 300 317 300 317 305.239257812 378.504882812 c 0,36,37
 311 435 311 435 317.294921875 491 c 9,38,-1
 324.063476562 491 l 17,39,40
 317 434 317 434 310.431640625 376 c 0,41,42
 300.438304309 287.756730524 300.438304309 287.756730524 288.111328125 235 c 0,43,44
 233 -0 233 -0 89 -1 c 0,45,46
 55 -1 55 -1 34 21 c 0,47,48
 17 39 17 39 15 55 c 9,26,27
296 314 m 9,49,-1
 301 311 l 17,50,51
 281 215 281 215 195 215.887695312 c 0,52,53
 87 217 87 217 82 354 c 0,54,55
 79.8075654954 412.099514371 79.8075654954 412.099514371 121 453 c 4,56,57
 162 491 162 491 243 490.879882812 c 4,58,59
 312.737704911 490.879781468 312.737704911 490.879781468 319 446 c 9,60,-1
 313 444 l 1,61,62
 308 484 308 484 242 485 c 0,63,64
 163 485 163 485 124.478515625 449 c 4,65,66
 84.7202482511 410.853917847 84.7202482511 410.853917847 87 355 c 0,67,68
 93 223 93 223 195 222 c 4,69,70
 275.606536229 221.209739841 275.606536229 221.209739841 296 314 c 9,49,-1
EndSplineSet
EndChar

StartChar: u10000
Encoding: 260 65536 258
Width: 371
GlyphClass: 2
Flags: W
LayerCount: 2
Fore
SplineSet
35 0 m 1,0,-1
 35 682 l 1,1,-1
 306 682 l 1,2,-1
 306 0 l 1,3,-1
 35 0 l 1,0,-1
69 34 m 1,4,-1
 272 34 l 1,5,-1
 272 648 l 1,6,-1
 69 648 l 1,7,-1
 69 34 l 1,4,-1
EndSplineSet
EndChar

StartChar: E_cap
Encoding: 262 -1 260
Width: 630
GlyphClass: 2
Flags: W
LayerCount: 2
Back
SplineSet
557.502929688 123 m 132,-1,0
 557.502929688 135 557.502929688 135 569.502929688 135 c 132,-1,1
 581.502929688 135 581.502929688 135 581.502929688 123 c 132,-1,2
 581.502929688 111 581.502929688 111 569.502929688 111 c 132,-1,3
 557.502929688 111 557.502929688 111 557.502929688 123 c 132,-1,0
EndSplineSet
Fore
SplineSet
131.608398438 42 m 0,0,1
 45.4912109375 97 45.4912109375 97 45.0947265625 223 c 8,2,3
 44.4970703125 307 44.4970703125 307 113.7421875 388 c 0,4,5
 189.40625 477 189.40625 477 283.510742188 479 c 0,6,7
 329.563476562 480 329.563476562 480 366.510742188 479 c 1,8,9
 329.510742188 479 329.510742188 479 284.192382812 492 c 0,10,11
 233.978515625 507 233.978515625 507 210.723632812 531 c 0,12,13
 165.646484375 577 165.646484375 577 170.734375 655 c 0,14,15
 174.564453125 709 174.564453125 709 212.028320312 756 c 0,16,17
 265.5390625 823 265.5390625 823 346.590820312 823.991210938 c 0,18,19
 420.643554688 825 420.643554688 825 452.495117188 784 c 0,20,21
 461.866210938 772 461.866210938 772 459.26171875 770 c 128,-1,22
 456.657226562 768 456.657226562 768 447.337890625 781 c 0,23,24
 417.381835938 820 417.381835938 820 347.35546875 819.498046875 c 0,25,26
 272.329101562 819 272.329101562 819 215.765625 751 c 0,27,28
 181.6171875 710 181.6171875 710 176.954101562 654 c 0,29,30
 170.856445312 581 170.856445312 581 214.4453125 535 c 0,31,32
 239.135742188 510 239.135742188 510 285.40234375 496 c 0,33,34
 329.720703125 483 329.720703125 483 376.62890625 481.258789062 c 1,35,36
 376.563476562 480 376.563476562 480 376.510742188 479 c 129,-1,37
 376.458984375 478 376.458984375 478 376.38671875 476.624023438 c 1,38,39
 329.353515625 476 329.353515625 476 283.249023438 474 c 0,40,41
 188.987304688 469 188.987304688 469 118.05859375 384.5 c 0,42,43
 50.287109375 303 50.287109375 303 51.0947265625 223 c 0,44,45
 52.4384765625 96 52.4384765625 96 134.87109375 47 c 0,46,47
 205.6171875 4 205.6171875 4 294.669921875 5 c 0,48,49
 374.190429688 6.005859375 374.190429688 6.005859375 417.879882812 27.1494140625 c 0,50,51
 443.497070312 39.541015625 443.497070312 39.541015625 480.069335938 69.861328125 c 0,52,53
 515.23828125 99.017578125 515.23828125 99.017578125 534.255859375 130 c 0,54,55
 538.482421875 135 538.482421875 135 544 134.75 c 0,56,57
 548.482421875 135 548.482421875 135 551.325195312 133 c 0,58,59
 556.16796875 129 556.16796875 129 555.889648438 124.181640625 c 0,60,61
 555.64453125 119 555.64453125 119 553.452148438 116 c 24,62,63
 528.459960938 88.1025390625 528.459960938 88.1025390625 491.58203125 60.580078125 c 0,64,65
 454.323242188 32.7724609375 454.323242188 32.7724609375 420.415039062 19.2158203125 c 0,66,67
 372.407226562 0 372.407226562 0 294.407226562 0 c 0,68,69
 198.407226562 0 198.407226562 0 131.608398438 42 c 0,0,1
EndSplineSet
EndChar

StartChar: o_small
Encoding: 263 -1 261
Width: 459
GlyphClass: 2
Flags: W
LayerCount: 2
Fore
SplineSet
42 120 m 4,0,1
 22 203 22 203 58 305 c 4,2,3
 87 387 87 387 116 431 c 4,4,5
 156 494 156 494 218 491 c 4,6,7
 270 489 270 489 304 462 c 4,8,9
 339.52173913 434.891304348 339.52173913 434.891304348 355 402 c 4,10,11
 379 351 379 351 378.554074179 288 c 4,12,13
 378 237 378 237 362 180 c 4,14,15
 336 90 336 90 306.463867188 48 c 4,16,17
 272 -0 272 -0 186 0.0676690307433 c 4,18,19
 71 0 71 0 42 120 c 4,0,1
301.5 52 m 4,20,21
 333 99 333 99 356 181 c 4,22,23
 372 240 372 240 372.118249451 291 c 4,24,25
 372 351 372 351 350 399 c 4,26,27
 335 432 335 432 301 457.143554688 c 4,28,29
 264.707909504 484.217903123 264.707909504 484.217903123 217 485 c 4,30,31
 156 487 156 487 120.166992188 427 c 4,32,33
 87.5751021304 372.374156101 87.5751021304 372.374156101 63 302 c 4,34,35
 29 204 29 204 48 122 c 4,36,37
 75 6 75 6 188 5.71952085619 c 4,38,39
 270 6 270 6 301.5 52 c 4,20,21
EndSplineSet
EndChar

StartChar: e_small
Encoding: 264 -1 262
Width: 439
GlyphClass: 2
Flags: W
LayerCount: 2
Back
SplineSet
337.4375 73 m 132,-1,0
 337.4375 85 337.4375 85 349.4375 85 c 132,-1,1
 361.4375 85 361.4375 85 361.4375 73 c 132,-1,2
 361.4375 61 361.4375 61 349.4375 61 c 132,-1,3
 337.4375 61 337.4375 61 337.4375 73 c 132,-1,0
EndSplineSet
Fore
SplineSet
58.6044921875 62 m 0,0,1
 30.2109375 108 30.2109375 108 32.9873046875 185.327148438 c 0,2,3
 33.73828125 209 33.73828125 209 42.998046875 251 c 1,4,5
 36.2392578125 252 l 24,6,7
 35.37890625 256 35.37890625 256 37.64453125 258 c 1,8,9
 41.4140625 257 41.4140625 257 44.560546875 257 c 1,10,11
 66.3125 340 66.3125 340 115.736328125 421.93359375 c 0,12,13
 133.188476562 451 133.188476562 451 154.73828125 466.734375 c 0,14,15
 189.5859375 491 189.5859375 491 238.787109375 490.987304688 c 0,16,17
 239.5859375 491 239.5859375 491 240.584960938 490.98046875 c 0,18,19
 362.5859375 491 362.5859375 491 370.913085938 371.5 c 0,20,21
 375.72265625 299.830078125 375.72265625 299.830078125 331.606445312 262.509765625 c 0,22,23
 295.541015625 232 295.541015625 232 216.541015625 232 c 0,24,25
 170.541015625 232 170.541015625 232 123.750976562 238 c 24,26,-1
 49.169921875 250 l 1,27,28
 39.73828125 209 39.73828125 209 39.0625 185.55078125 c 0,29,30
 36.28125 110 36.28125 110 63.744140625 66 c 0,31,32
 84.556640625 32 84.556640625 32 108.91796875 20.85546875 c 0,33,34
 145.579101562 4 145.579101562 4 199.01953125 4.876953125 c 0,35,36
 236.649414062 6 236.649414062 6 264.051757812 17.533203125 c 128,-1,37
 291.452148438 29 291.452148438 29 314.571289062 59 c 24,38,-1
 332.302734375 82 l 8,39,40
 337.442382812 86 337.442382812 86 343.408203125 85 c 0,41,42
 347.373046875 84 347.373046875 84 349.802734375 82 c 128,-1,43
 352.233398438 80 352.233398438 80 353.05859375 75 c 0,44,45
 353.814453125 68 353.814453125 68 348.639648438 63 c 0,46,47
 337.325195312 54 337.325195312 54 325.045898438 46 c 0,48,49
 293.208007812 22 293.208007812 22 267.890625 12.9091796875 c 0,50,51
 233.439453125 0 233.439453125 0 197.893554688 -0.6142578125 c 0,52,53
 146.370117188 -2 146.370117188 -2 107.498046875 16 c 0,54,55
 77.4873046875 30 77.4873046875 30 58.6044921875 62 c 0,0,1
364.584960938 371 m 0,56,57
 356.411132812 486 356.411132812 486 239.411132812 486 c 0,58,59
 189.411132812 486 189.411132812 486 158.590820312 462.5 c 0,60,61
 139.048828125 447 139.048828125 447 120.896484375 419 c 0,62,63
 70.27734375 339 70.27734375 339 50.3662109375 256 c 1,64,-1
 125.959960938 244 l 0,65,66
 170.715820312 237 170.715820312 237 216.750976562 238 c 0,67,68
 291.78515625 239 291.78515625 239 327.772460938 267.24609375 c 0,69,70
 368.880859375 299 368.880859375 299 364.584960938 371 c 0,56,57
EndSplineSet
EndChar

StartChar: u_small
Encoding: 265 -1 263
Width: 529
GlyphClass: 2
Flags: W
LayerCount: 2
Back
SplineSet
426.473632812 49 m 128,-1,0
 426.473632812 61 426.473632812 61 438.473632812 61 c 128,-1,1
 450.473632812 61 450.473632812 61 450.473632812 49 c 128,-1,2
 450.473632812 37 450.473632812 37 438.473632812 37 c 128,-1,3
 426.473632812 37 426.473632812 37 426.473632812 49 c 128,-1,0
EndSplineSet
Fore
SplineSet
90.25 490.75 m 5,1,2
 92 491 92 491 93 491 c 4,3,4
 96 491 96 491 96 490.879882812 c 5,5,6
 95 487 95 487 94 481 c 4,7,8
 53 274 53 274 49 197 c 28,9,10
 43 82 43 82 73 47 c 4,11,12
 108 7 108 7 175 5.9052734375 c 4,13,14
 303 3 303 3 318 80 c 4,15,16
 320 90 320 90 321.760742188 101 c 4,17,18
 336 197 336 197 337.286132812 212 c 4,19,20
 350 317 350 317 370 490.879882812 c 5,21,22
 374 491 374 491 377 490.879882812 c 4,23,24
 380 491 380 491 383 490.879882812 c 5,25,26
 374 418 374 418 345.819335938 212 c 4,27,-1
 326 79 l 28,28,29
 320 5 320 5 369 5 c 4,30,31
 397 5 397 5 426 41 c 4,32,33
 440 58 440 58 442 59.5 c 4,34,35
 445 61 445 61 451 61 c 4,36,37
 455 61 455 61 460 56 c 4,38,39
 462 54 462 54 462 50 c 4,40,41
 462 45 462 45 459.134765625 40 c 4,42,43
 456 35 456 35 445 28 c 4,44,45
 400 0 400 0 372.599609375 0 c 4,46,47
 315 0 315 0 319 64 c 5,48,49
 304 1 304 1 174 0.23828125 c 4,50,51
 106 0 106 0 69 42 c 4,52,53
 37 78 37 78 43 196 c 20,54,55
 47 274 47 274 88 481 c 4,56,57
 89 486 89 486 90.25 490.75 c 5,1,2
EndSplineSet
EndChar

StartChar: g_small
Encoding: 266 -1 264
Width: 488
GlyphClass: 2
Flags: W
LayerCount: 2
Back
SplineSet
45.0400390625 -204 m 128,-1,0
 45.0400390625 -192 45.0400390625 -192 57.0400390625 -192 c 128,-1,1
 69.0400390625 -192 69.0400390625 -192 69.0400390625 -204 c 128,-1,2
 69.0400390625 -216 69.0400390625 -216 57.0400390625 -216 c 128,-1,3
 45.0400390625 -216 45.0400390625 -216 45.0400390625 -204 c 128,-1,0
EndSplineSet
Fore
SplineSet
346.961914062 90 m 4,0,1
 346.891601562 88 346.891601562 88 347.288085938 83 c 5,2,3
 337.018554688 63 337.018554688 63 325.958984375 48 c 4,4,5
 293.993164062 5 293.993164062 5 218.336914062 0.5 c 4,6,7
 159.713867188 -3 159.713867188 -3 125.482421875 19 c 4,8,9
 78.5654296875 50 78.5654296875 50 64.009765625 120 c 4,10,11
 46.908203125 203 46.908203125 203 86.4697265625 305 c 4,12,13
 118.333007812 387 118.333007812 387 148.870117188 431 c 4,14,15
 192.104492188 495 192.104492188 495 253 492 c 4,16,17
 305.930664062 490 305.930664062 490 337.952148438 462 c 132,-1,18
 369.974609375 434 369.974609375 434 385.8984375 402 c 5,19,20
 383.647460938 396 383.647460938 396 382.682617188 397 c 4,21,22
 366.834960938 430 366.834960938 430 334.783203125 457.143554688 c 4,23,24
 300.633789062 486.063476562 300.633789062 486.063476562 253.825195312 487 c 4,25,26
 189.860351562 488 189.860351562 488 152.897460938 427 c 4,27,28
 115.565429688 365 115.565429688 365 91.365234375 302 c 4,29,30
 53.9423828125 204 53.9423828125 204 70.0791015625 122 c 4,31,32
 82.7744140625 56 82.7744140625 56 129.657226562 24 c 4,33,34
 160.888671875 2 160.888671875 2 218.028320312 6 c 4,35,36
 292.203125 11 292.203125 11 321.134765625 52 c 4,37,38
 334.263671875 70 334.263671875 70 345.88671875 94 c 5,39,-1
 346.961914062 90 l 4,0,1
369.342773438 330 m 28,40,-1
 399.9609375 490.879882812 l 5,41,-1
 406.9609375 490.879882812 l 5,42,-1
 375.342773438 330 l 4,43,44
 353.1875 211 353.1875 211 352.25390625 127 c 4,45,46
 351.368164062 73 351.368164062 73 366.723632812 -60 c 4,47,48
 392.172851562 -289.068359375 392.172851562 -289.068359375 282.05078125 -337 c 4,49,50
 175.479492188 -382 175.479492188 -382 87.2470703125 -360 c 4,51,52
 29.2275390625 -345.533203125 29.2275390625 -345.533203125 8.041015625 -280 c 4,53,-1
 -1.2822265625 -232 l 4,54,55
 -6.3046875 -204 -6.3046875 -204 3.009765625 -195 c 4,56,57
 9.21875 -189 9.21875 -189 18.52734375 -194.5 c 4,58,59
 22.939453125 -197 22.939453125 -197 22.537109375 -205 c 4,60,61
 22.5556640625 -208 22.5556640625 -208 17.9619140625 -225 c 4,62,63
 10.7392578125 -260 10.7392578125 -260 15.1455078125 -277 c 4,64,65
 31.5791015625 -340.401367188 31.5791015625 -340.401367188 88.421875 -355 c 4,66,67
 174.688476562 -376 174.688476562 -376 279.243164062 -331.5 c 4,68,69
 387.866210938 -285 387.866210938 -285 360.654296875 -62 c 4,70,71
 344.263671875 70 344.263671875 70 345.39453125 127 c 4,72,73
 345.977539062 205 345.977539062 205 369.342773438 330 c 28,40,-1
EndSplineSet
EndChar

StartChar: A_cap
Encoding: 267 -1 265
Width: 787
GlyphClass: 2
Flags: W
LayerCount: 2
Fore
SplineSet
636 200 m 1,1,2
 640.420338983 339.240677966 640.420338983 339.240677966 666 606 c 0,3,4
 680 752 680 752 680 775 c 0,5,6
 679 814 679 814 651 813 c 0,7,8
 614 813 614 813 606 760 c 0,9,10
 605 753 605 753 596 704 c 0,11,12
 585.25844059 643.456665143 585.25844059 643.456665143 565.458034598 576 c 0,13,14
 544.704837972 505.297336829 544.704837972 505.297336829 514 427 c 1,15,16
 552 386 552 386 582 334 c 0,17,18
 615 278 615 278 636 200 c 1,1,2
376 174 m 1,19,-1
 449 175 l 24,20,21
 539 176 539 176 631 194 c 1,22,23
 607.750067004 280.658841166 607.750067004 280.658841166 577 331 c 0,24,25
 538 395 538 395 511 422 c 1,26,-1
 506 410 l 0,27,28
 454 288 454 288 382 183 c 24,29,-1
 376 174 l 1,19,-1
368 175 m 1,30,-1
 376 186 l 0,31,32
 440 276 440 276 501 415 c 24,33,-1
 506 426 l 1,34,35
 440 486 440 486 374 485 c 0,36,37
 294 484 294 484 229 417 c 0,38,39
 178 364 178 364 178 304 c 256,40,41
 178 237 178 237 235 208 c 0,42,43
 263 194 263 194 368 175 c 1,30,-1
35 82 m 0,44,45
 35 92 35 92 34.8427734375 93 c 1,46,47
 36 94 36 94 36.5 94 c 128,-1,48
 37 94 37 94 39.5 94 c 1,49,50
 40 88 40 88 40 81 c 0,51,52
 40 46 40 46 67 26 c 0,53,54
 93 6 93 6 142 6 c 0,55,56
 211 6 211 6 275 63 c 0,57,58
 308 93 308 93 364 169 c 1,59,60
 261 188 261 188 233 202 c 0,61,62
 170 235 170 235 171 303 c 24,63,64
 172 368 172 368 224 421 c 0,65,66
 294 491 294 491 374 490.879882812 c 0,67,68
 444 491 444 491 508 433 c 1,69,70
 537.426747637 508.088942247 537.426747637 508.088942247 558.101492242 577 c 0,71,72
 578.176585229 643.912357018 578.176585229 643.912357018 590 705 c 0,73,74
 595.124047295 732.816256745 595.124047295 732.816256745 600 762 c 0,75,76
 612 819 612 819 651 819 c 0,77,78
 685 819 685 819 685.846285965 776 c 0,79,80
 686.280873937 733.591253182 686.280873937 733.591253182 673 606 c 0,81,82
 645 340 645 340 643 196 c 1,83,84
 681 208 681 208 702 221 c 0,85,86
 716 230 716 230 721 228 c 0,87,88
 724 227 724 227 721 219 c 1,89,90
 679 198 679 198 643 189 c 1,91,92
 645 98 645 98 647 69 c 0,93,94
 650 17 650 17 652 0 c 1,95,96
 650 0 650 0 648 0 c 0,97,98
 636 -1 636 -1 635 0 c 1,99,100
 638 132 638 132 632 188 c 1,101,102
 534 170 534 170 448 168 c 24,103,-1
 372 168 l 1,104,105
 311 85 311 85 279 59 c 0,106,107
 209 -0 209 -0 143 0 c 0,108,109
 92 0 92 0 63.5 21.5 c 128,-1,110
 35 43 35 43 35 82 c 0,44,45
EndSplineSet
EndChar

StartChar: B_cap
Encoding: 268 -1 266
Width: 739
GlyphClass: 2
Flags: W
LayerCount: 2
Back
SplineSet
287.098632812 59 m 132,-1,1
 287.098632812 71 287.098632812 71 299.098632812 71 c 132,-1,2
 311.098632812 71 311.098632812 71 311.098632812 59 c 132,-1,3
 311.098632812 47 311.098632812 47 299.098632812 47 c 132,-1,0
 287.098632812 47 287.098632812 47 287.098632812 59 c 132,-1,1
EndSplineSet
Fore
SplineSet
204.39453125 469.5 m 0,0,1
 246.36328125 550 246.36328125 550 251.887695312 560 c 0,2,3
 256.306640625 568 256.306640625 568 260.352539062 576 c 1,4,5
 260.831054688 578 260.831054688 578 262.875 617 c 0,6,7
 268.116210938 717 268.116210938 717 274.147460938 813 c 1,8,-1
 251.046875 792 l 2,9,10
 213.264648438 758 213.264648438 758 178.522460938 782 c 0,11,12
 156.361328125 798 156.361328125 798 141.946289062 771 c 1,13,-1
 137.103515625 774 l 0,14,15
 138.3125 778 138.3125 778 145.336914062 788 c 0,16,17
 157.727539062 805 157.727539062 805 184.784179688 787 c 0,18,19
 218.68359375 766 218.68359375 766 248.30859375 797 c 0,20,21
 267.356445312 817 267.356445312 817 268.409179688 818 c 128,-1,22
 269.461914062 819 269.461914062 819 276.935546875 818.5 c 0,23,-1
 280.461914062 819 l 0,24,25
 280.147460938 813 280.147460938 813 279.833007812 807 c 0,26,27
 277.474609375 762 277.474609375 762 275.116210938 717 c 1,28,29
 273.072265625 678 273.072265625 678 268.459960938 590 c 1,30,31
 284.822265625 616 284.822265625 616 300.1328125 641 c 0,32,33
 411.356445312 817 411.356445312 817 480.409179688 818 c 0,34,35
 612.56640625 821 612.56640625 821 604.208007812 659 c 0,36,37
 601.088867188 602 601.088867188 602 555.194335938 542 c 0,38,39
 511.95703125 485 511.95703125 485 387.866210938 464.186523438 c 0,40,41
 374.751953125 462 374.751953125 462 362.647460938 460 c 1,42,43
 485.69921875 461 485.69921875 461 559.041015625 429.352539062 c 0,44,45
 662.6640625 384 662.6640625 384 669.899414062 274 c 0,46,47
 678.243164062 147 678.243164062 147 606.41796875 74 c 0,48,49
 532.171875 -2.4375 532.171875 -2.4375 408.591796875 1 c 0,50,51
 331.696289062 3 331.696289062 3 296.639648438 21 c 0,52,53
 263.53125 38 263.53125 38 257.333007812 52.388671875 c 0,54,55
 253.7890625 62 253.7890625 62 259.103515625 68 c 24,56,57
 267.522460938 76 267.522460938 76 275.208007812 70 c 0,58,59
 340.184570312 6.8076171875 340.184570312 6.8076171875 408.900390625 6.87890625 c 0,60,61
 525.90625 7 525.90625 7 601.626953125 78 c 0,62,63
 671.0859375 144 671.0859375 144 663.846679688 273 c 0,64,65
 658.454101562 380 658.454101562 380 555.744140625 423.69140625 c 0,66,67
 479.4375 456 479.4375 456 320.384765625 455 c 1,68,69
 322.384765625 455 322.384765625 455 387.170898438 470 c 0,70,71
 510.638671875 498 510.638671875 498 550.075195312 547 c 0,72,73
 594.141601562 603 594.141601562 603 596.969726562 659 c 0,74,75
 605.3046875 816 605.3046875 816 478.541992188 811 c 0,76,77
 411.884765625 808 411.884765625 808 304.305664062 634.75 c 1,78,-1
 266.516601562 572 l 1,79,80
 265.258789062 548 265.258789062 548 261.900390625 503 c 0,81,82
 251.877929688 369 251.877929688 369 226.752929688 233 c 0,83,84
 181.475585938 -2.0009765625 181.475585938 -2.0009765625 100.5390625 0 c 0,85,86
 -2.35546875 2 -2.35546875 2 64.134765625 164 c 0,87,88
 135.201171875 337 135.201171875 337 204.39453125 469.5 c 0,0,1
100.853515625 6 m 1,89,90
 178.853515625 6 178.853515625 6 219.802734375 234 c 0,91,92
 243.877929688 369 243.877929688 369 254.848632812 502 c 0,93,-1
 258.73046875 557 l 0,94,-1
 212.06640625 468 l 0,95,96
 140.095703125 335 140.095703125 335 71.134765625 164 c 24,97,98
 7.9501953125 6.9892578125 7.9501953125 6.9892578125 100.853515625 6 c 1,89,90
EndSplineSet
EndChar

StartChar: C_cap
Encoding: 269 -1 267
Width: 654
GlyphClass: 2
Flags: W
LayerCount: 2
Back
SplineSet
558.194335938 709 m 132,-1,0
 558.194335938 721 558.194335938 721 570.194335938 721 c 132,-1,1
 582.194335938 721 582.194335938 721 582.194335938 709 c 132,-1,2
 582.194335938 697 582.194335938 697 570.194335938 697 c 132,-1,3
 558.194335938 697 558.194335938 697 558.194335938 709 c 132,-1,0
EndSplineSet
Fore
SplineSet
316 0 m 128,-1,1
 159 0 159 0 92 141 c 0,2,3
 42 248 42 248 44.5263671875 351 c 0,4,5
 48 495 48 495 134 651 c 0,6,7
 162 702 162 702 195 736 c 0,8,9
 283 822 283 822 377 819 c 0,10,11
 503 815 503 815 556 743.0625 c 0,12,13
 577 715 577 715 569 703 c 0,14,15
 563 694 563 694 553.5 698.5 c 0,16,17
 546 702 546 702 548.159179688 713 c 0,18,19
 553 733 553 733 540 750 c 0,20,21
 493 806 493 806 377 812 c 0,22,23
 283.967773438 815.967773438 283.967773438 815.967773438 199 731 c 0,24,25
 168 700 168 700 140 648 c 0,26,27
 56 496 56 496 51.4912109375 350 c 0,28,29
 48 249 48 249 98.5 144 c 0,30,31
 163 7 163 7 316 7 c 0,32,33
 461 7 461 7 539 117 c 1,34,-1
 553 141 l 0,35,36
 557 139 557 139 558 138 c 1,37,38
 553 126 553 126 546 114 c 0,39,0
 473 0 473 0 316 0 c 128,-1,1
EndSplineSet
EndChar

StartChar: D_cap
Encoding: 270 -1 268
Width: 778
GlyphClass: 2
Flags: W
LayerCount: 2
Back
SplineSet
144.040039062 516 m 132,-1,1
 144.040039062 528 144.040039062 528 156.040039062 528 c 132,-1,2
 168.040039062 528 168.040039062 528 168.040039062 516 c 132,-1,3
 168.040039062 504 168.040039062 504 156.040039062 504 c 132,-1,0
 144.040039062 504 144.040039062 504 144.040039062 516 c 132,-1,1
EndSplineSet
Fore
SplineSet
481 0 m 0,0,1
 394.85546875 0 394.85546875 0 322.06640625 148 c 0,2,3
 296 201 296 201 267 245 c 1,4,5
 252 176 252 176 227 104 c 0,6,7
 196 16 196 16 149 4 c 0,8,9
 133 0 133 0 120 0.1484375 c 0,10,11
 49 1 49 1 49.025390625 84 c 0,12,13
 49 126 49 126 73 189 c 0,14,15
 115 298 115 298 203 298.03515625 c 0,16,17
 237 298 237 298 264 260 c 1,18,-1
 285.361328125 364 l 0,19,20
 306 453 306 453 342.041992188 629 c 0,21,22
 357 703 357 703 362 743 c 0,23,24
 364 760 364 760 365 761 c 1,25,26
 376 760 376 760 381 757 c 1,27,28
 380 750 380 750 378 742 c 256,29,30
 358 671 358 671 348.543945312 626 c 0,31,32
 320 494 320 494 292 363 c 0,33,-1
 269 253 l 1,34,35
 302.443359375 205.369140625 302.443359375 205.369140625 328 152 c 0,36,37
 398 7 398 7 482 7 c 0,38,39
 665 7 665 7 693 294 c 0,40,41
 696 325 696 325 696.052734375 355 c 0,42,43
 697 424 697 424 684 490.879882812 c 0,44,45
 636 749 636 749 484 791 c 0,46,47
 411 811 411 811 375 811.1484375 c 0,48,49
 269 810 269 810 189.5 732 c 0,50,51
 97 640 97 640 122 572 c 0,52,53
 137 532 137 532 153.450195312 528 c 0,54,55
 158 527 158 527 160.64453125 524 c 0,56,57
 163 521 163 521 163.458007812 516 c 0,58,59
 163 508 163 508 157 505.051757812 c 0,60,61
 155 504 155 504 150 503.908203125 c 0,62,63
 143 504 143 504 140 510 c 0,64,65
 131 524 131 524 115 570 c 0,66,67
 90 642 90 642 182 734 c 0,68,69
 268 820 268 820 375 819.112304688 c 0,70,71
 421 819 421 819 487 798 c 0,72,73
 646 749 646 749 692 490.879882812 c 0,74,75
 705 419 705 419 704.891601562 355 c 0,76,77
 705 324 705 324 702 294 c 0,78,79
 672 0 672 0 481 0 c 0,0,1
146.5 10 m 0,80,81
 191 23 191 23 220 106 c 1,82,83
 242 167 242 167 262 251 c 1,84,85
 236 292 236 292 202 291.122070312 c 0,86,87
 116 290 116 290 80 186 c 0,88,89
 58 122 58 122 57.734375 81 c 0,90,91
 58 7 58 7 121 6.23828125 c 0,92,93
 133 6 133 6 146.5 10 c 0,80,81
EndSplineSet
EndChar

StartChar: H_cap
Encoding: 271 -1 269
Width: 779
GlyphClass: 2
Flags: W
LayerCount: 2
Fore
SplineSet
587.776367188 575 m 1,0,1
 548.977539062 123 l 9,2,3
 547 5 547 5 615.887695312 6 c 0,4,5
 641 6 641 6 670.111328125 41 c 0,6,7
 685 58 685 58 686.7578125 59.5 c 0,8,9
 690 61 690 61 695.810546875 61 c 0,10,11
 700 61 700 61 704.635742188 56 c 0,12,13
 707 54 707 54 706.42578125 50 c 0,14,15
 706 45 706 45 703.211914062 40 c 0,16,17
 700 35 700 35 688.657226562 28 c 0,18,19
 643 0 643 0 615.278320312 0 c 0,20,21
 541 0 541 0 542.977539062 123 c 1,22,-1
 578.216796875 559 l 1,23,24
 569 541 569 541 548.586914062 508 c 4,25,26
 522 464 522 464 482.212890625 444.435546875 c 4,27,28
 433 420 433 420 332.916992188 435.982421875 c 4,29,30
 301 441 301 441 273.047851562 430 c 5,31,32
 268 370 268 370 247.82421875 233 c 4,33,34
 214 1 214 1 125.678710938 0 c 4,35,36
 52 -1 52 -1 54.1796875 67 c 4,37,38
 55 105 55 105 79.41015625 164 c 5,39,40
 167 399 167 399 266.971679688 435 c 5,41,42
 270 488 270 488 271.224609375 502 c 4,43,-1
 275.436523438 576 l 4,44,45
 276 578 276 578 277.244140625 617 c 4,46,47
 281 717 281 717 285.094726562 813 c 5,48,49
 262.361328125 792 l 6,50,51
 225.318427452 757.781582711 225.318427452 757.781582711 190.010742188 782 c 4,52,53
 168 798 168 798 153.626953125 771 c 5,54,-1
 148.731445312 774 l 4,55,56
 150 778 150 778 156.720703125 788 c 4,57,58
 169 805 169 805 196.186523438 787 c 4,59,60
 229 765 229 765 259.53515625 797 c 4,61,62
 278 817 278 817 279.26953125 818 c 4,63,64
 280 819 280 819 287.787109375 818.5 c 4,65,-1
 291.3046875 819 l 4,66,67
 291 813 291 813 290.884765625 807 c 4,68,69
 290 762 290 762 287.739257812 717 c 5,70,71
 286 678 286 678 283.30078125 590 c 5,72,73
 281 581 281 581 278.259765625 503 c 4,74,75
 278 491 278 491 273.717773438 438 c 5,76,77
 297 448 297 448 335.146484375 442.55859375 c 4,78,79
 434 428 434 428 478.424804688 450.513671875 c 4,80,81
 517 470 517 470 543.073242188 512 c 4,82,83
 570 556 570 556 580.845703125 577 c 1,84,-1
 600.088867188 727 l 2,85,86
 606.479494557 776.814786299 606.479494557 776.814786299 614.465820312 795 c 0,87,88
 623 813 623 813 638.235351562 817 c 0,89,90
 655 822 655 822 669.235351562 817 c 0,91,92
 679 813 679 813 686.325195312 791 c 0,93,94
 693 774 693 774 656.483398438 705 c 2,95,-1
 587.776367188 575 l 1,0,1
266.038085938 427 m 5,96,97
 173.485351562 395 173.485351562 395 85.3408203125 162 c 4,98,99
 62.2783203125 103 62.2783203125 103 61.5595703125 66 c 4,100,101
 59.748046875 2 59.748046875 2 125.887695312 6 c 5,102,103
 207.887695312 6 207.887695312 6 240.857421875 234 c 4,104,105
 257.981445312 352 257.981445312 352 266.038085938 427 c 5,96,97
589.370117188 592 m 1,106,107
 594.245117188 602.794921875 594.245117188 602.794921875 651.78125 712 c 0,108,109
 683.696289062 773 683.696289062 773 678.396484375 793 c 128,-1,110
 673.094726562 813 673.094726562 813 654.059570312 812 c 0,111,112
 632.025390625 811 632.025390625 811 622.396484375 793 c 0,113,114
 614.90625 779 614.90625 779 608.018554688 725 c 1,115,-1
 589.370117188 592 l 1,106,107
EndSplineSet
EndChar

StartChar: K_cap
Encoding: 272 -1 270
Width: 762
GlyphClass: 2
Flags: W
LayerCount: 2
Back
SplineSet
669.080078125 49 m 132,-1,1
 669.080078125 61 669.080078125 61 681.080078125 61 c 132,-1,2
 693.080078125 61 693.080078125 61 693.080078125 49 c 132,-1,3
 693.080078125 37 693.080078125 37 681.080078125 37 c 132,-1,0
 669.080078125 37 669.080078125 37 669.080078125 49 c 132,-1,1
681.080078125 756 m 128,-1,1
 681.080078125 768 681.080078125 768 693.080078125 768 c 128,-1,2
 705.080078125 768 705.080078125 768 705.080078125 756 c 128,-1,3
 705.080078125 744 705.080078125 744 693.080078125 744 c 128,-1,0
 681.080078125 744 681.080078125 744 681.080078125 756 c 128,-1,1
EndSplineSet
Fore
SplineSet
545.474609375 280 m 0,0,1
 526.155273438 185.056640625 526.155273438 185.056640625 523.986328125 123 c 0,2,3
 517.931640625 7 517.931640625 7 590.896484375 6 c 0,4,5
 615.896484375 6 615.896484375 6 645.120117188 41 c 0,6,7
 659.71484375 58 659.71484375 58 661.766601562 59.5 c 0,8,9
 664.819335938 61 664.819335938 61 670.819335938 61 c 0,10,11
 674.819335938 61 674.819335938 61 679.64453125 56 c 0,12,13
 681.57421875 54 681.57421875 54 681.435546875 50 c 0,14,15
 681.259765625 45 681.259765625 45 678.219726562 40 c 0,16,17
 674.911132812 35 674.911132812 35 663.666015625 28 c 0,18,19
 617.686523438 0 617.686523438 0 590.286132812 0 c 0,20,21
 511.686523438 0 511.686523438 0 517.986328125 123 c 24,22,23
 520.874023438 177 520.874023438 177 539.508789062 281 c 1,24,25
 555.100585938 349.298828125 555.100585938 349.298828125 556.737304688 395 c 0,26,27
 561 514.016601562 561 514.016601562 455.083007812 512 c 0,28,29
 402.547851562 511 402.547851562 511 311.32421875 476 c 0,30,31
 298.150390625 471 298.150390625 471 297.122070312 470.205078125 c 1,32,33
 297.2890625 475 297.2890625 475 296.39453125 478 c 1,34,35
 305.534179688 482 305.534179688 482 314.638671875 485 c 0,36,37
 411.756835938 517 411.756835938 517 449.79296875 518 c 0,38,39
 566.599609375 522.2421875 566.599609375 522.2421875 562.270507812 396 c 0,40,41
 560.6796875 349.591796875 560.6796875 349.591796875 545.474609375 280 c 0,0,1
255.528320312 498 m 1,42,43
 103.174804688 228.642578125 103.174804688 228.642578125 71.349609375 162 c 0,44,45
 45.3564453125 105 45.3564453125 105 45.568359375 66 c 0,46,47
 45.849609375 2.0673828125 45.849609375 2.0673828125 109.896484375 6 c 1,48,49
 191.896484375 6 191.896484375 6 224.866210938 234 c 0,50,51
 249.842773438 405 249.842773438 405 255.528320312 498 c 1,42,43
257.7265625 438 m 1,52,53
 251.620117188 370 251.620117188 370 231.833007812 233 c 0,54,55
 197.721679688 1 197.721679688 1 109.686523438 0 c 0,56,57
 35.65234375 -1 35.65234375 -1 38.189453125 67 c 0,58,59
 39.3564453125 105 39.3564453125 105 63.4189453125 164 c 1,60,61
 168.41015625 364 168.41015625 364 255.602539062 510 c 1,62,-1
 259.446289062 576 l 2,63,64
 260.381835938 592.059570312 260.381835938 592.059570312 261.252929688 617 c 0,65,66
 264.749023438 717 264.749023438 717 269.103515625 813 c 1,67,-1
 246.369140625 792 l 2,68,69
 209.400390625 757.850585938 209.400390625 757.850585938 174.020507812 782 c 0,70,71
 151.579101562 798 151.579101562 798 137.634765625 771 c 1,72,-1
 132.740234375 774 l 0,73,74
 133.879882812 778 133.879882812 778 140.73046875 788 c 0,75,76
 152.82421875 805 152.82421875 805 180.194335938 787 c 0,77,78
 213.42578125 765 213.42578125 765 243.544921875 797 c 0,79,80
 262.243164062 817 262.243164062 817 263.278320312 818 c 128,-1,81
 264.3125 819 264.3125 819 271.795898438 818.5 c 0,82,-1
 275.3125 819 l 0,83,84
 275.103515625 813 275.103515625 813 274.893554688 807 c 0,85,86
 273.321289062 762 273.321289062 762 271.749023438 717 c 1,87,88
 270.385742188 678 270.385742188 678 267.309570312 590 c 1,89,90
 265.030273438 582 265.030273438 582 262.948242188 522 c 1,91,92
 428.002929688 802.018554688 428.002929688 802.018554688 656.717773438 801.959960938 c 0,93,94
 687.71875 802 687.71875 802 702.264648438 789 c 0,95,96
 717.810546875 776 717.810546875 776 712.286132812 761 c 0,97,98
 710.076171875 755 710.076171875 755 702.041015625 754 c 128,-1,99
 694.006835938 753 694.006835938 753 690.216796875 759 c 0,100,101
 687.42578125 765 687.42578125 765 689.565429688 769 c 0,102,103
 692.810546875 776 692.810546875 776 691.999023438 781.387695312 c 0,104,105
 689.473632812 795 689.473632812 795 655.469726562 794.858398438 c 0,106,107
 431.69921875 793.634765625 431.69921875 793.634765625 262.513671875 510 c 1,108,109
 260.779296875 489 260.779296875 489 257.7265625 438 c 1,52,53
EndSplineSet
EndChar

StartChar: M_cap
Encoding: 273 -1 271
Width: 1044
GlyphClass: 2
Flags: W
LayerCount: 2
Fore
SplineSet
805.28515625 228 m 16,0,1
 837 808 l 1,2,3
 818 756 818 756 802.635742188 694 c 0,4,5
 768 552 768 552 704.145507812 330 c 0,6,7
 632 81 632 81 552 12.5 c 1,8,9
 509 15 509 15 523 147 c 0,10,-1
 552 490.879882812 l 1,11,-1
 561.384765625 606 l 2,12,13
 577 763 577 763 578.260742188 777 c 0,14,15
 581 813 581 813 550 813 c 0,16,17
 512 813 512 813 492 704 c 0,18,19
 446 462 446 462 413.431640625 376 c 0,20,21
 319 125 319 125 215 49.068359375 c 0,22,23
 147 -1 147 -1 98 -1 c 0,24,25
 41 -1 41 -1 20 21 c 0,26,27
 3 39 3 39 1 69 c 0,28,-1
 -1 95 l 1,29,30
 2 95 2 95 6 95 c 1,31,32
 7 84 7 84 8 69 c 0,33,34
 10 40 10 40 25 26 c 0,35,36
 49 4 49 4 96 6 c 0,37,38
 144 8 144 8 210 55.6650390625 c 0,39,40
 313 130 313 130 405.73828125 378 c 0,41,42
 437 462 437 462 485 706 c 0,43,44
 507 819 507 819 546 819 c 0,45,46
 589.610351562 819.991210938 589.610351562 819.991210938 585.180664062 774 c 2,47,-1
 569 606 l 2,48,49
 561 526 561 526 558.840820312 492 c 0,50,51
 535 191 535 191 530 146 c 0,52,53
 517 23 517 23 551 20 c 1,54,55
 629 90 629 90 697.563476562 330 c 0,56,57
 761 553 761 553 796 694 c 24,58,59
 812 757 812 757 835 819 c 1,60,61
 836 819 836 819 838 819 c 129,-1,62
 840 819 840 819 841 819 c 1,63,-1
 813.017578125 227 l 0,64,65
 811 7 811 7 881 6 c 0,66,67
 906 6 906 6 934 41 c 0,68,69
 948 58 948 58 950 59.5 c 0,70,71
 953 61 953 61 959 61 c 0,72,73
 963 61 963 61 968 56 c 0,74,75
 970 54 970 54 970 50 c 0,76,77
 970 45 970 45 967.134765625 40 c 0,78,79
 964 35 964 35 953 28 c 0,80,81
 908 0 908 0 880.599609375 0 c 0,82,83
 802 0 802 0 805.28515625 228 c 16,0,1
EndSplineSet
EndChar

StartChar: O_cap
Encoding: 274 -1 272
Width: 676
GlyphClass: 2
Flags: W
LayerCount: 2
Fore
SplineSet
204 12 m 0,0,1
 88 55 88 55 65 201 c 0,2,3
 46 327 46 327 69 453 c 0,4,5
 99 619 99 619 180 708 c 0,6,7
 246 781 246 781 331.5 811 c 0,8,9
 346 816 346 816 389 818 c 0,10,11
 480 822 480 822 470 781.5 c 0,12,13
 468 773 468 773 473 771 c 0,14,15
 501 763 501 763 511 752 c 0,16,17
 552 710 552 710 570 586 c 0,18,19
 579.030273438 521.28515625 579.030273438 521.28515625 577.23828125 446 c 0,20,21
 575.458007812 371.21484375 575.458007812 371.21484375 563 286 c 0,22,23
 552 212 552 212 497 119 c 0,24,25
 425.252669517 -1.59657676925 425.252669517 -1.59657676925 296 -0.396484375 c 4,26,27
 236 0 236 0 204 12 c 0,0,1
490 122 m 4,28,29
 539 207 539 207 556 288 c 0,30,31
 569 355 569 355 570.69921875 445 c 0,32,33
 571.874023438 512.756835938 571.874023438 512.756835938 562.5 583.5 c 0,34,35
 546 709 546 709 500 748 c 0,36,37
 483 762 483 762 469 762 c 0,38,39
 451 762 451 762 458 775 c 0,40,41
 482 816 482 816 375 811 c 0,42,43
 290 807 290 807 186 703 c 0,44,45
 110 627 110 627 76 451 c 0,46,47
 54 337 54 337 72 203 c 0,48,49
 90 65 90 65 209 18 c 0,50,51
 241 6 241 6 296 6.703125 c 0,52,53
 423.571624292 7.26007832297 423.571624292 7.26007832297 490 122 c 4,28,29
EndSplineSet
EndChar

StartChar: P_cap
Encoding: 275 -1 273
Width: 739
GlyphClass: 2
Flags: W
LayerCount: 2
Back
SplineSet
148.828125 498 m 132,-1,1
 148.828125 510 148.828125 510 160.828125 510 c 132,-1,2
 172.828125 510 172.828125 510 172.828125 498 c 132,-1,3
 172.828125 486 172.828125 486 160.828125 486 c 132,-1,0
 148.828125 486 148.828125 486 148.828125 498 c 132,-1,1
EndSplineSet
Fore
SplineSet
118 52 m 0,0,1
 80 94 80 94 50 141 c 1,2,3
 53 145 53 145 65 154 c 1,4,5
 90 98 90 98 124 56 c 1,6,7
 170 6 170 6 237 6 c 0,8,9
 328 6 328 6 326.586914062 287 c 0,10,11
 326 449 326 449 263 603 c 0,12,13
 228 690 228 690 204 738 c 1,14,15
 172 719 172 719 143 699 c 256,16,17
 87 660 87 660 66 618 c 128,-1,18
 45 576 45 576 64 527 c 128,-1,19
 83 478 83 478 128 508 c 0,20,21
 139 515 139 515 146 506 c 0,22,23
 152 498 152 498 145 489 c 0,24,25
 134 475 134 475 110 475 c 0,26,27
 69 475 69 475 53 526 c 0,28,29
 38 574 38 574 59 619 c 0,30,31
 81 664 81 664 139 705 c 0,32,33
 211 756 211 756 266 776 c 0,34,35
 381 819 381 819 463 819.381835938 c 0,36,37
 587 820 587 820 634 723 c 0,38,39
 689 608 689 608 621 480 c 0,40,41
 587 415 587 415 544 391 c 0,42,43
 510 372 510 372 450 370 c 0,44,45
 415 369 415 369 411 370 c 257,46,47
 412 376 l 1,48,49
 430 376 430 376 447 376 c 0,50,51
 508 378 508 378 539 396 c 0,52,53
 585 424 585 424 614 483 c 0,54,55
 678 613 678 613 628 718 c 0,56,57
 582 813 582 813 462 812.708984375 c 0,58,59
 375 812 375 812 267 769.073242188 c 0,60,61
 234 756 234 756 211 742 c 1,62,63
 233 700 233 700 272 605 c 0,64,65
 336 450 336 450 335.076171875 286 c 0,66,67
 335 -4 335 -4 235 -2 c 0,68,69
 166 -1 166 -1 118 52 c 0,0,1
EndSplineSet
EndChar

StartChar: U_cap
Encoding: 276 -1 274
Width: 749
GlyphClass: 2
Flags: W
LayerCount: 2
Fore
SplineSet
498 170 m 0,1,-1
 504 223 l 1,2,3
 488 118 488 118 433 62.1123378519 c 0,4,5
 373 1 373 1 266 0 c 0,6,7
 146 -1 146 -1 115 78.0596668249 c 0,8,9
 92 136 92 136 113 228 c 0,10,11
 132 310 132 310 148.109848485 386.5 c 0,12,13
 165 467 165 467 172.12454824 594 c 0,14,15
 177 690 177 690 177 813 c 1,16,-1
 155 792 l 2,17,18
 119 758 119 758 83 782 c 0,19,20
 60 798 60 798 47 771 c 1,21,-1
 42 774 l 0,22,23
 43 778 43 778 49.5 788 c 0,24,25
 61 805 61 805 89 787 c 0,26,27
 123 765 123 765 152 797 c 0,28,29
 170 817 170 817 170.75 818.25 c 0,30,31
 172 819 172 819 179 819 c 0,32,-1
 184 819 l 0,33,34
 184 813 184 813 184 807 c 0,35,36
 184 682 184 682 180.001953125 594 c 0,37,38
 175 471 175 471 156 385 c 24,39,-1
 121 227 l 18,40,41
 101 136 101 136 122 82.6133789397 c 0,42,43
 152 7 152 7 263 7 c 0,44,45
 370 7 370 7 429 69.293730741 c 0,46,47
 484 127 484 127 501 232 c 1,48,-1
 511.138671875 294 l 0,49,-1
 566 673 l 0,50,-1
 578 794 l 0,51,52
 580 811 580 811 580.6015625 818.5 c 1,53,54
 590 820 590 820 601 819 c 1,55,56
 588.833786416 753.437626799 588.833786416 753.437626799 575.495800306 672 c 0,57,58
 549.366494752 512.46252435 549.366494752 512.46252435 518.740234375 292 c 0,59,60
 501.89444704 170.453647609 501.89444704 170.453647609 500.947849351 116 c 0,61,62
 501 7 501 7 572 6 c 4,63,64
 597 6 597 6 625 41 c 4,65,66
 639 58 639 58 641 59.5 c 4,67,68
 644 61 644 61 650 61 c 4,69,70
 654 61 654 61 659 56 c 4,71,72
 661 54 661 54 661 50 c 4,73,74
 661 45 661 45 658.134765625 40 c 4,75,76
 655 35 655 35 644 28 c 4,77,78
 599 0 599 0 571.599609375 0 c 4,79,80
 491.833676605 5.7544707931e-16 491.833676605 5.7544707931e-16 494.951699275 116 c 0,81,82
 496 153 496 153 498 170 c 0,1,-1
EndSplineSet
EndChar

StartChar: X_cap
Encoding: 277 -1 275
Width: 902
GlyphClass: 2
Flags: W
LayerCount: 2
Back
SplineSet
742.5 78 m 132,-1,0
 742.5 90 742.5 90 754.5 90 c 132,-1,1
 766.5 90 766.5 90 766.5 78 c 132,-1,2
 766.5 66 766.5 66 754.5 66 c 132,-1,3
 742.5 66 742.5 66 742.5 78 c 132,-1,0
EndSplineSet
Fore
SplineSet
607.740234375 0.08984375 m 0,0,1
 445 0 445 0 426.125 224.245117188 c 0,2,3
 425 237 425 237 425 303 c 1,4,5
 417 258 417 258 408.622070312 223.91796875 c 0,6,7
 354 0 354 0 211.901367188 -0.0361328125 c 0,8,9
 167 0 167 0 134.952148438 6.826171875 c 0,10,11
 69 21 69 21 35 94 c 0,12,13
 35 96 35 96 40.4404296875 98.45703125 c 0,14,-1
 45 100 l 1,15,16
 78 25 78 25 137.297851562 13.166015625 c 0,17,18
 166 7 166 7 212.251953125 6.4833984375 c 0,19,20
 345 5 345 5 402.563476562 227.263671875 c 0,21,22
 413 264 413 264 420.65625 315.921875 c 0,23,24
 422 323 422 323 439.068359375 463.127929688 c 0,25,26
 448 529 448 529 442.999023438 587.915039062 c 0,27,28
 424 813 424 813 260.412109375 813.397460938 c 0,29,30
 198 813 198 813 136.625976562 727.4296875 c 0,31,-1
 129.934570312 731.612304688 l 0,32,33
 127 734 127 734 128.26171875 735.793945312 c 0,34,35
 187 819 187 819 260.412109375 819.107421875 c 0,36,37
 431 819 431 819 450.258789062 590.260742188 c 0,38,39
 453 553 453 553 450 528 c 1,40,41
 453 545 453 545 463.794921875 590.260742188 c 0,42,43
 518 819 518 819 661.884765625 819.234375 c 0,44,45
 799 819 799 819 842 725 c 1,46,47
 838 721 838 721 832 718 c 1,48,49
 792 812 792 812 663.534179688 812.712890625 c 0,50,51
 524 814 524 814 471.15234375 587.915039062 c 0,52,53
 459 540 459 540 453.129882812 503.275390625 c 0,54,55
 444 449 444 449 432.716796875 356.069335938 c 0,56,57
 427 307 427 307 432.293945312 225.58984375 c 0,58,59
 446 11 446 11 608.065429688 6.126953125 c 0,60,61
 655 5 655 5 719 67 c 0,62,63
 739 85 739 85 741.833007812 87.62109375 c 0,64,65
 745 90 745 90 751.889648438 90.1298828125 c 0,66,67
 756 90 756 90 759.944335938 85.7666015625 c 0,68,69
 762 84 762 84 762.290039062 80.73046875 c 0,70,71
 763 74 763 74 759 68.5 c 0,72,73
 754 61 754 61 735.8515625 49.9287109375 c 0,74,75
 654 0 654 0 607.740234375 0.08984375 c 0,0,1
EndSplineSet
EndChar

StartChar: Y_cap
Encoding: 278 -1 276
Width: 634
GlyphClass: 2
Flags: W
LayerCount: 2
Back
SplineSet
73.314453125 20 m 132,-1,1
 73.314453125 32 73.314453125 32 85.314453125 32 c 132,-1,2
 97.314453125 32 97.314453125 32 97.314453125 20 c 132,-1,3
 97.314453125 8 97.314453125 8 85.314453125 8 c 132,-1,0
 73.314453125 8 73.314453125 8 73.314453125 20 c 132,-1,1
EndSplineSet
Fore
SplineSet
518.509765625 526 m 0,0,1
 508.962890625 382 508.962890625 382 515.194335938 291 c 0,2,3
 519.892578125 228 519.892578125 228 527.428710938 181 c 0,4,5
 534.861328125 132 534.861328125 132 533.583007812 93 c 0,6,7
 530.987304688 39 530.987304688 39 510.2578125 6 c 0,8,9
 482.952148438 -38 482.952148438 -38 422.484375 -66 c 0,10,11
 367.122070312 -92 367.122070312 -92 299.134765625 -91.74609375 c 0,12,13
 241.122070312 -92 241.122070312 -92 173.150390625 -72.3740234375 c 0,14,15
 116.956054688 -57 116.956054688 -57 86.3955078125 -20 c 0,16,17
 72.7333984375 -4 72.7333984375 -4 71.6240234375 13 c 0,18,19
 70.41015625 28 70.41015625 28 78.5673828125 31 c 0,20,21
 82.6728515625 33 82.6728515625 33 87.6005859375 31.626953125 c 0,22,23
 94.515625 30 94.515625 30 96.1484375 23 c 0,24,25
 98.51953125 11 98.51953125 11 106.008789062 -6 c 0,26,27
 126.270507812 -51 126.270507812 -51 175.452148438 -66.6044921875 c 0,28,29
 240.383789062 -87 240.383789062 -87 298.396484375 -86.7587890625 c 0,30,31
 362.436523438 -86 362.436523438 -86 418.798828125 -60 c 0,32,33
 483.37109375 -30 483.37109375 -30 505.51953125 11 c 0,34,35
 524.353515625 46 524.353515625 46 526.6796875 94 c 0,36,37
 528.755859375 130 528.755859375 130 520.271484375 178 c 0,38,39
 509.97265625 245.108398438 509.97265625 245.108398438 507.088867188 289 c 0,40,41
 501.962890625 382 501.962890625 382 510.090820312 518 c 0,42,43
 509.188476562 502.909179688 509.188476562 502.909179688 389.377929688 409 c 0,44,45
 292.39453125 333 292.39453125 333 215.866210938 342 c 0,46,47
 173.12890625 347 173.12890625 347 163.067382812 384 c 0,48,49
 154.587890625 413 154.587890625 413 167.442382812 481 c 0,50,51
 193.383789062 619 193.383789062 619 197.889648438 697 c 24,52,-1
 204.55078125 813 l 1,53,-1
 181.450195312 792 l 2,54,55
 143.884765625 757.850585938 143.884765625 757.850585938 108.92578125 782 c 0,56,57
 86.7646484375 798 86.7646484375 798 72.349609375 771 c 1,58,-1
 67.5068359375 774 l 0,59,60
 68.716796875 778 68.716796875 778 75.740234375 788 c 0,61,62
 88.1318359375 805 88.1318359375 805 115.188476562 787 c 0,63,64
 148.03515625 765 148.03515625 765 178.711914062 797 c 0,65,66
 197.760742188 817 197.760742188 817 198.576171875 818.25 c 0,67,68
 199.865234375 819 199.865234375 819 206.865234375 819 c 0,69,-1
 211.865234375 819 l 0,70,71
 211.55078125 813 211.55078125 813 211.236328125 807 c 0,72,73
 207.830078125 742 207.830078125 742 204.866210938 696 c 0,74,75
 199.073242188 594 199.073242188 594 176.061523438 481 c 0,76,77
 164.059570312 422 164.059570312 422 169.64453125 395 c 0,78,79
 177.600585938 356 177.600585938 356 217.337890625 351 c 0,80,81
 296.814453125 341 296.814453125 341 385.639648438 414 c 0,82,83
 468.204101562 482 468.204101562 482 486.147460938 500 c 0,84,85
 510.45703125 525 510.45703125 525 510.666992188 529 c 1,86,87
 512.71484375 549 512.71484375 549 515.497070312 583 c 0,88,89
 528.987304688 745 528.987304688 745 537.921875 801 c 0,90,91
 539.393554688 810 539.393554688 810 539.865234375 819 c 1,92,-1
 555.865234375 819 l 1,93,94
 523.544921875 603 523.544921875 603 518.509765625 526 c 0,0,1
EndSplineSet
EndChar

StartChar: a_small
Encoding: 279 -1 277
Width: 541
GlyphClass: 2
Flags: W
LayerCount: 2
Fore
SplineSet
328.283203125 111 m 4,0,1
 333.823242188 241 333.823242188 241 352.930664062 330 c 4,2,-1
 383.548828125 490.879882812 l 5,3,-1
 390.548828125 490.879882812 l 5,4,-1
 358.930664062 330 l 4,5,6
 338.159179688 222 338.159179688 222 334.702148438 123 c 12,7,8
 330.58203125 5 330.58203125 5 377.58203125 5 c 4,9,10
 405.58203125 5 405.58203125 5 435.838867188 41 c 4,11,12
 450.432617188 58 450.432617188 58 452.485351562 59.5 c 4,13,14
 455.537109375 61 455.537109375 61 461.537109375 61 c 4,15,16
 465.537109375 61 465.537109375 61 470.362304688 56 c 4,17,18
 472.29296875 54 472.29296875 54 472.153320312 50 c 4,19,20
 471.978515625 45 471.978515625 45 468.938476562 40 c 4,21,22
 465.62890625 35 465.62890625 35 454.384765625 28 c 4,23,24
 408.407226562 0 408.407226562 0 381.006835938 0 c 4,25,26
 323.407226562 0 323.407226562 0 328.283203125 111 c 4,0,1
330.549804688 90 m 4,27,28
 330 88 330 88 330.876953125 83 c 5,29,30
 321 63 321 63 309.546875 48 c 4,31,32
 278 5 278 5 201.924804688 0.5 c 4,33,34
 143 -3 143 -3 109.0703125 19 c 4,35,36
 62 50 62 50 47.59765625 120 c 4,37,38
 15.8173828125 274.056640625 15.8173828125 274.056640625 124.458007812 431 c 4,39,40
 168 495 168 495 236.587890625 492 c 4,41,42
 290 490 290 490 321.541015625 462 c 4,43,44
 354 434 354 434 369.486328125 402 c 5,45,46
 367 396 367 396 366.270507812 397 c 4,47,48
 346.720703125 433.223632812 346.720703125 433.223632812 318.37109375 457.143554688 c 4,49,50
 285 484 285 484 237.413085938 487 c 4,51,52
 173.102539062 491.0546875 173.102539062 491.0546875 129 427 c 4,53,54
 26.599609375 278.275390625 26.599609375 278.275390625 53.6669921875 122 c 4,55,56
 66 56 66 56 113.245117188 24 c 4,57,58
 144 2 144 2 201.616210938 6 c 4,59,60
 276 11 276 11 304.72265625 52 c 4,61,62
 318 70 318 70 329.474609375 94 c 5,63,-1
 330.549804688 90 l 4,27,28
EndSplineSet
EndChar

StartChar: b_small
Encoding: 280 -1 278
Width: 487
GlyphClass: 2
Flags: W
LayerCount: 2
Fore
SplineSet
57 324 m 1048,0,-1
344 870.96875 m 0,1,2
 233 873 233 873 184 682 c 1,3,-1
 98 362 l 1,4,-1
 191 454 l 1,5,6
 287.798828125 557.551757812 287.798828125 557.551757812 340.84765625 626 c 0,7,8
 528.116503138 867.629583509 528.116503138 867.629583509 344 870.96875 c 0,1,2
95.44921875 352.45703125 m 1,9,10
 44 203 44 203 62 122 c 0,11,12
 77 54 77 54 121 24 c 0,13,14
 157 -1 157 -1 206 6 c 0,15,16
 320 22 320 22 364 181 c 0,17,18
 398 303 398 303 348 399 c 0,19,20
 330 434 330 434 303 457.143554688 c 0,21,22
 302 458 302 458 304 460 c 2,23,-1
 306 462 l 1,24,25
 336 435 336 435 353 403 c 0,26,27
 405 306 405 306 370 180 c 0,28,29
 324 13 324 13 206.5 0.5 c 0,30,31
 155 -5 155 -5 117 19 c 0,32,33
 75 45 75 45 56 120 c 0,34,35
 35 202 35 202 86.455078125 343.66015625 c 1,36,-1
 61 319 l 1,37,38
 54 321 54 321 57 324 c 2,39,-1
 90 357 l 1,40,41
 96 380 96 380 141 540 c 2,42,-1
 178 683 l 2,43,44
 229 880 229 880 345 876.029296875 c 0,45,46
 535 869 535 869 346.725585938 623 c 0,47,48
 293 553 293 553 196 449 c 1,49,-1
 95.44921875 352.45703125 l 1,9,10
EndSplineSet
EndChar

StartChar: c_small
Encoding: 281 -1 279
Width: 455
GlyphClass: 2
Flags: W
LayerCount: 2
Back
SplineSet
358.416992188 73 m 132,-1,0
 358.416992188 85 358.416992188 85 370.416992188 85 c 132,-1,1
 382.416992188 85 382.416992188 85 382.416992188 73 c 132,-1,2
 382.416992188 61 382.416992188 61 370.416992188 61 c 132,-1,3
 358.416992188 61 358.416992188 61 358.416992188 73 c 132,-1,0
EndSplineSet
Fore
SplineSet
51 183 m 24,0,1
 51 303 51 303 132 431 c 0,2,3
 172 494 172 494 234 492 c 0,4,5
 286.356445312 490.584960938 286.356445312 490.584960938 320.5 461.5 c 0,6,7
 354 433 354 433 371.041015625 401 c 1,8,-1
 367 397 l 1,9,10
 349 430 349 430 317 457.143554688 c 1,11,12
 284 485 284 485 235 487 c 0,13,14
 175.876953125 489.413085938 175.876953125 489.413085938 137.166992188 427 c 0,15,16
 58 300 58 300 57.1435546875 185.55078125 c 0,17,18
 56 112 56 112 86 66 c 0,19,20
 108 32 108 32 132.75 20.85546875 c 0,21,22
 170 4 170 4 223.41015625 4.876953125 c 0,23,24
 261 6 261 6 288 17.533203125 c 128,-1,25
 315 29 315 29 337.071289062 59 c 24,26,-1
 354 82 l 8,27,28
 359 86 359 86 365 85 c 0,29,30
 369 84 369 84 371.5 82 c 128,-1,31
 374 80 374 80 375 75 c 0,32,33
 376 68 376 68 371 63 c 128,-1,34
 366 58 366 58 348 46 c 0,35,36
 306 18 306 18 292 12.9091796875 c 0,37,38
 258 0 258 0 222.475585938 -0.6142578125 c 0,39,40
 171 -2 171 -2 131.5 16 c 0,41,42
 101 30 101 30 81 62 c 0,43,44
 51 108 51 108 51 183 c 24,0,1
EndSplineSet
EndChar

StartChar: m_small
Encoding: 282 -1 280
Width: 781
GlyphClass: 2
Flags: W
LayerCount: 2
Fore
SplineSet
356 407 m 0,0,1
 359 438 359 438 392 466.928710938 c 0,2,3
 422 492 422 492 487 491.76171875 c 0,4,5
 543 492 543 492 580 450 c 0,6,7
 642.920426489 379.452855149 642.920426489 379.452855149 578.37890625 106 c 0,8,9
 555.849914043 3.97936235057 555.849914043 3.97936235057 619.5 6 c 0,10,11
 648 7 648 7 676 41 c 0,12,13
 690 58 690 58 692 59.5 c 0,14,15
 695 61 695 61 701 61 c 0,16,17
 705 61 705 61 710 56 c 0,18,19
 712 54 712 54 712 50 c 0,20,21
 712 45 712 45 709.134765625 40 c 0,22,23
 706 35 706 35 695 28 c 0,24,25
 650 0 650 0 622.599609375 0 c 0,26,27
 546.862437855 0 546.862437855 0 572.572265625 107 c 0,28,29
 633.840284282 377.910907973 633.840284282 377.910907973 576 447.5 c 0,30,31
 544 486 544 486 486.5 487 c 128,-1,32
 429 488 429 488 397 463.145507812 c 0,33,34
 365 438 365 438 361 399 c 8,35,-1
 345.713867188 280 l 2,36,37
 321 88 321 88 320.35546875 42 c 0,38,39
 320 3 320 3 320.595703125 2 c 0,40,41
 320 -2 320 -2 307 -0.646484375 c 0,42,43
 301.185999953 -0.0200410106049 301.185999953 -0.0200410106049 301.584960938 3 c 2,44,-1
 306.869140625 43 l 0,45,-1
 338.180664062 280 l 1,46,-1
 350 365 l 1,47,-1
 356 407 l 0,0,1
349 359 m 1,48,49
 357 436 357 436 322 463 c 0,50,51
 295 484 295 484 227 486.094726562 c 0,52,53
 170 488 170 488 139 467.47265625 c 0,54,55
 110 449 110 449 103 412 c 0,56,57
 101 402 101 402 99.2392578125 391 c 0,58,59
 98 380 98 380 83.7138671875 280 c 0,60,61
 60 115 60 115 58.8095703125 44 c 0,62,63
 58 4 58 4 57.595703125 2 c 0,64,65
 57 -2 57 -2 44 -0.646484375 c 0,66,67
 38.1859881191 -0.0200397354852 38.1859881191 -0.0200397354852 38.5849609375 3 c 2,68,-1
 44.265625 46 l 0,69,-1
 75.1806640625 280 l 1,70,-1
 95 413 l 1,71,-1
 106 490.879882812 l 0,72,73
 111 491 111 491 113 490.879882812 c 1,74,75
 111 477 111 477 105 436 c 1,76,77
 111 457 111 457 135 472.1328125 c 0,78,79
 168 493 168 493 228 491.76171875 c 0,80,81
 289 491 289 491 325 467 c 0,82,83
 363 441 363 441 356 363 c 1,84,-1
 349 359 l 1,48,49
EndSplineSet
EndChar

StartChar: n_small
Encoding: 283 -1 281
Width: 544
GlyphClass: 2
Flags: W
LayerCount: 2
Fore
SplineSet
113 490.879882812 m 1,0,1
 108 460 108 460 104 430 c 1,2,3
 119 491 119 491 243 491.76171875 c 0,4,5
 311 492 311 492 348 450 c 0,6,7
 381 413 381 413 374 296 c 0,8,9
 371.185448827 249.55990565 371.185448827 249.55990565 364.933520103 204 c 0,10,11
 357.857720872 152.436273098 357.857720872 152.436273098 346.37890625 102 c 0,12,13
 336.431340321 59.4645837404 336.431340321 59.4645837404 347.401367188 29 c 0,14,15
 356 5 356 5 387.5 6 c 0,16,17
 416 7 416 7 444 41 c 0,18,19
 458 58 458 58 460 59.5 c 0,20,21
 463 61 463 61 469 61 c 0,22,23
 473 61 473 61 478 56 c 0,24,25
 480 54 480 54 480 50 c 0,26,27
 480 45 480 45 477.134765625 40 c 0,28,29
 474 35 474 35 463 28 c 0,30,31
 418 0 418 0 390.599609375 0 c 0,32,33
 352 0 352 0 342.662109375 27 c 0,34,35
 330.38533076 61.6917455732 330.38533076 61.6917455732 340.572265625 103 c 0,36,37
 351.89976507 153.220542615 351.89976507 153.220542615 358.915870209 204 c 0,38,39
 365.171823744 249.277817196 365.171823744 249.277817196 368 295 c 0,40,41
 374.036761488 409.149671772 374.036761488 409.149671772 344 445 c 0,42,43
 309 485 309 485 242 486.094726562 c 0,44,45
 117 489 117 489 102 412 c 0,46,47
 100 402 100 402 98.2392578125 391 c 0,48,49
 84.24145227 290.770810438 84.24145227 290.770810438 82.7138671875 280 c 0,50,51
 63 141 63 141 57.595703125 2 c 0,52,53
 57 -2 57 -2 44 -0.646484375 c 0,54,55
 38.1859702974 -0.0200378152451 38.1859702974 -0.0200378152451 38.5849609375 3 c 2,56,-1
 75.1806640625 280 l 1,57,-1
 95 413 l 1,58,-1
 106 490.879882812 l 0,59,60
 111 491 111 491 113 490.879882812 c 1,0,1
EndSplineSet
EndChar

StartChar: p_small
Encoding: 284 -1 282
Width: 559
GlyphClass: 2
Flags: W
LayerCount: 2
Fore
SplineSet
128 490.879882812 m 1,0,1
 123 462 123 462 119 431 c 1,2,3
 134 491 134 491 257 491.76171875 c 0,4,5
 325 492 325 492 362 450 c 0,6,7
 396 412 396 412 388 296 c 0,8,9
 383 223 383 223 360.37890625 102 c 0,10,11
 352 58 352 58 361.401367188 29 c 0,12,13
 370 5 370 5 401.5 6 c 0,14,15
 430 7 430 7 458 41 c 0,16,17
 472 58 472 58 474 59.5 c 0,18,19
 477 61 477 61 483 61 c 0,20,21
 487 61 487 61 492 56 c 0,22,23
 494 54 494 54 494 50 c 0,24,25
 494 45 494 45 491.134765625 40 c 0,26,27
 488 35 488 35 477 28 c 0,28,29
 432 0 432 0 404.599609375 0 c 0,30,31
 366 0 366 0 356.662109375 27 c 0,32,33
 346 58 346 58 354.572265625 103 c 0,34,35
 377 217 377 217 382 295 c 0,36,37
 389 408 389 408 358 445 c 0,38,39
 323 485 323 485 256 486.094726562 c 0,40,41
 132 489 132 489 117 412 c 0,42,43
 115 402 115 402 113.239257812 391 c 0,44,45
 107 358 107 358 97.7138671875 280 c 0,46,47
 60.4287109375 -27.5048828125 60.4287109375 -27.5048828125 40.8291015625 -188 c 0,48,49
 23 -334 23 -334 24 -378 c 0,50,51
 23 -385 23 -385 7.404296875 -383.646484375 c 0,52,53
 1.1904296875 -383.01953125 1.1904296875 -383.01953125 1.9892578125 -377 c 2,54,-1
 89.1806640625 280 l 1,55,-1
 109 413 l 1,56,-1
 120 490.879882812 l 0,57,58
 126 491 126 491 128 490.879882812 c 1,0,1
EndSplineSet
EndChar

StartChar: x_small
Encoding: 285 -1 283
Width: 520
GlyphClass: 2
Flags: W
LayerCount: 2
Fore
SplineSet
354.599609375 0 m 4,0,1
 308 0 308 0 267 43.578125 c 4,2,3
 242 70 242 70 235.867558252 134 c 4,4,5
 234 149 234 149 234.045898438 166.678710938 c 5,6,7
 231 150 231 150 226.599280944 135 c 4,8,9
 209 71 209 71 174.712890625 34 c 4,10,11
 145 1 145 1 109 1.1201171875 c 4,12,13
 82 1 82 1 63 5.22265625 c 4,14,15
 23 14 23 14 2 56 c 4,16,17
 2 58 2 58 6.5 60 c 132,-1,18
 11 62 11 62 13 64 c 5,19,20
 34 18 34 18 65 11.404296875 c 4,21,22
 82 8 82 8 107.416015625 7.4091796875 c 4,23,24
 141 6 141 6 170.231445312 38 c 132,-1,25
 199.542896263 70.0875830935 199.542896263 70.0875830935 219.390220828 137 c 4,26,27
 227 162 227 162 232 190 c 4,28,29
 238.18027198 222.853024736 238.18027198 222.853024736 244.80078125 278 c 4,30,31
 248 305 248 305 244.759035116 352 c 4,32,33
 234 485 234 485 138 485 c 4,34,35
 98 485 98 485 64 436 c 4,36,-1
 60 438.5 l 4,37,38
 58 440 58 440 59 441 c 4,39,40
 94 491 94 491 138 490.8046875 c 4,41,42
 240 491 240 491 251.489962489 354 c 4,43,44
 253 340 253 340 252.954101562 325.321289062 c 5,45,46
 256 340 256 340 259.5819915 354 c 4,47,48
 296 491 296 491 378 490.879882812 c 4,49,50
 425 491 425 491 449 478 c 4,51,52
 469 468 469 468 485 436 c 4,53,54
 485 434 485 434 483.5 433 c 132,-1,55
 482 432 482 432 480 430 c 5,56,57
 467 461 467 461 447 472 c 4,58,59
 423 485 423 485 379.583984375 484.590820312 c 4,60,61
 300 483 300 483 265.175943279 352 c 4,62,63
 259 329 259 329 255 302 c 4,64,65
 243 226 243 226 242.19921875 214 c 4,66,67
 239 175 239 175 242.543856005 136 c 4,68,69
 248 73 248 73 271 47.8740234375 c 4,70,71
 309 8 309 8 353 6 c 28,72,73
 378 5 378 5 408 41 c 4,74,75
 422 58 422 58 424 59.5 c 4,76,77
 427 61 427 61 433 61 c 4,78,79
 437 61 437 61 442 56 c 4,80,81
 444 54 444 54 444 50 c 4,82,83
 444 45 444 45 441.134765625 40 c 4,84,85
 438 35 438 35 427 28 c 4,86,87
 382 0 382 0 354.599609375 0 c 4,0,1
EndSplineSet
EndChar

StartChar: y_small
Encoding: 286 -1 284
Width: 468
GlyphClass: 2
Flags: W
LayerCount: 2
Fore
SplineSet
337.4453125 86.318359375 m 1,0,1
 323 -2 323 -2 181 0.23828125 c 0,2,3
 117 1 117 1 81 42 c 0,4,5
 49 78 49 78 55 196 c 0,6,7
 60 303 60 303 100 481 c 0,8,9
 102 490 102 490 102.25 490.75 c 0,10,11
 102 491 102 491 105 491 c 128,-1,12
 108 491 108 491 108 490.879882812 c 0,13,14
 107 487 107 487 106 481 c 0,15,16
 66 301 66 301 61 197 c 0,17,18
 55 82 55 82 85 47 c 0,19,20
 122 5 122 5 192 5.9052734375 c 0,21,22
 319 8 319 8 330 80 c 0,23,24
 336 117 336 117 335.221679688 123.0625 c 24,25,26
 335 125 335 125 335.140625 127 c 0,27,28
 335.037109375 176.311523438 335.037109375 176.311523438 343.676757812 263 c 0,29,30
 346.864257812 294.978515625 346.864257812 294.978515625 370 490.879882812 c 1,31,-1
 385 490.879882812 l 1,32,33
 358.013671875 323.897460938 358.013671875 323.897460938 351.806640625 262 c 0,34,35
 342 164.215820312 342 164.215820312 342 127 c 0,36,37
 343 73 343 73 363 -60 c 0,38,39
 397 -288 397 -288 288 -337 c 0,40,41
 187 -382 187 -382 94 -360 c 0,42,43
 35 -346 35 -346 12 -280 c 1,44,-1
 1 -232 l 2,45,46
 -5 -204 -5 -204 4 -195 c 0,47,48
 10 -189 10 -189 19.5 -194.5 c 0,49,50
 24 -197 24 -197 23.876953125 -205 c 0,51,52
 24 -208 24 -208 20 -225 c 0,53,54
 13 -256 13 -256 19 -277 c 0,55,56
 38 -340 38 -340 95 -355 c 0,57,58
 180 -377 180 -377 285 -331.5 c 0,59,60
 393 -284 393 -284 357 -62 c 0,61,62
 342 30 342 30 337.4453125 86.318359375 c 1,0,1
EndSplineSet
EndChar

StartChar: endash
Encoding: 256 8211 285
Width: 605
GlyphClass: 2
Flags: W
LayerCount: 2
Fore
SplineSet
495 369 m 5,0,1
 493 363 493 363 493 362 c 5,2,-1
 81 355 l 5,3,4
 82.5 362 l 5,5,6
 226 360 226 360 495 369 c 5,0,1
EndSplineSet
EndChar

StartChar: emdash
Encoding: 257 8212 286
Width: 746
GlyphClass: 2
Flags: W
LayerCount: 2
Fore
SplineSet
645 369 m 5,1,2
 643 363 643 363 643 362 c 5,3,-1
 81 355 l 5,4,-1
 82.5 362 l 5,5,6
 338 360 338 360 645 369 c 5,1,2
EndSplineSet
EndChar

StartChar: dot
Encoding: 287 -1 287
Width: 155
Flags: W
LayerCount: 2
Fore
SplineSet
76 39 m 4,0,1
 78 5 78 5 52 0 c 4,2,3
 44 -1 44 -1 42 21 c 4,4,5
 38.173828125 59.2607421875 38.173828125 59.2607421875 54 69 c 4,6,7
 73.4931640625 80.37109375 73.4931640625 80.37109375 76 39 c 4,0,1
EndSplineSet
EndChar

StartChar: comma_tmpl
Encoding: 288 -1 288
Width: 155
Flags: W
LayerCount: 2
Fore
SplineSet
44 -91 m 5,0,-1
 38 -89 l 28,1,2
 61 -50 61 -50 64 35 c 5,3,-1
 76 35 l 5,4,5
 77 -51 77 -51 44 -91 c 5,0,-1
EndSplineSet
Refer: 287 -1 N 1 0 0 1 0 0 2
EndChar
